G04 Layer_Color=8388736*
%FSLAX44Y44*%
%MOMM*%
G71*
G01*
G75*
%ADD77C,0.1000*%
D77*
X396000Y607000D02*
X404001D01*
X396000Y623000D02*
X404001D01*
Y607000D02*
Y623000D01*
X396000Y607000D02*
Y623000D01*
X350999Y588000D02*
X359000D01*
X350999Y572000D02*
X359000D01*
X350999D02*
Y588000D01*
X359000Y572000D02*
Y588000D01*
X322000Y543499D02*
Y551500D01*
X338000Y543499D02*
Y551500D01*
X322000Y543499D02*
X338000D01*
X322000Y551500D02*
X338000D01*
X264500Y525999D02*
Y534000D01*
X280500Y525999D02*
Y534000D01*
X264500Y525999D02*
X280500D01*
X264500Y534000D02*
X280500D01*
X753000Y746000D02*
Y754001D01*
X737000Y746000D02*
Y754001D01*
X753000D01*
X737000Y746000D02*
X753000D01*
X171000Y624500D02*
X179001D01*
X171000Y640500D02*
X179001D01*
Y624500D02*
Y640500D01*
X171000Y624500D02*
Y640500D01*
X156000Y572000D02*
X164001D01*
X156000Y588000D02*
X164001D01*
Y572000D02*
Y588000D01*
X156000Y572000D02*
Y588000D01*
X158499Y510500D02*
X166500D01*
X158499Y494500D02*
X166500D01*
X158499D02*
Y510500D01*
X166500Y494500D02*
Y510500D01*
X210999Y543000D02*
X219000D01*
X210999Y527000D02*
X219000D01*
X210999D02*
Y543000D01*
X219000Y527000D02*
Y543000D01*
X85999Y473000D02*
X94000D01*
X85999Y457000D02*
X94000D01*
X85999D02*
Y473000D01*
X94000Y457000D02*
Y473000D01*
X56000Y457000D02*
X64001D01*
X56000Y473000D02*
X64001D01*
Y457000D02*
Y473000D01*
X56000Y457000D02*
Y473000D01*
X294500Y493499D02*
Y501500D01*
X310500Y493499D02*
Y501500D01*
X294500Y493499D02*
X310500D01*
X294500Y501500D02*
X310500D01*
X378499Y525500D02*
X386500D01*
X378499Y509500D02*
X386500D01*
X378499D02*
Y525500D01*
X386500Y509500D02*
Y525500D01*
X473499Y615500D02*
X481500D01*
X473499Y599500D02*
X481500D01*
X473499D02*
Y615500D01*
X481500Y599500D02*
Y615500D01*
X489500Y630999D02*
Y639000D01*
X505500Y630999D02*
Y639000D01*
X489500Y630999D02*
X505500D01*
X489500Y639000D02*
X505500D01*
X438500Y619500D02*
X446501D01*
X438500Y635500D02*
X446501D01*
Y619500D02*
Y635500D01*
X438500Y619500D02*
Y635500D01*
X410999Y670500D02*
X419000D01*
X410999Y654500D02*
X419000D01*
X410999D02*
Y670500D01*
X419000Y654500D02*
Y670500D01*
X415999Y588000D02*
X424000D01*
X415999Y572000D02*
X424000D01*
X415999D02*
Y588000D01*
X424000Y572000D02*
Y588000D01*
X306500Y583499D02*
Y591500D01*
X322500Y583499D02*
Y591500D01*
X306500Y583499D02*
X322500D01*
X306500Y591500D02*
X322500D01*
X376000Y574000D02*
X384001D01*
X376000Y590000D02*
X384001D01*
Y574000D02*
Y590000D01*
X376000Y574000D02*
Y590000D01*
X703000Y586000D02*
Y594001D01*
X687000Y586000D02*
Y594001D01*
X703000D01*
X687000Y586000D02*
X703000D01*
Y606000D02*
Y614001D01*
X687000Y606000D02*
Y614001D01*
X703000D01*
X687000Y606000D02*
X703000D01*
Y636000D02*
Y644001D01*
X687000Y636000D02*
Y644001D01*
X703000D01*
X687000Y636000D02*
X703000D01*
X846000Y617000D02*
X854001D01*
X846000Y633000D02*
X854001D01*
Y617000D02*
Y633000D01*
X846000Y617000D02*
Y633000D01*
X816000Y617000D02*
X824001D01*
X816000Y633000D02*
X824001D01*
Y617000D02*
Y633000D01*
X816000Y617000D02*
Y633000D01*
M02*
