G04 Layer_Physical_Order=2*
G04 Layer_Color=16711680*
%FSLAX44Y44*%
%MOMM*%
G71*
G01*
G75*
%ADD10R,0.8500X0.8500*%
%ADD11R,0.8500X0.8500*%
%ADD19C,0.2540*%
%ADD20C,0.4000*%
%ADD21C,0.3000*%
%ADD22C,0.5000*%
%ADD23R,6.0000X6.0000*%
%ADD28O,1.8000X2.4000*%
%ADD29C,2.0000*%
%ADD30R,2.0000X2.0000*%
%ADD31R,2.0000X2.0000*%
%ADD32C,1.8000*%
G04:AMPARAMS|DCode=33|XSize=5mm|YSize=4mm|CornerRadius=1.4mm|HoleSize=0mm|Usage=FLASHONLY|Rotation=270.000|XOffset=0mm|YOffset=0mm|HoleType=Round|Shape=RoundedRectangle|*
%AMROUNDEDRECTD33*
21,1,5.0000,1.2000,0,0,270.0*
21,1,2.2000,4.0000,0,0,270.0*
1,1,2.8000,-0.6000,-1.1000*
1,1,2.8000,-0.6000,1.1000*
1,1,2.8000,0.6000,1.1000*
1,1,2.8000,0.6000,-1.1000*
%
%ADD33ROUNDEDRECTD33*%
%ADD34C,1.3000*%
%ADD35C,1.2700*%
%ADD36C,0.6000*%
%ADD37R,2.4000X3.3000*%
%ADD38R,2.4000X1.0000*%
G04:AMPARAMS|DCode=39|XSize=2mm|YSize=0.9mm|CornerRadius=0.045mm|HoleSize=0mm|Usage=FLASHONLY|Rotation=0.000|XOffset=0mm|YOffset=0mm|HoleType=Round|Shape=RoundedRectangle|*
%AMROUNDEDRECTD39*
21,1,2.0000,0.8100,0,0,0.0*
21,1,1.9100,0.9000,0,0,0.0*
1,1,0.0900,0.9550,-0.4050*
1,1,0.0900,-0.9550,-0.4050*
1,1,0.0900,-0.9550,0.4050*
1,1,0.0900,0.9550,0.4050*
%
%ADD39ROUNDEDRECTD39*%
%ADD40R,2.0000X0.9000*%
%ADD41R,1.3300X1.3300*%
%ADD42R,1.3300X1.3300*%
G04:AMPARAMS|DCode=43|XSize=2mm|YSize=0.9mm|CornerRadius=0.045mm|HoleSize=0mm|Usage=FLASHONLY|Rotation=270.000|XOffset=0mm|YOffset=0mm|HoleType=Round|Shape=RoundedRectangle|*
%AMROUNDEDRECTD43*
21,1,2.0000,0.8100,0,0,270.0*
21,1,1.9100,0.9000,0,0,270.0*
1,1,0.0900,-0.4050,-0.9550*
1,1,0.0900,-0.4050,0.9550*
1,1,0.0900,0.4050,0.9550*
1,1,0.0900,0.4050,-0.9550*
%
%ADD43ROUNDEDRECTD43*%
%ADD44O,2.2000X0.6000*%
G36*
X405204Y596639D02*
X412750Y589093D01*
Y579750D01*
Y565750D01*
X408878Y559354D01*
X401362D01*
X395112Y564521D01*
X394380Y565771D01*
X393807Y568648D01*
X391741Y571741D01*
X388648Y573807D01*
X387250Y574086D01*
Y581750D01*
Y589093D01*
X394796Y596639D01*
X405204D01*
D02*
G37*
G36*
X347750Y579750D02*
Y565750D01*
X357479D01*
X358000Y565646D01*
X366475D01*
X367163Y564854D01*
X365259Y559371D01*
X362646Y556854D01*
X342000D01*
X340334Y556522D01*
X338922Y555578D01*
X338093Y554750D01*
X327354D01*
Y580250D01*
X328750D01*
Y583146D01*
X347750D01*
Y579750D01*
D02*
G37*
G36*
X635646Y658197D02*
Y569399D01*
X634780Y569041D01*
X632618Y567382D01*
X630959Y565220D01*
X630825Y564895D01*
X626549Y563625D01*
X619514Y569503D01*
Y663016D01*
X627514Y666329D01*
X635646Y658197D01*
D02*
G37*
G36*
X595646Y318197D02*
Y281031D01*
X594181Y278912D01*
X589750Y274718D01*
X581650D01*
X577392Y281308D01*
X577354Y281399D01*
Y287000D01*
X577022Y288666D01*
X576078Y290079D01*
X559354Y306803D01*
Y343176D01*
X567354Y346489D01*
X595646Y318197D01*
D02*
G37*
G36*
X890359Y311522D02*
X890646Y311093D01*
Y279102D01*
X882646Y275267D01*
X881854Y275904D01*
Y314028D01*
X882646Y314794D01*
X890359Y311522D01*
D02*
G37*
G36*
X653884Y307234D02*
X654628Y300785D01*
X634368Y280525D01*
X633589Y280027D01*
X633030Y279866D01*
X631194Y280063D01*
X625615Y284198D01*
X625485Y284873D01*
X625539Y289382D01*
X646335Y310178D01*
X653884Y307234D01*
D02*
G37*
G36*
X375250Y531750D02*
Y517250D01*
Y503250D01*
X368864Y499354D01*
X316750D01*
Y504750D01*
X288250D01*
Y501854D01*
X214303D01*
X204354Y511803D01*
Y514157D01*
X207750Y520750D01*
X222250D01*
Y523646D01*
X250500D01*
X258250Y522750D01*
Y522750D01*
X286750D01*
Y525646D01*
X347500D01*
X349166Y525978D01*
X350578Y526922D01*
X361803Y538146D01*
X371378D01*
X375250Y531750D01*
D02*
G37*
G36*
X590266Y592795D02*
X590494Y591651D01*
X581922Y583078D01*
X580978Y581666D01*
X580646Y580000D01*
Y522102D01*
X577354Y519391D01*
X569354Y523167D01*
Y583197D01*
X581586Y595429D01*
X590266Y592795D01*
D02*
G37*
G36*
X451193Y543852D02*
X451227Y543800D01*
X453259Y540759D01*
X455056Y539559D01*
X455500Y531657D01*
X438697Y514854D01*
X401061D01*
X398634Y522854D01*
X399241Y523259D01*
X401307Y526352D01*
X402033Y530000D01*
X402004Y530146D01*
X406614Y537256D01*
X407924Y538146D01*
X421664D01*
X423259Y535759D01*
X426352Y533693D01*
X430000Y532967D01*
X433648Y533693D01*
X436741Y535759D01*
X438807Y538852D01*
X439528Y542472D01*
X446354Y546097D01*
X451193Y543852D01*
D02*
G37*
G36*
X777292Y609995D02*
X777436Y609834D01*
X778131Y604288D01*
X709832Y535989D01*
X701417Y538480D01*
X700162Y544005D01*
X768996Y612839D01*
X777292Y609995D01*
D02*
G37*
G36*
X318646Y554750D02*
X315750D01*
Y540250D01*
X310671Y534354D01*
X286750D01*
Y537250D01*
X269854D01*
Y547697D01*
X302407Y580250D01*
X318646D01*
Y554750D01*
D02*
G37*
G36*
X705811Y673021D02*
X681395Y648605D01*
X680290Y646951D01*
X679902Y645000D01*
Y610000D01*
Y574361D01*
X674887Y570755D01*
X666740Y571740D01*
X664352Y573335D01*
Y660001D01*
X664021Y661667D01*
X663077Y663080D01*
X653745Y672412D01*
X657059Y680412D01*
X702750D01*
X705811Y673021D01*
D02*
G37*
G36*
X542376Y394679D02*
X542815Y386804D01*
X439256Y283244D01*
X438261Y281756D01*
X437912Y280000D01*
Y227723D01*
X437639Y227459D01*
X430220Y224041D01*
X427702Y225084D01*
X426270Y225272D01*
Y215000D01*
Y204728D01*
X427702Y204916D01*
X430220Y205959D01*
X437639Y202541D01*
X437912Y202277D01*
Y127500D01*
X438261Y125744D01*
X439256Y124256D01*
X454806Y108706D01*
X456294Y107711D01*
X458050Y107362D01*
X461776D01*
X468582Y103300D01*
Y95200D01*
X468850Y93854D01*
X468886Y93800D01*
X467908Y92336D01*
X467563Y90600D01*
Y87820D01*
X495737D01*
Y90600D01*
X495392Y92336D01*
X494414Y93800D01*
X494450Y93854D01*
X494718Y95200D01*
Y103300D01*
X494450Y104646D01*
X493812Y105600D01*
X494450Y106554D01*
X494718Y107900D01*
Y116000D01*
X494450Y117346D01*
X493812Y118300D01*
X494450Y119254D01*
X494718Y120600D01*
Y128700D01*
X494450Y130046D01*
X493812Y131000D01*
X494450Y131954D01*
X494718Y133300D01*
Y141400D01*
X495778Y142420D01*
X497312Y142892D01*
X505118Y142618D01*
X507280Y140959D01*
X509798Y139916D01*
X511230Y139728D01*
Y150000D01*
Y160272D01*
X509798Y160084D01*
X507280Y159041D01*
X505118Y157382D01*
X497320Y157157D01*
X495801Y157636D01*
X494718Y158700D01*
Y166800D01*
X494450Y168146D01*
X493812Y169100D01*
X494450Y170054D01*
X494718Y171400D01*
Y179500D01*
X494450Y180846D01*
X493812Y181800D01*
X494450Y182754D01*
X494718Y184100D01*
Y192200D01*
X494450Y193546D01*
X493812Y194500D01*
X494450Y195454D01*
X494718Y196800D01*
Y204900D01*
X494450Y206246D01*
X493812Y207200D01*
X494450Y208154D01*
X494718Y209500D01*
Y217600D01*
X494450Y218946D01*
X493812Y219900D01*
X494450Y220854D01*
X494718Y222200D01*
Y230300D01*
X494450Y231646D01*
X493812Y232600D01*
X494450Y233554D01*
X494718Y234900D01*
Y243000D01*
X499860Y247593D01*
X501182Y248387D01*
X502718Y248574D01*
X503714Y247908D01*
X505450Y247563D01*
X508230D01*
Y261650D01*
Y275737D01*
X505450D01*
X503714Y275392D01*
X502242Y274408D01*
X501258Y272936D01*
X500913Y271200D01*
Y261773D01*
X496524Y259595D01*
X492913Y258705D01*
X492546Y258950D01*
X491200Y259218D01*
X472100D01*
X470754Y258950D01*
X469613Y258187D01*
X468850Y257046D01*
X468582Y255700D01*
Y247600D01*
X468850Y246254D01*
X469487Y245300D01*
X468850Y244346D01*
X468582Y243000D01*
Y234900D01*
X468850Y233554D01*
X469487Y232600D01*
X468850Y231646D01*
X468582Y230300D01*
Y222200D01*
X468850Y220854D01*
X469487Y219900D01*
X468850Y218946D01*
X468582Y217600D01*
Y209500D01*
X468850Y208154D01*
X469487Y207200D01*
X468850Y206246D01*
X468582Y204900D01*
Y196800D01*
X468850Y195454D01*
X469487Y194500D01*
X468850Y193546D01*
X468582Y192200D01*
Y184100D01*
X468850Y182754D01*
X469487Y181800D01*
X468850Y180846D01*
X468582Y179500D01*
Y171400D01*
X468850Y170054D01*
X469487Y169100D01*
X468850Y168146D01*
X468582Y166800D01*
Y158700D01*
X468850Y157354D01*
X469487Y156400D01*
X468850Y155446D01*
X468582Y154100D01*
Y146000D01*
X468850Y144654D01*
X469487Y143700D01*
X468850Y142746D01*
X468582Y141400D01*
Y133300D01*
X468850Y131954D01*
X469487Y131000D01*
X468850Y130046D01*
X468582Y128700D01*
Y120600D01*
X461776Y116538D01*
X459950D01*
X447088Y129401D01*
Y278099D01*
X542646Y373658D01*
X550646Y370344D01*
Y305000D01*
X550978Y303334D01*
X551922Y301922D01*
X556791Y297052D01*
X556640Y294216D01*
X554775Y287754D01*
X553259Y286741D01*
X551193Y283648D01*
X550467Y280000D01*
X543550Y274718D01*
X542204Y274450D01*
X541250Y273813D01*
X540296Y274450D01*
X538950Y274718D01*
X530850D01*
X529504Y274450D01*
X528550Y273813D01*
X527596Y274450D01*
X526250Y274718D01*
X518150D01*
X516804Y274450D01*
X516750Y274414D01*
X515286Y275392D01*
X513550Y275737D01*
X510770D01*
Y261650D01*
Y247563D01*
X513550D01*
X515286Y247908D01*
X516750Y248886D01*
X516804Y248850D01*
X518150Y248582D01*
X526250D01*
X527596Y248850D01*
X528550Y249487D01*
X529504Y248850D01*
X530850Y248582D01*
X538950D01*
X540296Y248850D01*
X541250Y249487D01*
X542204Y248850D01*
X543550Y248582D01*
X551650D01*
X552996Y248850D01*
X553950Y249487D01*
X554904Y248850D01*
X556250Y248582D01*
X564350D01*
X565696Y248850D01*
X566650Y249487D01*
X567604Y248850D01*
X568950Y248582D01*
X577050D01*
X581678Y242634D01*
X582621Y241222D01*
X586922Y236922D01*
X588334Y235978D01*
X590000Y235646D01*
X630000D01*
X630582Y235762D01*
X632714Y235532D01*
X638711Y230945D01*
X638582Y230300D01*
Y222200D01*
X638850Y220854D01*
X639487Y219900D01*
X638850Y218946D01*
X638582Y217600D01*
Y209500D01*
X638850Y208154D01*
X639487Y207200D01*
X638850Y206246D01*
X638582Y204900D01*
Y196800D01*
X638850Y195454D01*
X639487Y194500D01*
X638850Y193546D01*
X638582Y192200D01*
Y184100D01*
X638780Y183108D01*
X638650Y182950D01*
X638650D01*
Y167950D01*
Y155250D01*
Y142550D01*
Y129850D01*
Y117150D01*
Y104450D01*
Y91750D01*
X638650Y79050D01*
X631206Y77709D01*
X502320D01*
X502120Y77797D01*
X495737Y82500D01*
X495737Y85280D01*
X467563D01*
Y82500D01*
X467908Y80764D01*
X467908Y80764D01*
X468892Y79292D01*
X471668Y75588D01*
X473284Y72218D01*
X473591Y70724D01*
Y69963D01*
Y11650D01*
X473824Y10480D01*
X472673Y6271D01*
X470544Y2500D01*
X89971D01*
X86657Y10500D01*
X116803Y40646D01*
X120000D01*
X121666Y40978D01*
X123078Y41922D01*
X181803Y100646D01*
X370000D01*
X371666Y100978D01*
X373078Y101922D01*
X413078Y141922D01*
X414022Y143334D01*
X414354Y145000D01*
Y200040D01*
X415870Y201694D01*
X422298Y204916D01*
X423730Y204728D01*
Y215000D01*
Y225272D01*
X422298Y225084D01*
X415870Y228306D01*
X414354Y229960D01*
Y278197D01*
X531796Y395639D01*
X540759Y395759D01*
X542376Y394679D01*
D02*
G37*
G36*
X821270Y609750D02*
X826741D01*
X831997Y603610D01*
X831921Y603078D01*
X826921Y598078D01*
X826658Y597685D01*
X825738Y596573D01*
X819866Y594282D01*
X817646Y594007D01*
X815000Y594533D01*
X811352Y593807D01*
X808259Y591741D01*
X806192Y588648D01*
X806147Y588419D01*
X799273Y584192D01*
X797730Y583990D01*
X795000Y584533D01*
X791352Y583807D01*
X788259Y581741D01*
X786664Y579354D01*
X785000D01*
X783334Y579022D01*
X781921Y578078D01*
X724833Y520990D01*
X716418Y523482D01*
X715163Y529006D01*
X789269Y603112D01*
X790000Y602967D01*
X793648Y603693D01*
X796741Y605759D01*
X798808Y608852D01*
X798952Y609578D01*
X806754Y613153D01*
X811750Y609982D01*
Y609750D01*
X818730D01*
Y618000D01*
X821270D01*
Y609750D01*
D02*
G37*
G36*
X824370Y319343D02*
X827926Y316832D01*
X828146Y316467D01*
Y274324D01*
X823761Y271568D01*
X820321Y270836D01*
X814354Y276803D01*
Y317843D01*
X819197Y320303D01*
X824370Y319343D01*
D02*
G37*
G36*
X912525Y333981D02*
X913244Y332244D01*
X915328Y329528D01*
X915723Y324338D01*
X913644Y321556D01*
X912335Y318394D01*
X911888Y315000D01*
X912335Y311606D01*
X913644Y308444D01*
X914441Y307405D01*
X915728Y305332D01*
Y299268D01*
X914441Y297195D01*
X913644Y296156D01*
X912335Y292994D01*
X911888Y289600D01*
X912335Y286206D01*
X913644Y283044D01*
X914441Y282006D01*
X915728Y279932D01*
Y273868D01*
X914441Y271795D01*
X913644Y270756D01*
X912335Y267594D01*
X911888Y264200D01*
X911933Y263854D01*
X910616Y261855D01*
X907179Y261382D01*
X899354Y268280D01*
Y330420D01*
X903944Y334814D01*
X906659Y335015D01*
X912525Y333981D01*
D02*
G37*
G36*
X737785Y647563D02*
X740737Y642266D01*
X740745Y641902D01*
X717911Y619068D01*
X714751Y618731D01*
X708574Y623750D01*
X709217Y629122D01*
X710250Y631750D01*
X710250D01*
Y638730D01*
X702000D01*
Y641270D01*
X710480D01*
X719112Y649902D01*
X735750D01*
X737785Y647563D01*
D02*
G37*
G36*
X945646Y610697D02*
Y587679D01*
X937646Y580396D01*
X937600Y580400D01*
X937600Y580400D01*
X911600D01*
Y554400D01*
X911600D01*
X912351Y546400D01*
X911935Y545394D01*
X911488Y542000D01*
X911935Y538606D01*
X913244Y535444D01*
X914041Y534406D01*
X915328Y532332D01*
Y526268D01*
X914041Y524195D01*
X913244Y523156D01*
X911935Y519994D01*
X911488Y516600D01*
X911935Y513206D01*
X913244Y510044D01*
X913443Y509785D01*
X915236Y507003D01*
X912976Y499049D01*
X912371Y498260D01*
X910960Y494855D01*
X910646Y492470D01*
X924600D01*
Y489930D01*
X910646D01*
X910960Y487545D01*
X912371Y484140D01*
X912976Y483351D01*
X915236Y475397D01*
X913443Y472615D01*
X913244Y472356D01*
X911935Y469194D01*
X911488Y465800D01*
X911935Y462406D01*
X913244Y459244D01*
X914041Y458205D01*
X915328Y456132D01*
Y450068D01*
X914041Y447995D01*
X913244Y446956D01*
X911935Y443794D01*
X911488Y440400D01*
X911935Y437006D01*
X913244Y433844D01*
X914041Y432805D01*
X915328Y430732D01*
Y424668D01*
X914041Y422595D01*
X913244Y421556D01*
X911935Y418394D01*
X911488Y415000D01*
X911935Y411606D01*
X913244Y408444D01*
X911653Y406194D01*
X903344Y405313D01*
X897770Y410887D01*
X897472Y412322D01*
X899223Y420747D01*
X899241Y420759D01*
X901308Y423852D01*
X902033Y427500D01*
X901308Y431148D01*
X899565Y433757D01*
X898892Y435425D01*
X897477Y440223D01*
X898608Y443553D01*
X898808Y443852D01*
X899533Y447500D01*
X898808Y451148D01*
X896741Y454241D01*
X893648Y456307D01*
X890000Y457033D01*
X889269Y456888D01*
X843973Y502184D01*
X844533Y505000D01*
X843808Y508648D01*
X841741Y511741D01*
X838648Y513807D01*
X835000Y514533D01*
X831352Y513807D01*
X828259Y511741D01*
X826192Y508648D01*
X825467Y505000D01*
X826010Y502270D01*
X825808Y500727D01*
X821581Y493853D01*
X821352Y493807D01*
X818259Y491741D01*
X816192Y488648D01*
X815467Y485000D01*
X816192Y481352D01*
X818259Y478259D01*
X821352Y476193D01*
X825000Y475467D01*
X828648Y476193D01*
X831741Y478259D01*
X832964Y478379D01*
X851489Y459854D01*
X848176Y451854D01*
X807500D01*
X805834Y451522D01*
X804421Y450578D01*
X787354Y433511D01*
X779354Y436824D01*
Y483197D01*
X881803Y585646D01*
X885000D01*
X886666Y585978D01*
X888079Y586922D01*
X897184Y596027D01*
X900000Y595467D01*
X903648Y596193D01*
X906741Y598259D01*
X908808Y601352D01*
X909533Y605000D01*
X909504Y605146D01*
X914114Y612256D01*
X915424Y613146D01*
X943197D01*
X945646Y610697D01*
D02*
G37*
G36*
X655645Y655077D02*
Y577176D01*
X650575Y573867D01*
X644354Y577098D01*
Y654202D01*
X652354Y657889D01*
X655645Y655077D01*
D02*
G37*
G36*
X855932Y591261D02*
X856664Y587821D01*
X842354Y573511D01*
X834354Y576824D01*
Y593197D01*
X836803Y595646D01*
X853176D01*
X855932Y591261D01*
D02*
G37*
G36*
X746352Y631193D02*
X750000Y630467D01*
X753648Y631193D01*
X754242Y631589D01*
X754420Y631513D01*
X760725Y626300D01*
X760467Y625000D01*
X761192Y621352D01*
X762796Y618953D01*
X727354Y583511D01*
X719354Y586824D01*
Y608197D01*
X743953Y632796D01*
X746352Y631193D01*
D02*
G37*
G36*
X500646Y594652D02*
X492646Y592886D01*
X491741Y594241D01*
X488648Y596307D01*
X487651Y596506D01*
X484750Y599407D01*
Y607250D01*
Y620371D01*
X484750Y621750D01*
X489579Y627750D01*
X500646D01*
Y594652D01*
D02*
G37*
G36*
X568604Y635239D02*
X568259Y631741D01*
X566193Y628648D01*
X565467Y625000D01*
X566193Y621352D01*
X568259Y618259D01*
X571352Y616193D01*
X575000Y615467D01*
X577646Y615993D01*
X578314Y615784D01*
X581987Y608144D01*
X562354Y588511D01*
X560511Y588651D01*
X554354Y591152D01*
Y638176D01*
X558739Y640932D01*
X562179Y641664D01*
X568604Y635239D01*
D02*
G37*
G36*
X305609Y402646D02*
X302898Y399354D01*
X262102D01*
X259391Y402646D01*
X263167Y410646D01*
X301833D01*
X305609Y402646D01*
D02*
G37*
G36*
X847804Y440848D02*
X849694Y435146D01*
X848692Y433648D01*
X847967Y430000D01*
X848692Y426352D01*
X850759Y423259D01*
X853146Y421664D01*
Y411803D01*
X837816Y396473D01*
X835000Y397033D01*
X831352Y396307D01*
X828259Y394241D01*
X827354Y392886D01*
X819354Y394652D01*
Y409164D01*
X821741Y410759D01*
X823808Y413852D01*
X824533Y417500D01*
X823808Y421148D01*
X821741Y424241D01*
X818648Y426307D01*
X815000Y427033D01*
X811352Y426307D01*
X808259Y424241D01*
X806192Y421148D01*
X799042Y418751D01*
X796727Y419257D01*
X794068Y427911D01*
X809303Y443146D01*
X846150D01*
X847804Y440848D01*
D02*
G37*
G36*
X695646Y463197D02*
Y380000D01*
X695978Y378334D01*
X696921Y376922D01*
X696761Y374634D01*
X694775Y367754D01*
X693259Y366741D01*
X692103Y365011D01*
X690311Y363037D01*
X686753Y360570D01*
X682391Y361512D01*
X681466Y362639D01*
X679041Y369780D01*
X680084Y372298D01*
X680272Y373730D01*
X670000D01*
Y376270D01*
X680272D01*
X680084Y377702D01*
X679041Y380220D01*
X677382Y382382D01*
X675220Y384041D01*
X674354Y384399D01*
Y425000D01*
X674022Y426666D01*
X673079Y428078D01*
X633511Y467646D01*
X633651Y469489D01*
X636152Y475646D01*
X683197D01*
X695646Y463197D01*
D02*
G37*
G36*
X840759Y368259D02*
X843852Y366193D01*
X845335Y365897D01*
X846873Y363604D01*
X844087Y357362D01*
X841798Y355604D01*
X826489D01*
X825702Y363604D01*
X826148Y363693D01*
X829241Y365759D01*
X831308Y368852D01*
X831346Y369044D01*
X833646Y369766D01*
X839670Y369888D01*
X840759Y368259D01*
D02*
G37*
G36*
X903146Y393197D02*
Y380000D01*
X903478Y378334D01*
X904421Y376922D01*
X907859Y373484D01*
X909271Y372540D01*
X911156Y369040D01*
X911489Y364209D01*
X911488Y364200D01*
X911566Y363604D01*
X907442Y357213D01*
X905431Y355604D01*
X877088D01*
X875378Y357304D01*
X871755Y363604D01*
X872033Y365000D01*
X871473Y367816D01*
X883079Y379422D01*
X884022Y380834D01*
X884354Y382500D01*
Y389164D01*
X886741Y390759D01*
X888808Y393852D01*
X889201Y395829D01*
X894014Y398347D01*
X897363Y398980D01*
X903146Y393197D01*
D02*
G37*
G36*
X648415Y410428D02*
X648259Y401741D01*
X646192Y398648D01*
X646147Y398419D01*
X639273Y394192D01*
X637730Y393990D01*
X635000Y394533D01*
X631352Y393807D01*
X628259Y391741D01*
X626193Y388648D01*
X625467Y385000D01*
X626193Y381352D01*
X628259Y378259D01*
X629614Y377354D01*
X627848Y369354D01*
X595000D01*
X593334Y369022D01*
X591922Y368078D01*
X589006Y365163D01*
X583482Y366418D01*
X580990Y374833D01*
X588078Y381922D01*
X589022Y383334D01*
X589354Y385000D01*
Y386664D01*
X591741Y388259D01*
X593807Y391352D01*
X594533Y395000D01*
X593807Y398648D01*
X591741Y401741D01*
X588648Y403807D01*
X585000Y404533D01*
X581352Y403807D01*
X580231Y403059D01*
X578807Y403648D01*
X576741Y406741D01*
X573648Y408807D01*
X570000Y409533D01*
X566352Y408807D01*
X564219Y407382D01*
X561880Y407018D01*
X554775Y408443D01*
X554241Y409241D01*
X554361Y418204D01*
X556803Y420646D01*
X593197D01*
X606027Y407816D01*
X605467Y405000D01*
X606193Y401352D01*
X608259Y398259D01*
X611352Y396193D01*
X615000Y395467D01*
X618648Y396193D01*
X621741Y398259D01*
X623807Y401352D01*
X624533Y405000D01*
X623807Y408648D01*
X621741Y411741D01*
Y418259D01*
X623807Y421352D01*
X624201Y423329D01*
X629014Y425847D01*
X632363Y426480D01*
X648415Y410428D01*
D02*
G37*
G36*
X786192Y403852D02*
X788259Y400759D01*
X790646Y399164D01*
Y387369D01*
X786608Y384832D01*
X781308Y386148D01*
X779241Y389241D01*
X776854Y390836D01*
Y403718D01*
X777934Y404365D01*
X786192Y403852D01*
D02*
G37*
G36*
X768146Y405676D02*
Y390836D01*
X765759Y389241D01*
X763727Y386200D01*
X763692Y386148D01*
X762354Y385527D01*
X754354Y390056D01*
Y403197D01*
X760146Y408989D01*
X768146Y405676D01*
D02*
G37*
G36*
X711157Y479776D02*
X714043Y474392D01*
X713892Y473947D01*
X713692Y473648D01*
X712967Y470000D01*
X713692Y466352D01*
X715759Y463259D01*
X718146Y461664D01*
Y416803D01*
X714421Y413078D01*
X713478Y411666D01*
X713146Y410000D01*
Y392227D01*
X705146Y387951D01*
X704354Y388480D01*
Y465000D01*
X704022Y466666D01*
X703079Y468078D01*
X698520Y472637D01*
X699153Y475986D01*
X701671Y480799D01*
X703648Y481193D01*
X703975Y481411D01*
X711157Y479776D01*
D02*
G37*
G36*
X81750Y466250D02*
Y459270D01*
X90000D01*
Y458000D01*
D01*
Y459270D01*
X98250D01*
Y464279D01*
X105300Y468543D01*
X161922Y411922D01*
X163334Y410978D01*
X165000Y410646D01*
X177412D01*
X178140Y409840D01*
X180959Y402720D01*
X179916Y400202D01*
X179728Y398770D01*
X200272D01*
X200084Y400202D01*
X199041Y402720D01*
X201860Y409840D01*
X202588Y410646D01*
X242848D01*
X244614Y402646D01*
X243259Y401741D01*
X241192Y398648D01*
X240467Y395000D01*
X241192Y391352D01*
X243259Y388259D01*
X246352Y386193D01*
X250000Y385467D01*
X253648Y386193D01*
X256741Y388259D01*
X258336Y390646D01*
X306664D01*
X308259Y388259D01*
X311352Y386193D01*
X315000Y385467D01*
X318648Y386193D01*
X321741Y388259D01*
X323807Y391352D01*
X324533Y395000D01*
X323807Y398648D01*
X321741Y401741D01*
X320386Y402646D01*
X322152Y410646D01*
X410000D01*
X411666Y410978D01*
X413078Y411922D01*
X446803Y445646D01*
X486664D01*
X488259Y443259D01*
X489307Y442559D01*
X490452Y434576D01*
X485318Y429354D01*
X475000D01*
X473334Y429022D01*
X471922Y428078D01*
X412816Y368973D01*
X410000Y369533D01*
X406352Y368807D01*
X403259Y366741D01*
X401193Y363648D01*
X400467Y360000D01*
X401193Y356352D01*
X403259Y353259D01*
X404775Y352246D01*
X406640Y345784D01*
X406791Y342948D01*
X323197Y259354D01*
X293753D01*
X289728Y265049D01*
X289007Y267354D01*
X289533Y270000D01*
X288808Y273648D01*
X286741Y276741D01*
X283648Y278808D01*
X280000Y279533D01*
X276352Y278808D01*
X273259Y276741D01*
X271664Y274354D01*
X246803D01*
X208973Y312184D01*
X209533Y315000D01*
X208808Y318648D01*
X206741Y321741D01*
X203648Y323807D01*
X200000Y324533D01*
X196352Y323807D01*
X193259Y321741D01*
X191192Y318648D01*
X190467Y315000D01*
X191192Y311352D01*
X193259Y308259D01*
X196352Y306192D01*
X200000Y305467D01*
X202816Y306027D01*
X241489Y267354D01*
X241349Y265511D01*
X238848Y259354D01*
X225000D01*
X223334Y259022D01*
X221922Y258078D01*
X142859Y179016D01*
X141580Y178800D01*
X134992Y180040D01*
X133480Y180951D01*
X132382Y182382D01*
X130220Y184041D01*
X127702Y185084D01*
X126270Y185272D01*
Y175000D01*
X125000D01*
Y173730D01*
X114728D01*
X114916Y172298D01*
X115959Y169780D01*
X117618Y167618D01*
X118384Y167031D01*
X119675Y158701D01*
X117272Y156055D01*
X116524Y155605D01*
X108807Y158648D01*
X106741Y161741D01*
X103648Y163808D01*
X100000Y164533D01*
X96352Y163808D01*
X93259Y161741D01*
X91664Y159354D01*
X90000D01*
X88334Y159022D01*
X86970Y158111D01*
X86761Y158183D01*
X80098Y162500D01*
X79710Y164451D01*
X79710Y164451D01*
X79710Y164451D01*
X78605Y166105D01*
Y166105D01*
X78605Y166105D01*
X76951Y167210D01*
X76951Y167210D01*
X75000Y167598D01*
X75000Y167598D01*
X74615Y167598D01*
X74615Y167598D01*
X72500Y167598D01*
X72500Y167598D01*
X71603Y167419D01*
X69262Y169365D01*
X66628Y173776D01*
X66683Y174149D01*
X66755Y174244D01*
X68065Y177406D01*
X68512Y180800D01*
X68065Y184194D01*
X66755Y187356D01*
X64672Y190072D01*
X61956Y192155D01*
X59988Y192971D01*
Y203500D01*
X63244Y206756D01*
X64239Y208244D01*
X64588Y210000D01*
Y398575D01*
X72416Y399798D01*
X73459Y397280D01*
X75118Y395118D01*
X77280Y393459D01*
X79798Y392416D01*
X81230Y392228D01*
Y402500D01*
Y412772D01*
X79798Y412584D01*
X77280Y411541D01*
X75118Y409882D01*
X73459Y407720D01*
X72416Y405202D01*
X64588Y406425D01*
Y450750D01*
X67250D01*
Y464750D01*
Y470646D01*
X75571D01*
X81750Y466250D01*
D02*
G37*
G36*
X542234Y428884D02*
X545178Y421335D01*
X501679Y377836D01*
X491920Y378992D01*
X489864Y382565D01*
X490913Y384756D01*
X528822Y422665D01*
X529451Y422790D01*
X531105Y423895D01*
X532210Y425549D01*
X532335Y426178D01*
X535785Y429628D01*
X542234Y428884D01*
D02*
G37*
G36*
X665297Y423546D02*
X664535Y416194D01*
X657318Y413839D01*
X623078Y448078D01*
X621666Y449022D01*
X620000Y449354D01*
X615670D01*
X613205Y452646D01*
X617208Y460646D01*
X628197D01*
X665297Y423546D01*
D02*
G37*
G36*
X802234Y543884D02*
X805178Y536334D01*
X761921Y493078D01*
X760978Y491666D01*
X760646Y490000D01*
Y488167D01*
X752646Y484391D01*
X749354Y487102D01*
Y498197D01*
X795785Y544628D01*
X802234Y543884D01*
D02*
G37*
G36*
X670645Y537122D02*
Y528335D01*
X668258Y526740D01*
X666191Y523647D01*
X665465Y519999D01*
X666191Y516351D01*
X668258Y513258D01*
X671350Y511191D01*
X674999Y510466D01*
X678647Y511191D01*
X681740Y513258D01*
X683806Y516351D01*
X684184Y518252D01*
X686989Y519835D01*
X689999Y521102D01*
X693014Y519833D01*
X695814Y518254D01*
X696192Y516352D01*
X698259Y513259D01*
X700741Y511601D01*
X701734Y509805D01*
X703528Y503303D01*
X700000Y499533D01*
X696352Y498807D01*
X693259Y496741D01*
X691192Y493648D01*
X690620Y490771D01*
X689888Y489521D01*
X683639Y484354D01*
X618336D01*
X616741Y486741D01*
X613648Y488807D01*
X609825Y489842D01*
X607210Y494451D01*
Y494451D01*
X607210D01*
X606105Y496105D01*
X606105Y502907D01*
X606612Y504655D01*
X607210Y505549D01*
X607598Y507500D01*
Y507888D01*
X634612Y534902D01*
X655000D01*
X656951Y535290D01*
X658605Y536395D01*
X662645Y540435D01*
X670645Y537122D01*
D02*
G37*
G36*
X758146Y313768D02*
Y304708D01*
X750146Y300705D01*
X746854Y303170D01*
Y313768D01*
X752500Y317125D01*
X758146Y313768D01*
D02*
G37*
G36*
X604183Y591583D02*
X610806Y589555D01*
Y560160D01*
X611138Y558494D01*
X612081Y557081D01*
X616080Y553083D01*
X615467Y550000D01*
X616193Y546352D01*
X618259Y543259D01*
X619298Y534461D01*
X619099Y533809D01*
X601191Y515901D01*
X600493Y515688D01*
X592835Y516261D01*
X591741Y516741D01*
X589354Y518336D01*
Y578197D01*
X602806Y591649D01*
X604183Y591583D01*
D02*
G37*
G36*
X778146Y313768D02*
Y302208D01*
X770146Y298205D01*
X766854Y300670D01*
Y313768D01*
X772500Y317125D01*
X778146Y313768D01*
D02*
G37*
G36*
X641370Y325087D02*
X643309Y323758D01*
X643887Y320044D01*
X617816Y293973D01*
X615000Y294533D01*
X612354Y294007D01*
X610049Y294728D01*
X604354Y298753D01*
Y313638D01*
X610000Y320467D01*
X613648Y321193D01*
X616741Y323259D01*
X616956Y323581D01*
X620637Y326313D01*
X626352Y326193D01*
X626911Y326081D01*
X630000Y325467D01*
X633648Y326193D01*
X634722Y326910D01*
X641370Y325087D01*
D02*
G37*
G36*
X497483Y422958D02*
X502789Y420550D01*
X502882Y420411D01*
X503644Y419272D01*
X503895Y418895D01*
X504266Y411864D01*
X503867Y410024D01*
X476922Y383078D01*
X475978Y381666D01*
X475646Y380000D01*
Y379399D01*
X474780Y379041D01*
X472618Y377382D01*
X470959Y375220D01*
X469916Y372702D01*
X469728Y371270D01*
X480000D01*
Y368730D01*
X469728D01*
X469916Y367298D01*
X470959Y364780D01*
X472618Y362618D01*
X474049Y361520D01*
X474959Y360008D01*
X476200Y353420D01*
X475984Y352141D01*
X467052Y343209D01*
X464216Y343360D01*
X457754Y345225D01*
X456741Y346741D01*
Y353259D01*
X458807Y356352D01*
X459533Y360000D01*
X458807Y363648D01*
X456741Y366741D01*
X453648Y368807D01*
X450000Y369533D01*
X446352Y368807D01*
X443259Y366741D01*
X436741D01*
X435225Y367754D01*
X433360Y374216D01*
X433209Y377052D01*
X476803Y420646D01*
X490000D01*
X491666Y420978D01*
X493078Y421922D01*
X494402Y423245D01*
X497483Y422958D01*
D02*
G37*
G36*
X549902Y467431D02*
Y457839D01*
X548259Y456741D01*
X546193Y453648D01*
X545467Y450000D01*
X539665Y443521D01*
X534536Y443186D01*
X533098Y444532D01*
X532210Y446951D01*
X532210Y446951D01*
X532210D01*
X531105Y448605D01*
X531087Y448617D01*
X529214Y455186D01*
X529095Y457938D01*
X541902Y470745D01*
X549902Y467431D01*
D02*
G37*
G36*
X717122Y356115D02*
X719740Y352391D01*
X720993Y347006D01*
X720921Y346710D01*
X719211Y344454D01*
X718782Y343949D01*
X714207Y340604D01*
X712944Y340766D01*
X708800Y341644D01*
X705459Y342972D01*
X704354Y343753D01*
Y351664D01*
X706741Y353259D01*
X707754Y354775D01*
X714215Y356640D01*
X716545Y356764D01*
X717122Y356115D01*
D02*
G37*
G36*
X813171Y348172D02*
X814584Y347228D01*
X816250Y346896D01*
X828511D01*
X829298Y338896D01*
X828852Y338807D01*
X825759Y336741D01*
X825226Y335943D01*
X818120Y334518D01*
X815781Y334882D01*
X813648Y336307D01*
X810000Y337033D01*
X806352Y336307D01*
X803259Y334241D01*
X801192Y331148D01*
X800467Y327500D01*
X801192Y323852D01*
X803259Y320759D01*
X805646Y319164D01*
Y275000D01*
X805978Y273334D01*
X806921Y271922D01*
X855515Y223328D01*
X856928Y222384D01*
X858594Y222053D01*
X905854D01*
X907906Y220388D01*
X911974Y214053D01*
X911888Y213400D01*
X912335Y210006D01*
X913644Y206844D01*
X914441Y205805D01*
X915728Y203732D01*
Y197668D01*
X914441Y195595D01*
X913644Y194556D01*
X912335Y191394D01*
X911888Y188000D01*
X912335Y184606D01*
X913644Y181444D01*
X914441Y180406D01*
X915728Y178332D01*
Y172268D01*
X914441Y170195D01*
X913644Y169156D01*
X912335Y165994D01*
X911888Y162600D01*
X912335Y159206D01*
X913644Y156044D01*
X915728Y153328D01*
X918444Y151244D01*
X921606Y149935D01*
X925000Y149488D01*
X928394Y149935D01*
X931556Y151244D01*
X932595Y152041D01*
X934668Y153328D01*
X938819D01*
X945646Y147364D01*
Y91803D01*
X923197Y69354D01*
X806803D01*
X744354Y131803D01*
Y221150D01*
X746652Y222804D01*
X752354Y224694D01*
X753852Y223692D01*
X757500Y222967D01*
X761148Y223692D01*
X764241Y225759D01*
X766308Y228852D01*
X766353Y229081D01*
X773227Y233309D01*
X774770Y233510D01*
X777500Y232967D01*
X781148Y233692D01*
X784241Y235759D01*
X786308Y238852D01*
X787033Y242500D01*
X786799Y243675D01*
X791926Y250067D01*
X792500Y250467D01*
X796148Y251192D01*
X799241Y253259D01*
X801308Y256352D01*
X802033Y260000D01*
X801308Y263648D01*
X799241Y266741D01*
X796148Y268808D01*
X792500Y269533D01*
X786854Y275971D01*
Y319164D01*
X789241Y320759D01*
X791308Y323852D01*
X792033Y327500D01*
X791308Y331148D01*
X789241Y334241D01*
X786148Y336307D01*
X782500Y337033D01*
X778852Y336307D01*
X775759Y334241D01*
X769241D01*
X766148Y336307D01*
X762500Y337033D01*
X758852Y336307D01*
X755759Y334241D01*
X749241D01*
X746148Y336307D01*
X745849Y336367D01*
X744241Y336934D01*
X741300Y344355D01*
X745871Y350646D01*
X810697D01*
X813171Y348172D01*
D02*
G37*
G36*
X760646Y467848D02*
Y439303D01*
X734679Y413336D01*
X731239Y414068D01*
X726854Y416824D01*
Y461664D01*
X729241Y463259D01*
X730610Y465307D01*
X734185Y466687D01*
X739658Y467324D01*
X741352Y466193D01*
X745000Y465467D01*
X748648Y466193D01*
X751741Y468259D01*
X752646Y469614D01*
X760646Y467848D01*
D02*
G37*
G36*
X742797Y61046D02*
X742538Y49991D01*
X740346Y47996D01*
X740300Y48000D01*
X740300Y48000D01*
X731654D01*
Y60876D01*
X736039Y63632D01*
X739480Y64364D01*
X742797Y61046D01*
D02*
G37*
G36*
X307759Y137646D02*
X302740Y134272D01*
X297260D01*
X292241Y137646D01*
X293382Y145646D01*
X306618D01*
X307759Y137646D01*
D02*
G37*
G36*
X405646Y167848D02*
Y146803D01*
X368197Y109354D01*
X353351D01*
X352845Y109898D01*
X349879Y117354D01*
X350329Y117940D01*
X351740Y121345D01*
X352054Y123730D01*
X338100D01*
Y126270D01*
X352054D01*
X351740Y128655D01*
X350329Y132060D01*
X348085Y134985D01*
X345160Y137229D01*
X344153Y137646D01*
X345744Y145646D01*
X365000D01*
X366666Y145978D01*
X368078Y146922D01*
X387184Y166027D01*
X390000Y165467D01*
X393648Y166192D01*
X396741Y168259D01*
X397646Y169614D01*
X405646Y167848D01*
D02*
G37*
G36*
X821516Y852327D02*
X825646Y848197D01*
Y745803D01*
X796843Y717000D01*
X795270D01*
Y708000D01*
X794000D01*
Y706730D01*
X778000D01*
Y699000D01*
X778000D01*
X778150Y698098D01*
X772099Y690098D01*
X751000D01*
Y704500D01*
X740588D01*
Y742750D01*
X759250D01*
Y751093D01*
X803854Y795696D01*
X804797Y797109D01*
X805129Y798775D01*
Y821932D01*
X807331Y822844D01*
X810047Y824928D01*
X812131Y827644D01*
X813440Y830806D01*
X813887Y834200D01*
X813440Y837594D01*
X812131Y840756D01*
X811932Y841015D01*
X810139Y843797D01*
X812322Y851479D01*
X817440Y852429D01*
X821516Y852327D01*
D02*
G37*
G36*
X997500Y2500D02*
X662756D01*
X660628Y6271D01*
X659476Y10480D01*
X659709Y11650D01*
Y71050D01*
X659709Y73097D01*
X664650Y79050D01*
X664650Y91750D01*
Y104450D01*
Y107879D01*
X672650Y111193D01*
X722946Y60897D01*
Y48000D01*
X714300D01*
Y22000D01*
X740300D01*
Y22000D01*
X748300Y22751D01*
X749306Y22335D01*
X752700Y21888D01*
X756094Y22335D01*
X759256Y23644D01*
X761972Y25728D01*
X764055Y28444D01*
X765365Y31606D01*
X765812Y35000D01*
X765365Y38394D01*
X764055Y41556D01*
X761972Y44272D01*
X759256Y46356D01*
X757054Y47268D01*
Y57300D01*
X756722Y58966D01*
X755779Y60378D01*
X675729Y140428D01*
X674316Y141372D01*
X672650Y141704D01*
X664650D01*
Y155250D01*
Y167950D01*
Y182950D01*
X664650D01*
X664520Y183108D01*
X664718Y184100D01*
Y192200D01*
X664450Y193546D01*
X663812Y194500D01*
X664450Y195454D01*
X664718Y196800D01*
Y204900D01*
X664450Y206246D01*
X663812Y207200D01*
X664450Y208154D01*
X664718Y209500D01*
Y217600D01*
X664450Y218946D01*
X663812Y219900D01*
X664450Y220854D01*
X664718Y222200D01*
Y230300D01*
X664450Y231646D01*
X663812Y232600D01*
X664450Y233554D01*
X664718Y234900D01*
Y243000D01*
X664450Y244346D01*
X663812Y245300D01*
X664450Y246254D01*
X664718Y247600D01*
Y255700D01*
X664450Y257046D01*
X663687Y258187D01*
X662546Y258950D01*
X661200Y259218D01*
X642100D01*
X639354Y266828D01*
Y273197D01*
X662646Y296489D01*
X664489Y296349D01*
X670646Y293848D01*
Y280000D01*
X670978Y278334D01*
X671921Y276922D01*
X676027Y272816D01*
X675467Y270000D01*
X676192Y266352D01*
X678259Y263259D01*
X681352Y261192D01*
X685000Y260467D01*
X688648Y261192D01*
X691741Y263259D01*
X693808Y266352D01*
X694533Y270000D01*
X694893Y274219D01*
X698648Y276192D01*
X701741Y278259D01*
X702646Y279614D01*
X710646Y277848D01*
Y258336D01*
X708259Y256741D01*
X706192Y253648D01*
X705467Y250000D01*
X706192Y246352D01*
X708259Y243259D01*
X711352Y241192D01*
X715000Y240467D01*
X717646Y240993D01*
X719951Y240272D01*
X725646Y236247D01*
Y125000D01*
X725978Y123334D01*
X726921Y121922D01*
X816921Y31922D01*
X818334Y30978D01*
X819300Y30786D01*
Y22000D01*
X845300D01*
Y22000D01*
X853300Y22751D01*
X854306Y22335D01*
X857700Y21888D01*
X861094Y22335D01*
X864256Y23644D01*
X866972Y25728D01*
X869055Y28444D01*
X870365Y31606D01*
X870812Y35000D01*
X870365Y38394D01*
X869055Y41556D01*
X866972Y44272D01*
X864256Y46356D01*
X861094Y47665D01*
X857700Y48112D01*
X854306Y47665D01*
X853300Y47249D01*
X845300Y48000D01*
X845300Y48000D01*
X819300D01*
Y48000D01*
X814956Y46201D01*
X808511Y52646D01*
X811824Y60646D01*
X925000D01*
X926666Y60978D01*
X928079Y61922D01*
X953079Y86922D01*
X954022Y88334D01*
X954354Y90000D01*
Y150167D01*
X956956Y151244D01*
X959672Y153328D01*
X961756Y156044D01*
X963065Y159206D01*
X963512Y162600D01*
X963065Y165994D01*
X961756Y169156D01*
X960959Y170195D01*
X959672Y172268D01*
Y178332D01*
X960959Y180406D01*
X961756Y181444D01*
X963065Y184606D01*
X963512Y188000D01*
X963065Y191394D01*
X961756Y194556D01*
X960959Y195595D01*
X959672Y197668D01*
Y203732D01*
X960959Y205805D01*
X961756Y206844D01*
X963065Y210006D01*
X963512Y213400D01*
X963065Y216794D01*
X961756Y219956D01*
X960959Y220995D01*
X959672Y223068D01*
Y229132D01*
X960959Y231206D01*
X961756Y232244D01*
X963065Y235406D01*
X963512Y238800D01*
X963065Y242194D01*
X961756Y245356D01*
X960959Y246395D01*
X959672Y248468D01*
Y254532D01*
X960959Y256605D01*
X961756Y257644D01*
X963065Y260806D01*
X963512Y264200D01*
X963065Y267594D01*
X961756Y270756D01*
X960959Y271795D01*
X959672Y273868D01*
Y279932D01*
X960959Y282006D01*
X961756Y283044D01*
X963065Y286206D01*
X963512Y289600D01*
X963065Y292994D01*
X961756Y296156D01*
X960959Y297195D01*
X959672Y299268D01*
Y305332D01*
X960959Y307405D01*
X961756Y308444D01*
X963065Y311606D01*
X963512Y315000D01*
X963065Y318394D01*
X962153Y320596D01*
X968079Y326521D01*
X969022Y327934D01*
X969354Y329600D01*
Y345000D01*
X969022Y346666D01*
X968079Y348078D01*
X961829Y354328D01*
X961362Y357599D01*
X962665Y360806D01*
X963112Y364200D01*
X962665Y367594D01*
X961356Y370756D01*
X960559Y371795D01*
X959272Y373868D01*
Y379932D01*
X960559Y382006D01*
X961356Y383044D01*
X962665Y386206D01*
X963112Y389600D01*
X962665Y392994D01*
X961356Y396156D01*
X960559Y397195D01*
X959272Y399268D01*
Y405332D01*
X960559Y407406D01*
X961356Y408444D01*
X962665Y411606D01*
X963112Y415000D01*
X962665Y418394D01*
X961356Y421556D01*
X960559Y422595D01*
X959272Y424668D01*
Y430732D01*
X960559Y432805D01*
X961356Y433844D01*
X962665Y437006D01*
X963112Y440400D01*
X962665Y443794D01*
X961356Y446956D01*
X962049Y449197D01*
X964175Y453923D01*
X969152Y456203D01*
X969747Y455985D01*
X969780Y455959D01*
X972298Y454916D01*
X973730Y454728D01*
Y465000D01*
X975000D01*
Y466270D01*
X985272D01*
X985084Y467702D01*
X984041Y470220D01*
X982382Y472382D01*
X980220Y474041D01*
X977702Y475084D01*
X975681Y478108D01*
X974401Y481581D01*
X974239Y483244D01*
X974588Y485000D01*
Y667500D01*
X974239Y669256D01*
X973244Y670744D01*
X955744Y688244D01*
X954256Y689239D01*
X952500Y689588D01*
X946438D01*
X944803Y697588D01*
X945768Y698232D01*
X947536Y700879D01*
X948157Y704000D01*
X947536Y707121D01*
X945768Y709768D01*
X943121Y711536D01*
X940000Y712157D01*
X936879Y711536D01*
X934232Y709768D01*
X932464Y707121D01*
X931843Y704000D01*
X932464Y700879D01*
X934232Y698232D01*
X935197Y697588D01*
X933562Y689588D01*
X815587D01*
X815581Y689591D01*
X813751Y692108D01*
X815812Y702552D01*
X816384Y702902D01*
X853000D01*
X854951Y703290D01*
X856605Y704395D01*
X867176Y714967D01*
X867298Y714916D01*
X868730Y714728D01*
Y723730D01*
X859728D01*
X859916Y722298D01*
X859967Y722176D01*
X850888Y713098D01*
X816569D01*
X813255Y721098D01*
X833079Y740921D01*
X834022Y742334D01*
X834354Y744000D01*
Y850000D01*
X834022Y851666D01*
X833079Y853079D01*
X823478Y862679D01*
X822066Y863622D01*
X820400Y863954D01*
X814125D01*
X813004Y866660D01*
X812399Y867449D01*
X810139Y875403D01*
X811932Y878185D01*
X812131Y878444D01*
X813440Y881606D01*
X813887Y885000D01*
X813440Y888394D01*
X812131Y891556D01*
X810047Y894272D01*
X807331Y896356D01*
X804169Y897665D01*
X800775Y898112D01*
X797381Y897665D01*
X794219Y896356D01*
X791503Y894272D01*
X789419Y891556D01*
X788110Y888394D01*
X787663Y885000D01*
X788110Y881606D01*
X789419Y878444D01*
X789618Y878185D01*
X791411Y875403D01*
X789151Y867449D01*
X788546Y866660D01*
X787590Y864354D01*
X724399D01*
X724041Y865220D01*
X722382Y867382D01*
X720220Y869041D01*
X717702Y870084D01*
X716270Y870272D01*
Y860000D01*
Y849728D01*
X717702Y849916D01*
X720220Y850959D01*
X722382Y852618D01*
X724041Y854780D01*
X724399Y855646D01*
X787259D01*
X788546Y852540D01*
X789151Y851751D01*
X791411Y843797D01*
X789618Y841015D01*
X789419Y840756D01*
X788110Y837594D01*
X787663Y834200D01*
X788110Y830806D01*
X789419Y827644D01*
X791503Y824928D01*
X794219Y822844D01*
X796421Y821932D01*
Y814003D01*
X789002Y809156D01*
X788421Y809226D01*
X786741Y811741D01*
X783648Y813808D01*
X780000Y814533D01*
X776352Y813808D01*
X773259Y811741D01*
X771192Y808648D01*
X770467Y805000D01*
X771027Y802184D01*
X752816Y783973D01*
X750000Y784533D01*
X746352Y783808D01*
X743259Y781741D01*
X741192Y778648D01*
X740467Y775000D01*
X741192Y771352D01*
X743259Y768259D01*
X746352Y766192D01*
X745849Y758136D01*
X745318Y757250D01*
X730750D01*
Y742750D01*
X731412D01*
Y704500D01*
X721000D01*
Y689588D01*
X653501D01*
X604820Y738269D01*
X604568Y739969D01*
X606383Y748020D01*
X606741Y748259D01*
X608807Y751352D01*
X609533Y755000D01*
X608807Y758648D01*
X606741Y761741D01*
X606585Y770428D01*
X612184Y776027D01*
X615000Y775467D01*
X618648Y776192D01*
X621741Y778259D01*
X623807Y781352D01*
X624533Y785000D01*
X623807Y788648D01*
X621741Y791741D01*
X618648Y793808D01*
X615000Y794533D01*
X611352Y793808D01*
X608259Y791741D01*
X606193Y788648D01*
X605467Y785000D01*
X606027Y782184D01*
X596922Y773079D01*
X595978Y771666D01*
X595646Y770000D01*
Y763336D01*
X593259Y761741D01*
X593020Y761383D01*
X584969Y759568D01*
X583269Y759820D01*
X545388Y797701D01*
Y825412D01*
X671821D01*
X673259Y823259D01*
X676352Y821192D01*
X680000Y820467D01*
X683648Y821192D01*
X686741Y823259D01*
X688808Y826352D01*
X689533Y830000D01*
X688808Y833648D01*
X686741Y836741D01*
X683648Y838808D01*
X680000Y839533D01*
X676352Y838808D01*
X673259Y836741D01*
X671821Y834588D01*
X545388D01*
Y912829D01*
X547356Y913644D01*
X550072Y915728D01*
X552155Y918444D01*
X553465Y921606D01*
X553912Y925000D01*
X553465Y928394D01*
X552155Y931556D01*
X550072Y934272D01*
X547356Y936356D01*
X544194Y937665D01*
X540800Y938112D01*
X537406Y937665D01*
X534244Y936356D01*
X533205Y935559D01*
X531132Y934272D01*
X525068D01*
X522995Y935559D01*
X521956Y936356D01*
X518794Y937665D01*
X515400Y938112D01*
X512006Y937665D01*
X508844Y936356D01*
X507805Y935559D01*
X505732Y934272D01*
X499668D01*
X497595Y935559D01*
X496556Y936356D01*
X493394Y937665D01*
X490000Y938112D01*
X486606Y937665D01*
X486600Y937663D01*
X478600Y939000D01*
X478600Y939000D01*
X465870D01*
Y925000D01*
Y911000D01*
X473529D01*
X476843Y903000D01*
X461922Y888079D01*
X460978Y886666D01*
X460646Y885000D01*
Y820000D01*
X460978Y818334D01*
X461922Y816921D01*
X596791Y682052D01*
X596640Y679215D01*
X594775Y672754D01*
X593259Y671741D01*
X593044Y671419D01*
X589363Y668687D01*
X583648Y668808D01*
X580000Y669533D01*
X576352Y668808D01*
X573259Y666741D01*
X571193Y663648D01*
X570467Y660000D01*
X571193Y656352D01*
X571341Y656130D01*
X565127Y651030D01*
X556396Y659761D01*
X556741Y663259D01*
X558807Y666352D01*
X559533Y670000D01*
X558807Y673648D01*
X556741Y676741D01*
X554538Y678213D01*
X554060Y682500D01*
X554538Y686787D01*
X556741Y688259D01*
X558807Y691352D01*
X559533Y695000D01*
X558807Y698648D01*
X556741Y701741D01*
X553648Y703808D01*
X550000Y704533D01*
X546352Y703808D01*
X543259Y701741D01*
X541193Y698648D01*
X540467Y695000D01*
X541027Y692184D01*
X526922Y678079D01*
X525978Y676666D01*
X525646Y675000D01*
Y660000D01*
X525978Y658334D01*
X526922Y656921D01*
X545646Y638197D01*
Y507461D01*
X544130Y505806D01*
X537702Y502584D01*
X536270Y502772D01*
Y492500D01*
X535000D01*
Y491230D01*
X524728D01*
X524916Y489798D01*
X525959Y487280D01*
X527618Y485118D01*
X529780Y483459D01*
X530635Y483105D01*
X532739Y477848D01*
X533087Y474244D01*
X512052Y453209D01*
X509216Y453360D01*
X502754Y455225D01*
X501741Y456741D01*
X498648Y458807D01*
X495000Y459533D01*
X491352Y458807D01*
X488259Y456741D01*
X486664Y454354D01*
X450256D01*
X449731Y462354D01*
X450201Y462416D01*
X452719Y463458D01*
X454881Y465117D01*
X456540Y467279D01*
X457583Y469797D01*
X457771Y471229D01*
X437227D01*
X437416Y469797D01*
X438458Y467279D01*
X440117Y465117D01*
X442280Y463458D01*
X444797Y462416D01*
X445267Y462354D01*
X445000Y454354D01*
X443334Y454022D01*
X441922Y453078D01*
X408197Y419354D01*
X388831D01*
X386404Y427354D01*
X386849Y427651D01*
X388949Y430793D01*
X389686Y434500D01*
X388949Y438207D01*
X386849Y441349D01*
X383707Y443449D01*
X380000Y444186D01*
X376293Y443449D01*
X373151Y441349D01*
X371051Y438207D01*
X370314Y434500D01*
X371051Y430793D01*
X373151Y427651D01*
X373596Y427354D01*
X371169Y419354D01*
X204960D01*
X203306Y420870D01*
X200084Y427298D01*
X200272Y428730D01*
X179728D01*
X179916Y427298D01*
X176694Y420870D01*
X175040Y419354D01*
X166803D01*
X108078Y478078D01*
X106666Y479022D01*
X105000Y479354D01*
X93897D01*
X93078Y480578D01*
X91772Y488228D01*
X93855Y490944D01*
X95165Y494106D01*
X95612Y497500D01*
X95165Y500894D01*
X93855Y504056D01*
X91772Y506772D01*
X89056Y508856D01*
X85894Y510165D01*
X82500Y510612D01*
X79106Y510165D01*
X75944Y508856D01*
X73228Y506772D01*
X71144Y504056D01*
X70127Y501599D01*
X69108Y500501D01*
X62260Y496800D01*
X61529Y496728D01*
X60000Y497032D01*
X59428Y496918D01*
X58906Y496957D01*
X52290Y500533D01*
X50721Y502166D01*
X49729Y504560D01*
X47485Y507485D01*
X44560Y509729D01*
X41155Y511140D01*
X38770Y511454D01*
Y497500D01*
X37500D01*
Y496230D01*
X23546D01*
X23860Y493845D01*
X25271Y490440D01*
X27515Y487515D01*
X30440Y485271D01*
X33845Y483860D01*
X35966Y483581D01*
X36867Y482751D01*
X39150Y479236D01*
X40553Y475712D01*
X40412Y475000D01*
Y462500D01*
X40761Y460744D01*
X41756Y459256D01*
X46256Y454756D01*
X47744Y453761D01*
X49500Y453412D01*
X52750D01*
Y450750D01*
X55412D01*
Y211901D01*
X52156Y208644D01*
X51161Y207156D01*
X50812Y205400D01*
Y192971D01*
X48844Y192155D01*
X47805Y191359D01*
X45732Y190072D01*
X39668D01*
X37594Y191359D01*
X36556Y192155D01*
X33394Y193465D01*
X30000Y193912D01*
X26606Y193465D01*
X23444Y192155D01*
X20728Y190072D01*
X18644Y187356D01*
X17335Y184194D01*
X16888Y180800D01*
X17335Y177406D01*
X18644Y174244D01*
X18717Y174149D01*
X20015Y165385D01*
X17771Y162460D01*
X16360Y159055D01*
X16046Y156670D01*
X30000D01*
Y154130D01*
X16046D01*
X16360Y151745D01*
X17771Y148340D01*
X20015Y145415D01*
X18717Y136651D01*
X18644Y136556D01*
X17335Y133394D01*
X16888Y130000D01*
X17335Y126606D01*
X18644Y123444D01*
X19441Y122405D01*
X20728Y120332D01*
Y114268D01*
X19441Y112194D01*
X18644Y111156D01*
X17335Y107994D01*
X16888Y104600D01*
X17335Y101206D01*
X18644Y98044D01*
X19441Y97005D01*
X20728Y94932D01*
Y88868D01*
X19441Y86795D01*
X18644Y85756D01*
X17335Y82594D01*
X16888Y79200D01*
X17335Y75806D01*
X18644Y72644D01*
X19441Y71605D01*
X20728Y69532D01*
Y63468D01*
X19441Y61395D01*
X18644Y60356D01*
X17335Y57194D01*
X16888Y53800D01*
X17335Y50406D01*
X18644Y47244D01*
X19441Y46205D01*
X20728Y44132D01*
Y38068D01*
X19441Y35995D01*
X18644Y34956D01*
X17335Y31794D01*
X16888Y28400D01*
X17335Y25006D01*
X18644Y21844D01*
X20728Y19128D01*
X23444Y17045D01*
X26606Y15735D01*
X27948Y15558D01*
X32372Y9530D01*
X29256Y2500D01*
X2500D01*
Y616268D01*
X8332Y618865D01*
X10500Y619243D01*
X12940Y617371D01*
X16345Y615960D01*
X18730Y615646D01*
Y629600D01*
X20000D01*
Y630870D01*
X33954D01*
X33640Y633255D01*
X33282Y634117D01*
X33000Y642000D01*
X33000Y642000D01*
Y649914D01*
X41000Y650343D01*
X50646Y640697D01*
Y625000D01*
X50978Y623334D01*
X51922Y621922D01*
X61922Y611922D01*
X63334Y610978D01*
X65000Y610646D01*
X100000D01*
X101666Y610978D01*
X103078Y611922D01*
X108078Y616922D01*
X108535Y617605D01*
X111717Y619020D01*
X115491Y619981D01*
X117343Y619975D01*
X118269Y619356D01*
X121000Y618813D01*
X127730D01*
Y625950D01*
X129000D01*
Y627220D01*
X143938D01*
X146803Y632595D01*
X148896Y635146D01*
X159328D01*
X166750Y633750D01*
Y626770D01*
X175000D01*
Y625500D01*
X176270D01*
Y617250D01*
X183250D01*
X188071Y611370D01*
X185421Y604354D01*
X145000D01*
X143334Y604022D01*
X141922Y603078D01*
X139422Y600578D01*
X138478Y599166D01*
X138146Y597500D01*
Y577500D01*
X138478Y575834D01*
X139422Y574422D01*
X143921Y569921D01*
X145334Y568978D01*
X147000Y568646D01*
X152750D01*
Y565750D01*
X158146D01*
Y516750D01*
X155250D01*
Y503750D01*
X154250D01*
Y496770D01*
X162500D01*
X170750D01*
Y503750D01*
X169750D01*
Y516750D01*
X166854D01*
Y565750D01*
X167250D01*
Y579750D01*
Y582646D01*
X176197D01*
X204492Y554351D01*
X204495Y551792D01*
X203338Y547775D01*
X202038Y545491D01*
X201422Y545079D01*
X196922Y540578D01*
X195978Y539166D01*
X195646Y537500D01*
Y510000D01*
X195978Y508334D01*
X196922Y506922D01*
X209422Y494422D01*
X210834Y493478D01*
X212500Y493146D01*
X288250D01*
Y490250D01*
X316750D01*
Y490646D01*
X340676D01*
X343989Y482646D01*
X321132Y459789D01*
X319323Y460163D01*
X312584Y464798D01*
X312772Y466230D01*
X292228D01*
X292416Y464798D01*
X293459Y462280D01*
X290640Y455160D01*
X289912Y454354D01*
X243336D01*
X241741Y456741D01*
X238648Y458807D01*
X235000Y459533D01*
X231352Y458807D01*
X228259Y456741D01*
X226192Y453648D01*
X225467Y450000D01*
X226192Y446352D01*
X228259Y443259D01*
X228683Y442975D01*
X229817Y441842D01*
X231230Y440898D01*
X232896Y440566D01*
X234500D01*
X235000Y440467D01*
X235500Y440566D01*
X237104D01*
X238770Y440898D01*
X240183Y441842D01*
X241317Y442975D01*
X241741Y443259D01*
X242025Y443683D01*
X243988Y445646D01*
X317500D01*
X319166Y445978D01*
X320578Y446922D01*
X354303Y480646D01*
X371169D01*
X373596Y472646D01*
X373151Y472349D01*
X371051Y469207D01*
X370314Y465500D01*
X371051Y461793D01*
X373151Y458651D01*
X376293Y456551D01*
X380000Y455814D01*
X383707Y456551D01*
X386849Y458651D01*
X388949Y461793D01*
X389686Y465500D01*
X388949Y469207D01*
X386849Y472349D01*
X386404Y472646D01*
X388831Y480646D01*
X431012D01*
X433201Y478785D01*
X436370Y473769D01*
X458628D01*
X461797Y478785D01*
X463986Y480646D01*
X486664D01*
X488259Y478259D01*
X491352Y476193D01*
X495000Y475467D01*
X498648Y476193D01*
X501741Y478259D01*
X503807Y481352D01*
X504533Y485000D01*
X503807Y488648D01*
X501977Y492120D01*
X504241Y495759D01*
X506307Y498852D01*
X507033Y502500D01*
X506307Y506148D01*
X504241Y509241D01*
X501148Y511307D01*
X497500Y512033D01*
X493852Y511307D01*
X490759Y509241D01*
X489164Y506854D01*
X467500D01*
X465834Y506522D01*
X464422Y505578D01*
X458197Y499354D01*
X444808D01*
X444039Y501426D01*
X443477Y507354D01*
X443578Y507421D01*
X463078Y526922D01*
X464022Y528334D01*
X464354Y530000D01*
Y533650D01*
X466652Y535304D01*
X472354Y537193D01*
X473852Y536193D01*
X477500Y535467D01*
X481148Y536193D01*
X484241Y538259D01*
X486307Y541352D01*
X487033Y545000D01*
X486307Y548648D01*
X484241Y551741D01*
X481662Y553464D01*
X481522Y554166D01*
X480578Y555578D01*
X460079Y576078D01*
X458666Y577022D01*
X457000Y577354D01*
X427250D01*
Y594250D01*
X419907D01*
X407250Y606907D01*
Y617646D01*
X435250D01*
Y613250D01*
X443593D01*
X445421Y611422D01*
X446834Y610478D01*
X448500Y610146D01*
X470250D01*
Y607250D01*
Y593250D01*
X470250D01*
X475467Y587500D01*
X476193Y583852D01*
X478259Y580759D01*
X481352Y578693D01*
X485000Y577967D01*
X488648Y578693D01*
X488821Y578599D01*
X495708Y573788D01*
X496193Y571352D01*
X498259Y568259D01*
X501352Y566193D01*
X505000Y565467D01*
X508648Y566193D01*
X511741Y568259D01*
X513807Y571352D01*
X514533Y575000D01*
X513807Y578648D01*
X511741Y581741D01*
X509354Y583336D01*
Y627750D01*
X511750D01*
Y642250D01*
X483250D01*
Y639354D01*
X449750D01*
Y641750D01*
X441407D01*
X427957Y655200D01*
X423250Y661250D01*
Y668230D01*
X415000D01*
X406750D01*
Y661250D01*
X407750D01*
Y648250D01*
X422250D01*
X422250Y648250D01*
Y648250D01*
X428007Y642836D01*
X435250Y635593D01*
Y626354D01*
X407250D01*
Y629250D01*
X392750D01*
Y614750D01*
Y606907D01*
X382093Y596250D01*
X372750D01*
Y581750D01*
Y574354D01*
X362250D01*
Y579750D01*
Y594250D01*
X347750D01*
Y591854D01*
X328750D01*
Y594750D01*
X300250D01*
Y590407D01*
X262421Y552579D01*
X261478Y551166D01*
X261146Y549500D01*
Y537250D01*
X258250D01*
Y534354D01*
X252500D01*
X250834Y534022D01*
X249422Y533078D01*
X248697Y532354D01*
X222250D01*
Y549250D01*
X219354D01*
Y550000D01*
X219022Y551666D01*
X218078Y553078D01*
X183511Y587646D01*
X186824Y595646D01*
X187500D01*
X189166Y595978D01*
X190578Y596922D01*
X195578Y601922D01*
X196522Y603334D01*
X196854Y605000D01*
Y635000D01*
X196522Y636666D01*
X195578Y638078D01*
X191078Y642579D01*
X189666Y643522D01*
X188000Y643854D01*
X182250D01*
Y646750D01*
X167750D01*
X167750Y646750D01*
X160431Y648393D01*
X160237Y648728D01*
X159225Y651854D01*
X159354Y652500D01*
Y662500D01*
X159022Y664166D01*
X158078Y665579D01*
X156529Y667129D01*
X155116Y668072D01*
X153450Y668404D01*
X141284D01*
X139341Y669702D01*
X137000Y670167D01*
X121000D01*
X118659Y669702D01*
X116674Y668376D01*
X115348Y666391D01*
X114882Y664050D01*
X114951Y663704D01*
X111568Y657662D01*
X109739Y655704D01*
X106350D01*
X104684Y655372D01*
X103272Y654428D01*
X96558Y658254D01*
X94936Y659904D01*
X94723Y662068D01*
X95118Y664050D01*
X94652Y666391D01*
X93326Y668376D01*
X91341Y669702D01*
X89253Y670117D01*
X88755Y671231D01*
X87156Y678168D01*
X94941Y685952D01*
X96148Y686192D01*
X99241Y688259D01*
X101307Y691352D01*
X101548Y692559D01*
X121900Y712912D01*
X165000D01*
X166756Y713261D01*
X168244Y714256D01*
X245544Y791556D01*
X246539Y793044D01*
X246888Y794800D01*
Y848846D01*
X254700Y849300D01*
X254700Y849300D01*
X280700D01*
Y875300D01*
X280700D01*
X279949Y883300D01*
X280365Y884306D01*
X280812Y887700D01*
X280365Y891094D01*
X279056Y894256D01*
X276972Y896972D01*
X274256Y899055D01*
X271094Y900365D01*
X267700Y900812D01*
X264306Y900365D01*
X261144Y899055D01*
X260885Y898857D01*
X258103Y897064D01*
X250149Y899324D01*
X249360Y899929D01*
X245955Y901340D01*
X243570Y901654D01*
Y887700D01*
X242300D01*
Y886430D01*
X228346D01*
X228660Y884045D01*
X230071Y880640D01*
X230676Y879851D01*
X232936Y871897D01*
X231143Y869115D01*
X230944Y868856D01*
X229635Y865694D01*
X229188Y862300D01*
X229635Y858906D01*
X230944Y855744D01*
X233028Y853028D01*
X235744Y850945D01*
X237712Y850129D01*
Y796701D01*
X163099Y722088D01*
X120000D01*
X118244Y721739D01*
X116756Y720744D01*
X98349Y702337D01*
X96148Y703808D01*
X92500Y704533D01*
X88852Y703808D01*
X85759Y701741D01*
X83693Y698648D01*
X82967Y695000D01*
X83693Y691352D01*
X85163Y689151D01*
X77756Y681744D01*
X76761Y680256D01*
X76412Y678500D01*
Y670167D01*
X73000D01*
X70659Y669702D01*
X68674Y668376D01*
X67348Y666391D01*
X66882Y664050D01*
X67348Y661709D01*
X67498Y657700D01*
X67348Y653691D01*
X66882Y651350D01*
X67348Y649009D01*
X65919Y647377D01*
X64422Y647034D01*
X55750Y647907D01*
X45578Y658079D01*
X44166Y659022D01*
X42500Y659354D01*
X33000D01*
Y668000D01*
X10500D01*
X7000Y668000D01*
X2500Y674136D01*
Y962500D01*
X997500D01*
Y2500D01*
D02*
G37*
G36*
X536212Y909833D02*
Y830000D01*
Y801259D01*
X528212Y797945D01*
X519754Y806403D01*
Y912732D01*
X521956Y913644D01*
X522995Y914441D01*
X525068Y915728D01*
X529413D01*
X536212Y909833D01*
D02*
G37*
G36*
X511046Y909930D02*
Y889653D01*
X509063Y887743D01*
X503046Y884941D01*
X502702Y885084D01*
X501270Y885272D01*
Y875000D01*
X500000D01*
Y873730D01*
X489728D01*
X489916Y872298D01*
X490959Y869780D01*
X492618Y867618D01*
X494780Y865959D01*
X495646Y865601D01*
Y806824D01*
X487646Y803511D01*
X469354Y821803D01*
Y883197D01*
X493078Y906921D01*
X494022Y908334D01*
X494354Y910000D01*
Y912732D01*
X496556Y913644D01*
X497595Y914441D01*
X499668Y915728D01*
X504287D01*
X511046Y909930D01*
D02*
G37*
G36*
X775864Y791335D02*
X778664Y782821D01*
X772179Y776336D01*
X763665Y779136D01*
X763222Y782065D01*
X772935Y791778D01*
X775864Y791335D01*
D02*
G37*
G36*
X248900Y138000D02*
X248900Y137646D01*
Y117354D01*
X248900Y112000D01*
X241996Y109354D01*
X180000D01*
X178334Y109022D01*
X176922Y108078D01*
X118197Y49354D01*
X115000D01*
X113334Y49022D01*
X111922Y48078D01*
X78197Y14354D01*
X75967D01*
X68400Y15400D01*
Y41400D01*
X68400D01*
X67649Y49400D01*
X68065Y50406D01*
X68512Y53800D01*
X68065Y57194D01*
X66755Y60356D01*
X65959Y61395D01*
X64672Y63468D01*
Y68087D01*
X70470Y74846D01*
X104200D01*
X105866Y75178D01*
X107278Y76122D01*
X176803Y145646D01*
X193376D01*
X195463Y137646D01*
X195118Y137382D01*
X193459Y135220D01*
X192416Y132702D01*
X192228Y131270D01*
X212772D01*
X212584Y132702D01*
X211541Y135220D01*
X209882Y137382D01*
X209537Y137646D01*
X211624Y145646D01*
X248046D01*
X248900Y138000D01*
D02*
G37*
G36*
X93259Y148259D02*
X96352Y146193D01*
X98329Y145799D01*
X100847Y140986D01*
X101480Y137637D01*
X85497Y121654D01*
X74673D01*
X72829Y123035D01*
X68467Y129654D01*
X68512Y130000D01*
X68467Y130346D01*
X72829Y136965D01*
X74673Y138346D01*
X77700D01*
X79366Y138678D01*
X80779Y139621D01*
X89761Y148604D01*
X93259Y148259D01*
D02*
G37*
G36*
X863174Y672966D02*
X859063Y667098D01*
X815798D01*
X815198Y667354D01*
X812830Y677064D01*
X815587Y680412D01*
X860309D01*
X863174Y672966D01*
D02*
G37*
G36*
X753146Y273159D02*
Y248472D01*
X752354Y247706D01*
X744641Y250978D01*
X744354Y251407D01*
Y269412D01*
X752354Y273688D01*
X753146Y273159D01*
D02*
G37*
G36*
X874298Y338896D02*
X873852Y338807D01*
X870759Y336741D01*
X868692Y333648D01*
X867967Y330000D01*
X868692Y326352D01*
X870759Y323259D01*
X873146Y321664D01*
Y271665D01*
X871352Y271308D01*
X868259Y269241D01*
X866192Y266148D01*
X865467Y262500D01*
X866192Y258852D01*
X868259Y255759D01*
X871352Y253692D01*
X875000Y252967D01*
X878648Y253692D01*
X881741Y255759D01*
X882968Y257595D01*
X887902Y258050D01*
X891106Y257423D01*
X895120Y251548D01*
X891819Y244354D01*
X866803D01*
X836854Y274303D01*
Y321664D01*
X839241Y323259D01*
X841308Y326352D01*
X842033Y330000D01*
X841308Y333648D01*
X839241Y336741D01*
X836148Y338807D01*
X835702Y338896D01*
X836489Y346896D01*
X873511D01*
X874298Y338896D01*
D02*
G37*
G36*
X965412Y665600D02*
Y587379D01*
X957412Y583158D01*
X954354Y585249D01*
Y612500D01*
X954022Y614166D01*
X953079Y615578D01*
X948079Y620578D01*
X946666Y621522D01*
X945000Y621854D01*
X897588D01*
X896860Y622660D01*
X894041Y629780D01*
X895084Y632298D01*
X895272Y633730D01*
X885000D01*
Y635000D01*
X883730D01*
Y645272D01*
X882298Y645084D01*
X879780Y644041D01*
X877618Y642382D01*
X875959Y640220D01*
X875909Y640098D01*
X875000D01*
X873049Y639710D01*
X871395Y638605D01*
X865250Y632460D01*
X857250Y635773D01*
Y639250D01*
X855098D01*
Y656902D01*
X865290D01*
X866352Y656192D01*
X870000Y655467D01*
X873648Y656192D01*
X876741Y658259D01*
X878808Y661352D01*
X879533Y665000D01*
X878808Y668648D01*
X876741Y671741D01*
X875737Y672412D01*
X878164Y680412D01*
X950600D01*
X965412Y665600D01*
D02*
G37*
G36*
X772202Y679902D02*
X779000Y677000D01*
Y670000D01*
X779000D01*
Y657023D01*
X771205Y653504D01*
X766105Y658605D01*
X764451Y659710D01*
X762500Y660098D01*
X756762D01*
X751000Y665500D01*
Y679902D01*
X772202D01*
D02*
G37*
G36*
X809000Y654000D02*
X814902Y648935D01*
Y639250D01*
X812750D01*
Y635773D01*
X804750Y632460D01*
X791210Y646000D01*
X791220Y646537D01*
X793200Y654000D01*
X809000D01*
D02*
G37*
G36*
X475741Y629750D02*
X470702Y621750D01*
X470250D01*
Y618854D01*
X450303D01*
X449750Y619407D01*
Y630646D01*
X475312D01*
X475741Y629750D01*
D02*
G37*
G36*
X401261Y280932D02*
X405646Y278176D01*
Y182152D01*
X397646Y180386D01*
X396741Y181741D01*
X393648Y183808D01*
X390000Y184533D01*
X386352Y183808D01*
X383259Y181741D01*
X381787Y179538D01*
X377500Y179060D01*
X373213Y179538D01*
X371741Y181741D01*
X368648Y183808D01*
X365000Y184533D01*
X361352Y183808D01*
X358259Y181741D01*
X351741D01*
X348648Y183808D01*
X345000Y184533D01*
X341352Y183808D01*
X338259Y181741D01*
X336664Y179354D01*
X166824D01*
X164068Y183739D01*
X163337Y187180D01*
X226803Y250646D01*
X281247D01*
X285272Y244951D01*
X285993Y242646D01*
X285467Y240000D01*
X286192Y236352D01*
X288259Y233259D01*
X291352Y231192D01*
X295000Y230467D01*
X298648Y231192D01*
X301741Y233259D01*
X303336Y235646D01*
X350000D01*
X351666Y235978D01*
X353078Y236922D01*
X397821Y281664D01*
X401261Y280932D01*
D02*
G37*
G36*
X844902Y639250D02*
X842750D01*
Y626250D01*
X841750D01*
Y623098D01*
X828250D01*
Y626250D01*
X827250D01*
Y639250D01*
X825098D01*
Y656902D01*
X844902D01*
Y639250D01*
D02*
G37*
G36*
X400784Y321640D02*
X407246Y319775D01*
X408259Y318259D01*
X409775Y317246D01*
X411640Y310784D01*
X411791Y307948D01*
X348197Y244354D01*
X331152D01*
X328651Y250511D01*
X328511Y252354D01*
X397948Y321791D01*
X400784Y321640D01*
D02*
G37*
%LPC*%
G36*
X198970Y58954D02*
Y46270D01*
X211654D01*
X211340Y48655D01*
X209929Y52060D01*
X207685Y54985D01*
X204760Y57229D01*
X201355Y58640D01*
X198970Y58954D01*
D02*
G37*
G36*
X311230Y85272D02*
X309798Y85084D01*
X307280Y84041D01*
X305118Y82382D01*
X303459Y80220D01*
X302416Y77702D01*
X302228Y76270D01*
X311230D01*
Y85272D01*
D02*
G37*
G36*
X322772Y73730D02*
X313770D01*
Y64728D01*
X315202Y64916D01*
X317720Y65959D01*
X319882Y67618D01*
X321541Y69780D01*
X322584Y72298D01*
X322772Y73730D01*
D02*
G37*
G36*
X311230D02*
X302228D01*
X302416Y72298D01*
X303459Y69780D01*
X305118Y67618D01*
X307280Y65959D01*
X309798Y64916D01*
X311230Y64728D01*
Y73730D01*
D02*
G37*
G36*
X171030Y59000D02*
X158300D01*
Y46270D01*
X171030D01*
Y59000D01*
D02*
G37*
G36*
Y43730D02*
X158300D01*
Y31000D01*
X171030D01*
Y43730D01*
D02*
G37*
G36*
X186300Y59000D02*
Y59000D01*
X173570D01*
Y45000D01*
Y31000D01*
X186300D01*
X186300Y31000D01*
X193819Y31350D01*
X194300Y31327D01*
X196430Y31046D01*
Y45000D01*
Y58954D01*
X194300Y58673D01*
X193819Y58650D01*
X186300Y59000D01*
D02*
G37*
G36*
X211654Y43730D02*
X198970D01*
Y31046D01*
X201355Y31360D01*
X204760Y32771D01*
X207685Y35015D01*
X209929Y37940D01*
X211340Y41345D01*
X211654Y43730D01*
D02*
G37*
G36*
X313770Y85272D02*
Y76270D01*
X322772D01*
X322584Y77702D01*
X321541Y80220D01*
X319882Y82382D01*
X317720Y84041D01*
X315202Y85084D01*
X313770Y85272D01*
D02*
G37*
G36*
X586650Y194709D02*
X526650D01*
X525480Y194476D01*
X524487Y193813D01*
X523824Y192820D01*
X523591Y191650D01*
Y164619D01*
X521546Y162676D01*
X515591Y159922D01*
X515202Y160084D01*
X513770Y160272D01*
Y150000D01*
Y139728D01*
X515202Y139916D01*
X515591Y140078D01*
X521546Y137324D01*
X523591Y135381D01*
Y131650D01*
X523824Y130479D01*
X524487Y129487D01*
X525480Y128824D01*
X526650Y128591D01*
X586650D01*
X587821Y128824D01*
X588813Y129487D01*
X589476Y130479D01*
X589709Y131650D01*
Y191650D01*
X589476Y192820D01*
X588813Y193813D01*
X587821Y194476D01*
X586650Y194709D01*
D02*
G37*
G36*
X400400Y83112D02*
X397006Y82665D01*
X393844Y81355D01*
X392805Y80559D01*
X390732Y79272D01*
X384668D01*
X382595Y80559D01*
X381556Y81355D01*
X378394Y82665D01*
X375000Y83112D01*
X371606Y82665D01*
X370600Y82249D01*
X362600Y83000D01*
X362600Y83000D01*
X336600D01*
Y57000D01*
X362600D01*
Y57000D01*
X370600Y57751D01*
X371606Y57335D01*
X375000Y56888D01*
X378394Y57335D01*
X381556Y58644D01*
X382595Y59441D01*
X384668Y60728D01*
X390732D01*
X392805Y59441D01*
X393844Y58644D01*
X397006Y57335D01*
X400400Y56888D01*
X403794Y57335D01*
X406956Y58644D01*
X409672Y60728D01*
X411755Y63444D01*
X413065Y66606D01*
X413512Y70000D01*
X413065Y73394D01*
X411755Y76556D01*
X409672Y79272D01*
X406956Y81355D01*
X403794Y82665D01*
X400400Y83112D01*
D02*
G37*
G36*
X320272Y363730D02*
X311270D01*
Y354728D01*
X312702Y354916D01*
X315220Y355959D01*
X317382Y357618D01*
X319041Y359780D01*
X320084Y362298D01*
X320272Y363730D01*
D02*
G37*
G36*
X308730D02*
X299728D01*
X299916Y362298D01*
X300959Y359780D01*
X302618Y357618D01*
X304780Y355959D01*
X307298Y354916D01*
X308730Y354728D01*
Y363730D01*
D02*
G37*
G36*
X311270Y375272D02*
Y366270D01*
X320272D01*
X320084Y367702D01*
X319041Y370220D01*
X317382Y372382D01*
X315220Y374041D01*
X312702Y375084D01*
X311270Y375272D01*
D02*
G37*
G36*
X308730D02*
X307298Y375084D01*
X304780Y374041D01*
X302618Y372382D01*
X300959Y370220D01*
X299916Y367702D01*
X299728Y366270D01*
X308730D01*
Y375272D01*
D02*
G37*
G36*
X347772Y298730D02*
X338770D01*
Y289728D01*
X340202Y289916D01*
X342720Y290959D01*
X344882Y292618D01*
X346541Y294780D01*
X347584Y297298D01*
X347772Y298730D01*
D02*
G37*
G36*
X336230D02*
X327228D01*
X327416Y297298D01*
X328459Y294780D01*
X330118Y292618D01*
X332280Y290959D01*
X334798Y289916D01*
X336230Y289728D01*
Y298730D01*
D02*
G37*
G36*
X123730Y185272D02*
X122298Y185084D01*
X119780Y184041D01*
X117618Y182382D01*
X115959Y180220D01*
X114916Y177702D01*
X114728Y176270D01*
X123730D01*
Y185272D01*
D02*
G37*
G36*
X232800Y365104D02*
X229667Y364691D01*
X226748Y363482D01*
X224242Y361558D01*
X222318Y359052D01*
X221109Y356133D01*
X220697Y353000D01*
Y347000D01*
X221109Y343867D01*
X222318Y340948D01*
X224242Y338442D01*
X226748Y336518D01*
X229667Y335309D01*
X232800Y334897D01*
X235933Y335309D01*
X238852Y336518D01*
X241359Y338442D01*
X243282Y340948D01*
X244491Y343867D01*
X244904Y347000D01*
Y353000D01*
X244491Y356133D01*
X243282Y359052D01*
X241359Y361558D01*
X238852Y363482D01*
X235933Y364691D01*
X232800Y365104D01*
D02*
G37*
G36*
X338770Y310272D02*
Y301270D01*
X347772D01*
X347584Y302702D01*
X346541Y305220D01*
X344882Y307382D01*
X342720Y309041D01*
X340202Y310084D01*
X338770Y310272D01*
D02*
G37*
G36*
X336230D02*
X334798Y310084D01*
X332280Y309041D01*
X330118Y307382D01*
X328459Y305220D01*
X327416Y302702D01*
X327228Y301270D01*
X336230D01*
Y310272D01*
D02*
G37*
G36*
X88730Y456730D02*
X81750D01*
Y449750D01*
X88730D01*
Y456730D01*
D02*
G37*
G36*
X98250D02*
X91270D01*
Y449750D01*
X98250D01*
Y456730D01*
D02*
G37*
G36*
X188730Y396230D02*
X179728D01*
X179916Y394798D01*
X180959Y392280D01*
X182618Y390118D01*
X184780Y388459D01*
X187298Y387416D01*
X188730Y387228D01*
Y396230D01*
D02*
G37*
G36*
X200272D02*
X191270D01*
Y387228D01*
X192702Y387416D01*
X195220Y388459D01*
X197382Y390118D01*
X199041Y392280D01*
X200084Y394798D01*
X200272Y396230D01*
D02*
G37*
G36*
X83770Y412772D02*
Y403770D01*
X92772D01*
X92584Y405202D01*
X91541Y407720D01*
X89882Y409882D01*
X87720Y411541D01*
X85202Y412584D01*
X83770Y412772D01*
D02*
G37*
G36*
X92772Y401230D02*
X83770D01*
Y392228D01*
X85202Y392416D01*
X87720Y393459D01*
X89882Y395118D01*
X91541Y397280D01*
X92584Y399798D01*
X92772Y401230D01*
D02*
G37*
G36*
X911230Y88730D02*
X902228D01*
X902416Y87298D01*
X903459Y84780D01*
X905118Y82618D01*
X907280Y80959D01*
X909798Y79916D01*
X911230Y79728D01*
Y88730D01*
D02*
G37*
G36*
X913770Y100272D02*
Y91270D01*
X922772D01*
X922584Y92702D01*
X921541Y95220D01*
X919882Y97382D01*
X917720Y99041D01*
X915202Y100084D01*
X913770Y100272D01*
D02*
G37*
G36*
X922772Y88730D02*
X913770D01*
Y79728D01*
X915202Y79916D01*
X917720Y80959D01*
X919882Y82618D01*
X921541Y84780D01*
X922584Y87298D01*
X922772Y88730D01*
D02*
G37*
G36*
X911230Y100272D02*
X909798Y100084D01*
X907280Y99041D01*
X905118Y97382D01*
X903459Y95220D01*
X902416Y92702D01*
X902228Y91270D01*
X911230D01*
Y100272D01*
D02*
G37*
G36*
X792730Y717000D02*
X778000D01*
Y709270D01*
X792730D01*
Y717000D01*
D02*
G37*
G36*
X32470Y365945D02*
Y351270D01*
X44312D01*
Y353000D01*
X43865Y356394D01*
X42555Y359556D01*
X40472Y362272D01*
X37756Y364356D01*
X34594Y365665D01*
X32470Y365945D01*
D02*
G37*
G36*
X29930D02*
X27806Y365665D01*
X24644Y364356D01*
X21928Y362272D01*
X19844Y359556D01*
X18535Y356394D01*
X18088Y353000D01*
Y351270D01*
X29930D01*
Y365945D01*
D02*
G37*
G36*
X936230Y28730D02*
X927228D01*
X927416Y27298D01*
X928459Y24780D01*
X930118Y22618D01*
X932280Y20959D01*
X934798Y19916D01*
X936230Y19728D01*
Y28730D01*
D02*
G37*
G36*
X947772D02*
X938770D01*
Y19728D01*
X940202Y19916D01*
X942720Y20959D01*
X944882Y22618D01*
X946541Y24780D01*
X947584Y27298D01*
X947772Y28730D01*
D02*
G37*
G36*
X936230Y40272D02*
X934798Y40084D01*
X932280Y39041D01*
X930118Y37382D01*
X928459Y35220D01*
X927416Y32702D01*
X927228Y31270D01*
X936230D01*
Y40272D01*
D02*
G37*
G36*
X938770D02*
Y31270D01*
X947772D01*
X947584Y32702D01*
X946541Y35220D01*
X944882Y37382D01*
X942720Y39041D01*
X940202Y40084D01*
X938770Y40272D01*
D02*
G37*
G36*
X44312Y348730D02*
X32470D01*
Y334055D01*
X34594Y334335D01*
X37756Y335645D01*
X40472Y337728D01*
X42555Y340444D01*
X43865Y343606D01*
X44312Y347000D01*
Y348730D01*
D02*
G37*
G36*
X29930D02*
X18088D01*
Y347000D01*
X18535Y343606D01*
X19844Y340444D01*
X21928Y337728D01*
X24644Y335645D01*
X27806Y334335D01*
X29930Y334055D01*
Y348730D01*
D02*
G37*
G36*
X111000Y818147D02*
X99000D01*
X94562Y817562D01*
X90427Y815849D01*
X86875Y813124D01*
X84151Y809573D01*
X82438Y805438D01*
X81853Y801000D01*
Y779000D01*
X82438Y774562D01*
X84151Y770427D01*
X86875Y766876D01*
X90427Y764150D01*
X94562Y762438D01*
X99000Y761853D01*
X111000D01*
X115438Y762438D01*
X119573Y764150D01*
X123125Y766876D01*
X125849Y770427D01*
X127562Y774562D01*
X128147Y779000D01*
Y801000D01*
X127562Y805438D01*
X125849Y809573D01*
X123125Y813124D01*
X119573Y815849D01*
X115438Y817562D01*
X111000Y818147D01*
D02*
G37*
G36*
X883025Y821647D02*
X871025D01*
X866587Y821062D01*
X862452Y819350D01*
X858901Y816625D01*
X856176Y813073D01*
X854463Y808938D01*
X853878Y804500D01*
Y782500D01*
X854463Y778062D01*
X856176Y773927D01*
X858901Y770376D01*
X862452Y767651D01*
X866587Y765938D01*
X871025Y765353D01*
X883025D01*
X887463Y765938D01*
X891598Y767651D01*
X895150Y770376D01*
X897875Y773927D01*
X899587Y778062D01*
X900172Y782500D01*
Y804500D01*
X899587Y808938D01*
X897875Y813073D01*
X895150Y816625D01*
X891598Y819350D01*
X887463Y821062D01*
X883025Y821647D01*
D02*
G37*
G36*
X868730Y735272D02*
X867298Y735084D01*
X864780Y734041D01*
X862618Y732382D01*
X860959Y730220D01*
X859916Y727702D01*
X859728Y726270D01*
X868730D01*
Y735272D01*
D02*
G37*
G36*
X871270D02*
Y726270D01*
X880272D01*
X880084Y727702D01*
X879041Y730220D01*
X877382Y732382D01*
X875220Y734041D01*
X872702Y735084D01*
X871270Y735272D01*
D02*
G37*
G36*
X42704Y854830D02*
X28750D01*
X14796D01*
X15110Y852445D01*
X16521Y849040D01*
X17126Y848251D01*
X19386Y840297D01*
X17593Y837515D01*
X17394Y837256D01*
X16085Y834094D01*
X15638Y830700D01*
X16085Y827306D01*
X17394Y824144D01*
X19478Y821428D01*
X22194Y819344D01*
X25356Y818035D01*
X28750Y817588D01*
X32144Y818035D01*
X35306Y819344D01*
X38022Y821428D01*
X40106Y824144D01*
X41415Y827306D01*
X41862Y830700D01*
X41415Y834094D01*
X40106Y837256D01*
X39907Y837515D01*
X38114Y840297D01*
X40374Y848251D01*
X40979Y849040D01*
X42390Y852445D01*
X42704Y854830D01*
D02*
G37*
G36*
X948730Y832930D02*
X936046D01*
X936360Y830545D01*
X937771Y827140D01*
X940015Y824215D01*
X942940Y821971D01*
X946345Y820560D01*
X948730Y820246D01*
Y832930D01*
D02*
G37*
G36*
X176705Y829430D02*
X164021D01*
X164335Y827045D01*
X165746Y823640D01*
X167990Y820715D01*
X170915Y818471D01*
X174320Y817060D01*
X176705Y816746D01*
Y829430D01*
D02*
G37*
G36*
X191929D02*
X179245D01*
Y816746D01*
X181630Y817060D01*
X185035Y818471D01*
X187960Y820715D01*
X190204Y823640D01*
X191615Y827045D01*
X191929Y829430D01*
D02*
G37*
G36*
X425000Y737104D02*
X421867Y736691D01*
X418948Y735482D01*
X416441Y733559D01*
X414518Y731052D01*
X413309Y728133D01*
X412896Y725000D01*
X413309Y721867D01*
X414518Y718948D01*
X416441Y716441D01*
X418948Y714518D01*
X421867Y713309D01*
X425000Y712896D01*
X428133Y713309D01*
X431052Y714518D01*
X433559Y716441D01*
X435482Y718948D01*
X436691Y721867D01*
X437104Y725000D01*
X436691Y728133D01*
X435482Y731052D01*
X433559Y733559D01*
X431052Y735482D01*
X428133Y736691D01*
X425000Y737104D01*
D02*
G37*
G36*
X397945Y723730D02*
X385000D01*
X372055D01*
X372335Y721606D01*
X373644Y718444D01*
X375728Y715728D01*
X378444Y713644D01*
X380646Y712732D01*
Y699500D01*
X380978Y697834D01*
X381922Y696422D01*
X406750Y671593D01*
Y670770D01*
X413730D01*
Y677750D01*
X412907D01*
X389354Y701303D01*
Y712732D01*
X391556Y713644D01*
X394272Y715728D01*
X396355Y718444D01*
X397665Y721606D01*
X397945Y723730D01*
D02*
G37*
G36*
X423250Y677750D02*
X416270D01*
Y670770D01*
X423250D01*
Y677750D01*
D02*
G37*
G36*
X383730Y737945D02*
X381606Y737665D01*
X378444Y736355D01*
X375728Y734272D01*
X373644Y731556D01*
X372335Y728394D01*
X372055Y726270D01*
X383730D01*
Y737945D01*
D02*
G37*
G36*
X386270Y737945D02*
Y726270D01*
X397945D01*
X397665Y728394D01*
X396355Y731556D01*
X394272Y734272D01*
X391556Y736355D01*
X388394Y737665D01*
X386270Y737945D01*
D02*
G37*
G36*
X880272Y723730D02*
X871270D01*
Y714728D01*
X872702Y714916D01*
X875220Y715959D01*
X877382Y717618D01*
X879041Y719780D01*
X880084Y722298D01*
X880272Y723730D01*
D02*
G37*
G36*
X705000Y789533D02*
X701352Y788808D01*
X698259Y786741D01*
X696192Y783648D01*
X695467Y780000D01*
X696192Y776352D01*
X698259Y773259D01*
X700646Y771664D01*
Y750971D01*
X695000Y744533D01*
X691352Y743808D01*
X688259Y741741D01*
X686192Y738648D01*
X685467Y735000D01*
X686192Y731352D01*
X688259Y728259D01*
X691352Y726192D01*
X695000Y725467D01*
X698648Y726192D01*
X701741Y728259D01*
X703808Y731352D01*
X704533Y735000D01*
X703973Y737816D01*
X708079Y741921D01*
X709022Y743334D01*
X709354Y745000D01*
Y771664D01*
X711741Y773259D01*
X713808Y776352D01*
X714533Y780000D01*
X713808Y783648D01*
X711741Y786741D01*
X708648Y788808D01*
X705000Y789533D01*
D02*
G37*
G36*
X963954Y832930D02*
X951270D01*
Y820246D01*
X953655Y820560D01*
X957060Y821971D01*
X959985Y824215D01*
X962229Y827140D01*
X963640Y830545D01*
X963954Y832930D01*
D02*
G37*
G36*
X241030Y901654D02*
X238645Y901340D01*
X235240Y899929D01*
X232315Y897685D01*
X230071Y894760D01*
X228660Y891355D01*
X228346Y888970D01*
X241030D01*
Y901654D01*
D02*
G37*
G36*
X111000Y950147D02*
X99000D01*
X94562Y949562D01*
X90427Y947849D01*
X86875Y945125D01*
X84151Y941573D01*
X82438Y937438D01*
X81853Y933000D01*
Y911000D01*
X82438Y906562D01*
X84151Y902427D01*
X86875Y898875D01*
X90427Y896151D01*
X94562Y894438D01*
X99000Y893853D01*
X111000D01*
X115438Y894438D01*
X119573Y896151D01*
X123125Y898875D01*
X125849Y902427D01*
X127562Y906562D01*
X128147Y911000D01*
Y933000D01*
X127562Y937438D01*
X125849Y941573D01*
X123125Y945125D01*
X119573Y947849D01*
X115438Y949562D01*
X111000Y950147D01*
D02*
G37*
G36*
X950000Y898112D02*
X946606Y897665D01*
X943444Y896356D01*
X940728Y894272D01*
X938644Y891556D01*
X937335Y888394D01*
X936888Y885000D01*
X937335Y881606D01*
X938644Y878444D01*
X940728Y875728D01*
X943444Y873644D01*
X946606Y872335D01*
X950000Y871888D01*
X953394Y872335D01*
X956556Y873644D01*
X959272Y875728D01*
X961356Y878444D01*
X962665Y881606D01*
X963112Y885000D01*
X962665Y888394D01*
X961356Y891556D01*
X959272Y894272D01*
X956556Y896356D01*
X953394Y897665D01*
X950000Y898112D01*
D02*
G37*
G36*
X463330Y939000D02*
X450600D01*
Y926270D01*
X463330D01*
Y939000D01*
D02*
G37*
G36*
X355000Y938112D02*
X351606Y937665D01*
X348444Y936356D01*
X347513Y935641D01*
X342300Y934815D01*
X337087Y935641D01*
X336156Y936356D01*
X332994Y937665D01*
X329600Y938112D01*
X326206Y937665D01*
X323044Y936356D01*
X320328Y934272D01*
X318244Y931556D01*
X316935Y928394D01*
X316488Y925000D01*
X316935Y921606D01*
X318244Y918444D01*
X320328Y915728D01*
X323044Y913644D01*
X326206Y912335D01*
X329600Y911888D01*
X332994Y912335D01*
X336156Y913644D01*
X337087Y914359D01*
X342300Y915185D01*
X347513Y914359D01*
X348444Y913644D01*
X351606Y912335D01*
X355000Y911888D01*
X358394Y912335D01*
X359400Y912751D01*
X367400Y912000D01*
X367400Y912000D01*
X393400D01*
Y938000D01*
X367400D01*
Y938000D01*
X359400Y937249D01*
X358394Y937665D01*
X355000Y938112D01*
D02*
G37*
G36*
X883025Y953647D02*
X871025D01*
X866587Y953062D01*
X862452Y951349D01*
X858901Y948624D01*
X856176Y945073D01*
X854463Y940938D01*
X853878Y936500D01*
Y914500D01*
X854463Y910062D01*
X856176Y905927D01*
X858901Y902375D01*
X862452Y899651D01*
X866587Y897938D01*
X871025Y897353D01*
X883025D01*
X887463Y897938D01*
X891598Y899651D01*
X895150Y902375D01*
X897875Y905927D01*
X899587Y910062D01*
X900172Y914500D01*
Y936500D01*
X899587Y940938D01*
X897875Y945073D01*
X895150Y948624D01*
X891598Y951349D01*
X887463Y953062D01*
X883025Y953647D01*
D02*
G37*
G36*
X463330Y923730D02*
X450600D01*
Y911000D01*
X463330D01*
Y923730D01*
D02*
G37*
G36*
X948730Y848154D02*
X946345Y847840D01*
X942940Y846429D01*
X940015Y844185D01*
X937771Y841260D01*
X936360Y837855D01*
X936046Y835470D01*
X948730D01*
Y848154D01*
D02*
G37*
G36*
X951270Y848154D02*
Y835470D01*
X963954D01*
X963640Y837855D01*
X962229Y841260D01*
X959985Y844185D01*
X957060Y846429D01*
X953655Y847840D01*
X951270Y848154D01*
D02*
G37*
G36*
X176705Y844654D02*
X174320Y844340D01*
X170915Y842929D01*
X167990Y840685D01*
X165746Y837760D01*
X164335Y834355D01*
X164021Y831970D01*
X176705D01*
Y844654D01*
D02*
G37*
G36*
X179245Y844654D02*
Y831970D01*
X191929D01*
X191615Y834355D01*
X190204Y837760D01*
X187960Y840685D01*
X185035Y842929D01*
X181630Y844340D01*
X179245Y844654D01*
D02*
G37*
G36*
X713730Y870272D02*
X712298Y870084D01*
X709780Y869041D01*
X707618Y867382D01*
X705959Y865220D01*
X704916Y862702D01*
X704728Y861270D01*
X713730D01*
Y870272D01*
D02*
G37*
G36*
X177975Y894612D02*
X174581Y894165D01*
X171419Y892856D01*
X168703Y890772D01*
X166619Y888056D01*
X165310Y884894D01*
X164863Y881500D01*
X165310Y878106D01*
X166619Y874944D01*
X168703Y872228D01*
X171419Y870145D01*
X174581Y868835D01*
X177975Y868388D01*
X181369Y868835D01*
X184531Y870145D01*
X187247Y872228D01*
X189331Y874944D01*
X190640Y878106D01*
X191087Y881500D01*
X190640Y884894D01*
X189331Y888056D01*
X187247Y890772D01*
X184531Y892856D01*
X181369Y894165D01*
X177975Y894612D01*
D02*
G37*
G36*
X713730Y858730D02*
X704728D01*
X704916Y857298D01*
X705959Y854780D01*
X707618Y852618D01*
X709780Y850959D01*
X712298Y849916D01*
X713730Y849728D01*
Y858730D01*
D02*
G37*
G36*
X28750Y894612D02*
X25356Y894165D01*
X22194Y892856D01*
X19478Y890772D01*
X17394Y888056D01*
X16085Y884894D01*
X15638Y881500D01*
X16085Y878106D01*
X17394Y874944D01*
X17593Y874685D01*
X19386Y871903D01*
X17126Y863949D01*
X16521Y863160D01*
X15110Y859755D01*
X14796Y857370D01*
X28750D01*
X42704D01*
X42390Y859755D01*
X40979Y863160D01*
X40374Y863949D01*
X38114Y871903D01*
X39907Y874685D01*
X40106Y874944D01*
X41415Y878106D01*
X41862Y881500D01*
X41415Y884894D01*
X40106Y888056D01*
X38022Y890772D01*
X35306Y892856D01*
X32144Y894165D01*
X28750Y894612D01*
D02*
G37*
G36*
X188730Y440272D02*
X187298Y440084D01*
X184780Y439041D01*
X182618Y437382D01*
X180959Y435220D01*
X179916Y432702D01*
X179728Y431270D01*
X188730D01*
Y440272D01*
D02*
G37*
G36*
X191270D02*
Y431270D01*
X200272D01*
X200084Y432702D01*
X199041Y435220D01*
X197382Y437382D01*
X195220Y439041D01*
X192702Y440084D01*
X191270Y440272D01*
D02*
G37*
G36*
X985272Y463730D02*
X976270D01*
Y454728D01*
X977702Y454916D01*
X980220Y455959D01*
X982382Y457618D01*
X984041Y459780D01*
X985084Y462298D01*
X985272Y463730D01*
D02*
G37*
G36*
X203730Y475272D02*
X202298Y475084D01*
X199780Y474041D01*
X197618Y472382D01*
X195959Y470220D01*
X194916Y467702D01*
X194728Y466270D01*
X203730D01*
Y475272D01*
D02*
G37*
G36*
Y463730D02*
X194728D01*
X194916Y462298D01*
X195959Y459780D01*
X197618Y457618D01*
X199780Y455959D01*
X202298Y454916D01*
X203730Y454728D01*
Y463730D01*
D02*
G37*
G36*
X215272D02*
X206270D01*
Y454728D01*
X207702Y454916D01*
X210220Y455959D01*
X212382Y457618D01*
X214041Y459780D01*
X215084Y462298D01*
X215272Y463730D01*
D02*
G37*
G36*
X33730Y398730D02*
X24728D01*
X24916Y397298D01*
X25959Y394780D01*
X27618Y392618D01*
X29780Y390959D01*
X32298Y389916D01*
X33730Y389728D01*
Y398730D01*
D02*
G37*
G36*
X45272D02*
X36270D01*
Y389728D01*
X37702Y389916D01*
X40220Y390959D01*
X42382Y392618D01*
X44041Y394780D01*
X45084Y397298D01*
X45272Y398730D01*
D02*
G37*
G36*
X36270Y410272D02*
Y401270D01*
X45272D01*
X45084Y402702D01*
X44041Y405220D01*
X42382Y407382D01*
X40220Y409041D01*
X37702Y410084D01*
X36270Y410272D01*
D02*
G37*
G36*
X33730D02*
X32298Y410084D01*
X29780Y409041D01*
X27618Y407382D01*
X25959Y405220D01*
X24916Y402702D01*
X24728Y401270D01*
X33730D01*
Y410272D01*
D02*
G37*
G36*
X206270Y475272D02*
Y466270D01*
X215272D01*
X215084Y467702D01*
X214041Y470220D01*
X212382Y472382D01*
X210220Y474041D01*
X207702Y475084D01*
X206270Y475272D01*
D02*
G37*
G36*
X38770Y576454D02*
Y563770D01*
X51454D01*
X51140Y566155D01*
X49729Y569560D01*
X47485Y572485D01*
X44560Y574729D01*
X41155Y576140D01*
X38770Y576454D01*
D02*
G37*
G36*
X33954Y628330D02*
X21270D01*
Y615646D01*
X23655Y615960D01*
X27060Y617371D01*
X29985Y619615D01*
X32229Y622540D01*
X33640Y625945D01*
X33954Y628330D01*
D02*
G37*
G36*
X82500Y575612D02*
X79106Y575165D01*
X75944Y573856D01*
X73228Y571772D01*
X71144Y569056D01*
X69835Y565894D01*
X69388Y562500D01*
X69835Y559106D01*
X71144Y555944D01*
X73228Y553228D01*
X75944Y551144D01*
X79106Y549835D01*
X82500Y549388D01*
X85894Y549835D01*
X89056Y551144D01*
X91772Y553228D01*
X93855Y555944D01*
X95165Y559106D01*
X95612Y562500D01*
X95165Y565894D01*
X93855Y569056D01*
X91772Y571772D01*
X89056Y573856D01*
X85894Y575165D01*
X82500Y575612D01*
D02*
G37*
G36*
X36230Y576454D02*
X33845Y576140D01*
X30440Y574729D01*
X27515Y572485D01*
X25271Y569560D01*
X23860Y566155D01*
X23546Y563770D01*
X36230D01*
Y576454D01*
D02*
G37*
G36*
X173730Y624230D02*
X166750D01*
Y617250D01*
X173730D01*
Y624230D01*
D02*
G37*
G36*
X143884Y624680D02*
X130270D01*
Y618813D01*
X137000D01*
X139731Y619356D01*
X142047Y620903D01*
X143594Y623219D01*
X143884Y624680D01*
D02*
G37*
G36*
X161230Y494230D02*
X154250D01*
Y487250D01*
X161230D01*
Y494230D01*
D02*
G37*
G36*
X170750D02*
X163770D01*
Y487250D01*
X170750D01*
Y494230D01*
D02*
G37*
G36*
X301230Y477772D02*
X299798Y477584D01*
X297280Y476541D01*
X295118Y474882D01*
X293459Y472720D01*
X292416Y470202D01*
X292228Y468770D01*
X301230D01*
Y477772D01*
D02*
G37*
G36*
X303770D02*
Y468770D01*
X312772D01*
X312584Y470202D01*
X311541Y472720D01*
X309882Y474882D01*
X307720Y476541D01*
X305202Y477584D01*
X303770Y477772D01*
D02*
G37*
G36*
X36230Y561230D02*
X23546D01*
X23860Y558845D01*
X25271Y555440D01*
X27515Y552515D01*
X30440Y550271D01*
X33845Y548860D01*
X36230Y548546D01*
Y561230D01*
D02*
G37*
G36*
X51454D02*
X38770D01*
Y548546D01*
X41155Y548860D01*
X44560Y550271D01*
X47485Y552515D01*
X49729Y555440D01*
X51140Y558845D01*
X51454Y561230D01*
D02*
G37*
G36*
X533730Y502772D02*
X532298Y502584D01*
X529780Y501541D01*
X527618Y499882D01*
X525959Y497720D01*
X524916Y495202D01*
X524728Y493770D01*
X533730D01*
Y502772D01*
D02*
G37*
G36*
X36230Y511454D02*
X33845Y511140D01*
X30440Y509729D01*
X27515Y507485D01*
X25271Y504560D01*
X23860Y501155D01*
X23546Y498770D01*
X36230D01*
Y511454D01*
D02*
G37*
G36*
X498730Y885272D02*
X497298Y885084D01*
X494780Y884041D01*
X492618Y882382D01*
X490959Y880220D01*
X489916Y877702D01*
X489728Y876270D01*
X498730D01*
Y885272D01*
D02*
G37*
G36*
X201230Y128730D02*
X192228D01*
X192416Y127298D01*
X193459Y124780D01*
X195118Y122618D01*
X197280Y120959D01*
X199798Y119916D01*
X201230Y119728D01*
Y128730D01*
D02*
G37*
G36*
X212772D02*
X203770D01*
Y119728D01*
X205202Y119916D01*
X207720Y120959D01*
X209882Y122618D01*
X211541Y124780D01*
X212584Y127298D01*
X212772Y128730D01*
D02*
G37*
G36*
X886270Y645272D02*
Y636270D01*
X895272D01*
X895084Y637702D01*
X894041Y640220D01*
X892382Y642382D01*
X890220Y644041D01*
X887702Y645084D01*
X886270Y645272D01*
D02*
G37*
G36*
X940000Y668157D02*
X936879Y667536D01*
X934232Y665768D01*
X932464Y663121D01*
X931843Y660000D01*
X932464Y656879D01*
X934232Y654232D01*
X936879Y652464D01*
X940000Y651843D01*
X943121Y652464D01*
X945768Y654232D01*
X947536Y656879D01*
X948157Y660000D01*
X947536Y663121D01*
X945768Y665768D01*
X943121Y667536D01*
X940000Y668157D01*
D02*
G37*
G36*
X261230Y212772D02*
X259798Y212584D01*
X257280Y211541D01*
X255118Y209882D01*
X253459Y207720D01*
X252416Y205202D01*
X252228Y203770D01*
X261230D01*
Y212772D01*
D02*
G37*
G36*
X263770D02*
Y203770D01*
X272772D01*
X272584Y205202D01*
X271541Y207720D01*
X269882Y209882D01*
X267720Y211541D01*
X265202Y212584D01*
X263770Y212772D01*
D02*
G37*
G36*
X272772Y201230D02*
X263770D01*
Y192228D01*
X265202Y192416D01*
X267720Y193459D01*
X269882Y195118D01*
X271541Y197280D01*
X272584Y199798D01*
X272772Y201230D01*
D02*
G37*
G36*
X261230D02*
X252228D01*
X252416Y199798D01*
X253459Y197280D01*
X255118Y195118D01*
X257280Y193459D01*
X259798Y192416D01*
X261230Y192228D01*
Y201230D01*
D02*
G37*
%LPD*%
D10*
X400000Y608000D02*
D03*
Y622000D02*
D03*
X355000Y587000D02*
D03*
Y573000D02*
D03*
X175000Y625500D02*
D03*
Y639500D02*
D03*
X160000Y573000D02*
D03*
Y587000D02*
D03*
X162500Y509500D02*
D03*
Y495500D02*
D03*
X215000Y542000D02*
D03*
Y528000D02*
D03*
X90000Y472000D02*
D03*
Y458000D02*
D03*
X60000D02*
D03*
Y472000D02*
D03*
X382500Y524500D02*
D03*
Y510500D02*
D03*
X477500Y614500D02*
D03*
Y600500D02*
D03*
X442500Y620500D02*
D03*
Y634500D02*
D03*
X415000Y669500D02*
D03*
Y655500D02*
D03*
X420000Y587000D02*
D03*
Y573000D02*
D03*
X380000Y575000D02*
D03*
Y589000D02*
D03*
X850000Y618000D02*
D03*
Y632000D02*
D03*
X820000Y618000D02*
D03*
Y632000D02*
D03*
D11*
X323000Y547500D02*
D03*
X337000D02*
D03*
X265500Y530000D02*
D03*
X279500D02*
D03*
X752000Y750000D02*
D03*
X738000D02*
D03*
X295500Y497500D02*
D03*
X309500D02*
D03*
X490500Y635000D02*
D03*
X504500D02*
D03*
X307500Y587500D02*
D03*
X321500D02*
D03*
X702000Y590000D02*
D03*
X688000D02*
D03*
X702000Y610000D02*
D03*
X688000D02*
D03*
X702000Y640000D02*
D03*
X688000D02*
D03*
D19*
X937700Y251500D02*
X950400Y238800D01*
X903500Y251500D02*
X937700D01*
X895000Y260000D02*
X903500Y251500D01*
X895000Y260000D02*
Y340000D01*
X877500Y267500D02*
Y330000D01*
X937394Y226406D02*
X950400Y213400D01*
X858594Y226406D02*
X937394D01*
X810000Y275000D02*
X858594Y226406D01*
X923800Y240000D02*
X925000Y238800D01*
X865000Y240000D02*
X923800D01*
X832500Y272500D02*
X865000Y240000D01*
X832500Y272500D02*
Y330000D01*
X810000Y275000D02*
Y327500D01*
X822500Y372500D02*
Y377500D01*
X815000Y385000D02*
X822500Y377500D01*
X815000Y385000D02*
Y417500D01*
X805000Y367500D02*
Y375000D01*
X795000Y385000D02*
X805000Y375000D01*
X795000Y385000D02*
Y407500D01*
X782500Y270000D02*
X792500Y260000D01*
X782500Y270000D02*
Y327500D01*
X770000Y250000D02*
X777500Y242500D01*
X770000Y250000D02*
Y287500D01*
X762500Y295000D02*
X770000Y287500D01*
X762500Y295000D02*
Y327500D01*
X757500Y232500D02*
Y282500D01*
X742500Y297500D02*
X757500Y282500D01*
X742500Y297500D02*
Y327500D01*
X847500Y375000D02*
X857500Y385000D01*
Y395000D01*
X872500Y410000D01*
Y415000D01*
X835000Y387500D02*
X857500Y410000D01*
Y430000D01*
X782500Y367500D02*
X787500D01*
X890000Y447500D02*
Y450000D01*
X835000Y505000D02*
X890000Y450000D01*
Y427500D02*
X892500D01*
X832500Y485000D02*
X890000Y427500D01*
X825000Y485000D02*
X832500D01*
X880000Y382500D02*
Y397500D01*
X885000D01*
X907500Y380000D02*
Y395000D01*
X855000Y447500D02*
X907500Y395000D01*
X807500Y447500D02*
X855000D01*
X777500Y362500D02*
X782500Y367500D01*
X727500Y362500D02*
X777500D01*
X717500Y372500D02*
X727500Y362500D01*
X717500Y372500D02*
Y410000D01*
X722500Y415000D01*
Y470000D01*
X812500Y355000D02*
X816250Y351250D01*
X725000Y355000D02*
X812500D01*
X700000Y380000D02*
X725000Y355000D01*
X700000Y380000D02*
Y465000D01*
X730000Y295000D02*
Y342500D01*
X772500Y412500D02*
X807500Y447500D01*
X772500Y382500D02*
Y412500D01*
X862500Y365000D02*
X880000Y382500D01*
X750000Y380000D02*
X755000Y375000D01*
X750000Y380000D02*
Y405000D01*
X775000Y430000D02*
Y485000D01*
X750000Y405000D02*
X775000Y430000D01*
X735000Y380000D02*
Y407500D01*
X765000Y437500D01*
X907500Y380000D02*
X910938Y376562D01*
X936963D02*
X950000Y389600D01*
X685000Y480000D02*
X700000Y465000D01*
X950000Y162200D02*
X950400Y162600D01*
X950000Y90000D02*
Y162200D01*
X925000Y65000D02*
X950000Y90000D01*
X805000Y65000D02*
X925000D01*
X740000Y130000D02*
X805000Y65000D01*
X740000Y130000D02*
Y285000D01*
X730000Y295000D02*
X740000Y285000D01*
X820000Y35000D02*
X832300D01*
X730000Y125000D02*
X820000Y35000D01*
X730000Y125000D02*
Y280000D01*
X715000Y295000D02*
X730000Y280000D01*
X715000Y295000D02*
Y330000D01*
X900000Y605000D02*
Y605000D01*
X885000Y590000D02*
X900000Y605000D01*
X880000Y590000D02*
X885000D01*
X775000Y485000D02*
X880000Y590000D01*
X765000Y437500D02*
Y490000D01*
X880000Y605000D01*
X835000Y600000D02*
X855000D01*
X830000Y595000D02*
X835000Y600000D01*
X830000Y570000D02*
Y595000D01*
X855000Y600000D02*
X872500Y617500D01*
X810000Y550000D02*
X830000Y570000D01*
X795000Y550000D02*
X810000D01*
X745000Y500000D02*
X795000Y550000D01*
X745000Y475000D02*
Y500000D01*
X490000Y910000D02*
Y925000D01*
X465000Y885000D02*
X490000Y910000D01*
X465000Y820000D02*
Y885000D01*
X485000Y920000D02*
X490000Y925000D01*
X465000Y820000D02*
X615160Y669840D01*
X500000Y800000D02*
Y875000D01*
Y800000D02*
X640000Y660000D01*
Y560000D02*
Y660000D01*
X659999Y564999D02*
Y660001D01*
X515400Y804600D02*
X659999Y660001D01*
X515400Y804600D02*
Y925000D01*
X785000Y575000D02*
X795000D01*
X700000Y490000D02*
X785000Y575000D01*
X830000Y744000D02*
Y850000D01*
X820400Y859600D02*
X830000Y850000D01*
X800775Y859600D02*
X820400D01*
X800375Y860000D02*
X800775Y859600D01*
X715000Y860000D02*
X800375D01*
X750000Y775000D02*
X780000Y805000D01*
X815000Y570000D02*
Y585000D01*
X805000Y560000D02*
X815000Y570000D01*
X790000Y560000D02*
X805000D01*
X720000Y490000D02*
X790000Y560000D01*
X200000Y315000D02*
X245000Y270000D01*
X280000D01*
X250000Y395000D02*
X315000D01*
X300000Y240000D02*
X350000D01*
X450000Y340000D01*
X715000Y580000D02*
Y610000D01*
X615160Y560160D02*
Y669840D01*
X600000Y595000D02*
Y665000D01*
X580000Y655000D02*
Y660000D01*
Y655000D02*
X590000Y645000D01*
X550000Y660000D02*
Y670000D01*
Y660000D02*
X575000Y635000D01*
Y625000D02*
Y635000D01*
X590000Y610000D02*
Y645000D01*
X565000Y585000D02*
X590000Y610000D01*
X530000Y675000D02*
X550000Y695000D01*
X530000Y660000D02*
Y675000D01*
Y660000D02*
X550000Y640000D01*
Y485000D02*
Y640000D01*
X600000Y755000D02*
Y770000D01*
X615000Y785000D01*
X674999Y519999D02*
Y544999D01*
X700000Y570000D01*
X689999Y534999D02*
Y539999D01*
X770000Y620000D01*
X695000Y735000D02*
X705000Y745000D01*
Y780000D01*
X625000Y550000D02*
Y550320D01*
X615160Y560160D02*
X625000Y550320D01*
X705000Y520000D02*
Y525000D01*
X790000Y610000D01*
X585000Y580000D02*
X600000Y595000D01*
X585000Y510000D02*
Y580000D01*
X565000Y500000D02*
Y585000D01*
X610000Y480000D02*
X685000D01*
X715000Y250000D02*
Y285000D01*
X700000Y300000D02*
X715000Y285000D01*
X700000Y300000D02*
Y360000D01*
X585000Y460000D02*
X595000D01*
X610000Y445000D01*
X585000Y440000D02*
X595000D01*
X610000Y445000D02*
X620000D01*
X655000Y410000D01*
Y395000D02*
Y410000D01*
X595000Y440000D02*
X610000Y425000D01*
X615000D01*
X705000Y570000D02*
X715000Y580000D01*
X700000Y570000D02*
X705000D01*
X867000Y662000D02*
X870000Y665000D01*
X651650Y124650D02*
X665350D01*
X727300Y62700D01*
Y35000D02*
Y62700D01*
X651650Y137350D02*
X672650D01*
X752700Y57300D01*
Y35000D02*
Y57300D01*
X752000Y750000D02*
X800775Y798775D01*
Y834200D01*
X235000Y450000D02*
Y450000D01*
X445000Y450000D02*
X495000D01*
X105000Y475000D02*
X165000Y415000D01*
X410000D01*
X445000Y450000D01*
X410000Y360000D02*
X475000Y425000D01*
X490000D01*
X325000Y255000D02*
X430000Y360000D01*
X30000Y104600D02*
X42700Y117300D01*
X415000Y325000D02*
X450000Y360000D01*
X87300Y117300D02*
X225000Y255000D01*
X325000D01*
X90000Y155000D02*
X100000D01*
X77700Y142700D02*
X90000Y155000D01*
X30000Y130000D02*
X42700Y142700D01*
X165000Y175000D02*
X345000D01*
X94600Y104600D02*
X165000Y175000D01*
X55400Y104600D02*
X94600D01*
X365000Y170000D02*
Y175000D01*
X355000Y160000D02*
X365000Y170000D01*
X170000Y160000D02*
X355000D01*
X101900Y91900D02*
X170000Y160000D01*
X30000Y79200D02*
X42700Y91900D01*
X365000Y150000D02*
X390000Y175000D01*
X175000Y150000D02*
X365000D01*
X104200Y79200D02*
X175000Y150000D01*
X55400Y79200D02*
X104200D01*
X585000Y385000D02*
Y395000D01*
X565000Y365000D02*
X585000Y385000D01*
X598400Y261650D02*
X600000Y263250D01*
X570000Y390000D02*
Y400000D01*
X555000Y375000D02*
X570000Y390000D01*
X555000Y305000D02*
Y375000D01*
Y305000D02*
X573000Y287000D01*
Y261650D02*
Y287000D01*
X560000Y280000D02*
X560300Y279700D01*
Y261650D02*
Y279700D01*
X565000Y355000D02*
Y365000D01*
Y355000D02*
X600000Y320000D01*
Y263250D02*
Y320000D01*
X580000Y355000D02*
X585000D01*
X635000Y275000D02*
X660000Y300000D01*
X635000Y245000D02*
Y275000D01*
X630000Y240000D02*
X635000Y245000D01*
X590000Y240000D02*
X630000D01*
X585700Y244300D02*
X590000Y240000D01*
X585700Y244300D02*
Y261650D01*
X615000Y285000D02*
X650000Y320000D01*
X585000Y355000D02*
X595000Y365000D01*
Y345000D02*
X605000Y355000D01*
X595000Y365000D02*
X640000D01*
X660000Y345000D01*
Y300000D02*
Y345000D01*
X605000Y355000D02*
X635000D01*
X650000Y340000D01*
Y320000D02*
Y340000D01*
X595000Y425000D02*
X615000Y405000D01*
X410000Y145000D02*
Y280000D01*
X370000Y105000D02*
X410000Y145000D01*
X180000Y105000D02*
X370000D01*
X42700Y142700D02*
X77700D01*
X42700Y117300D02*
X87300D01*
X42700Y91900D02*
X101900D01*
X120000Y45000D02*
X180000Y105000D01*
X115000Y45000D02*
X120000D01*
X80000Y10000D02*
X115000Y45000D01*
X40000Y10000D02*
X80000D01*
X30000Y20000D02*
X40000Y10000D01*
X30000Y20000D02*
Y28400D01*
X635000Y385000D02*
X665000Y355000D01*
X675000Y280000D02*
Y335000D01*
Y280000D02*
X685000Y270000D01*
X665000Y355000D02*
X685000D01*
X690000Y350000D01*
Y290000D02*
Y350000D01*
Y290000D02*
X695000Y285000D01*
X505000Y575000D02*
Y634500D01*
X504500Y635000D02*
X505000Y634500D01*
X485000Y587500D02*
Y593000D01*
X477500Y600500D02*
X485000Y593000D01*
X467500Y502500D02*
X497500D01*
X460000Y495000D02*
X467500Y502500D01*
X312000Y495000D02*
X460000D01*
X309500Y497500D02*
X312000Y495000D01*
X460000Y530000D02*
Y547500D01*
X440500Y510500D02*
X460000Y530000D01*
X382500Y510500D02*
X440500D01*
X385000Y565000D02*
Y570000D01*
X380000Y575000D02*
X385000Y570000D01*
X375000D02*
X380000Y575000D01*
X358000Y570000D02*
X375000D01*
X355000Y573000D02*
X358000Y570000D01*
X380000Y589000D02*
X381000D01*
X400000Y608000D01*
X420000Y588000D01*
Y587000D02*
Y588000D01*
Y573000D02*
X457000D01*
X448500Y614500D02*
X477500D01*
X442500Y620500D02*
X448500Y614500D01*
X443000Y635000D02*
X490500D01*
X442500Y634500D02*
X443000Y635000D01*
X421500Y655500D02*
X442500Y634500D01*
X415000Y655500D02*
X421500D01*
X400000Y622000D02*
X441000D01*
X442500Y620500D01*
X400000Y555000D02*
X442500D01*
X397500Y552500D02*
X400000Y555000D01*
X342000Y552500D02*
X397500D01*
X337000Y547500D02*
X342000Y552500D01*
X360000Y542500D02*
X430000D01*
X347500Y530000D02*
X360000Y542500D01*
X279500Y530000D02*
X347500D01*
X252500D02*
X265500D01*
X250500Y528000D02*
X252500Y530000D01*
X215000Y528000D02*
X250500D01*
X212500Y497500D02*
X295500D01*
X200000Y510000D02*
X212500Y497500D01*
X200000Y510000D02*
Y537500D01*
X204500Y542000D01*
X215000D01*
Y550000D01*
X178000Y587000D02*
X215000Y550000D01*
X160000Y587000D02*
X178000D01*
X162500Y509500D02*
Y570500D01*
X160000Y573000D02*
X162500Y570500D01*
X129000Y664050D02*
X153450D01*
X155000Y662500D01*
Y652500D02*
Y662500D01*
X153850Y651350D02*
X155000Y652500D01*
X129000Y651350D02*
X153850D01*
X106350D02*
X129000D01*
X105000Y650000D02*
X106350Y651350D01*
X105000Y620000D02*
Y650000D01*
X100000Y615000D02*
X105000Y620000D01*
X65000Y615000D02*
X100000D01*
X55000Y625000D02*
X65000Y615000D01*
X55000Y625000D02*
Y642500D01*
X42500Y655000D02*
X55000Y642500D01*
X20000Y655000D02*
X42500D01*
X147000Y573000D02*
X160000D01*
X142500Y577500D02*
X147000Y573000D01*
X142500Y577500D02*
Y597500D01*
X145000Y600000D01*
X187500D01*
X192500Y605000D01*
Y635000D01*
X188000Y639500D02*
X192500Y635000D01*
X175000Y639500D02*
X188000D01*
X129850D02*
X175000D01*
X129000Y638650D02*
X129850Y639500D01*
X265500Y530000D02*
Y549500D01*
X303500Y587500D01*
X307500D01*
X323000Y547500D02*
Y586000D01*
X321500Y587500D02*
X323000Y586000D01*
X321500Y587500D02*
X354500D01*
X355000Y587000D01*
X352500Y485000D02*
X495000D01*
X317500Y450000D02*
X352500Y485000D01*
X242184Y450000D02*
X317500D01*
X231408Y446408D02*
X232896Y444920D01*
X237104D01*
X242184Y450000D01*
X82500Y485000D02*
Y497500D01*
Y485000D02*
X90000Y477500D01*
Y472000D02*
Y475000D01*
Y477500D01*
X950400Y315000D02*
X965000Y329600D01*
Y345000D01*
X958750Y351250D02*
X965000Y345000D01*
X555000Y425000D02*
X595000D01*
X410000Y280000D02*
X555000Y425000D01*
X950000Y567400D02*
Y612500D01*
X945000Y617500D02*
X950000Y612500D01*
X872500Y617500D02*
X945000D01*
X770000Y620000D02*
Y625000D01*
X790000Y610000D02*
Y612500D01*
X715000Y610000D02*
X745000Y640000D01*
X745000Y640000D01*
X750000D01*
X670000Y375000D02*
Y425000D01*
X630000Y465000D02*
X670000Y425000D01*
X605000Y465000D02*
X630000D01*
X595000Y475000D02*
X605000Y465000D01*
X570000Y467500D02*
X577500Y475000D01*
X570000Y442500D02*
Y467500D01*
X562500Y435000D02*
X570000Y442500D01*
X535000Y435000D02*
X562500D01*
X480000Y370000D02*
Y380000D01*
X535825Y150000D02*
X538300Y152475D01*
X457000Y573000D02*
X477500Y552500D01*
Y545000D02*
Y552500D01*
X385000Y699500D02*
X415000Y669500D01*
X385000Y699500D02*
Y725000D01*
X794000Y708000D02*
X830000Y744000D01*
X816250Y351250D02*
X958750D01*
X910938Y376562D02*
X936963D01*
X577500Y475000D02*
X590000D01*
X595000D01*
X490000Y425000D02*
X550000Y485000D01*
X480000Y380000D02*
X527500Y427500D01*
X535000Y435000D01*
X872500Y262500D02*
X877500Y267500D01*
X60000Y475000D02*
X90000D01*
X105000D01*
D20*
X853000Y708000D02*
X870000Y725000D01*
X655000Y540000D02*
X685000Y570000D01*
X702000Y610000D02*
Y640000D01*
Y590000D02*
Y610000D01*
X725000Y685000D02*
X736000D01*
X685000Y645000D02*
X725000Y685000D01*
X850000Y662000D02*
X867000D01*
X820000D02*
X850000D01*
Y632000D02*
Y662000D01*
X820000Y632000D02*
Y662000D01*
X850000Y618000D02*
X858000D01*
X875000Y635000D01*
X885000D01*
X812000Y618000D02*
X820000D01*
X850000D01*
X787500Y642500D02*
X812000Y618000D01*
X775000Y642500D02*
X787500D01*
X762500Y655000D02*
X775000Y642500D01*
X717000Y655000D02*
X762500D01*
X702000Y640000D02*
X717000Y655000D01*
X632500Y540000D02*
X655000D01*
X555000Y450000D02*
Y477500D01*
X565000Y487500D01*
X572500D01*
X580000Y495000D01*
X590000D01*
X602500Y507500D01*
Y510000D01*
X632500Y540000D01*
X794000Y662000D02*
X820000D01*
X794000Y708000D02*
X853000D01*
X736000Y685000D02*
X794000D01*
X590000Y475000D02*
Y480000D01*
X520000Y432500D02*
X525000Y427500D01*
X527500D01*
X590000Y480000D02*
X611250Y501250D01*
X30000Y155400D02*
X55400D01*
X65400D01*
X72500Y162500D01*
X75000D01*
X685000Y570000D02*
Y610000D01*
Y645000D01*
D21*
X55400Y180800D02*
Y205400D01*
X60000Y210000D01*
Y458000D01*
X540800Y795800D02*
X651600Y685000D01*
X725000D01*
X540800Y830000D02*
X680000D01*
X540800Y795800D02*
Y830000D01*
Y925000D01*
X736000Y748000D02*
X738000Y750000D01*
X30000Y180800D02*
X55400D01*
X242300Y794800D02*
Y862300D01*
X165000Y717500D02*
X242300Y794800D01*
X120000Y717500D02*
X165000D01*
X81000Y664050D02*
Y678500D01*
X952500Y685000D02*
X970000Y667500D01*
Y485000D02*
Y667500D01*
X963500Y478500D02*
X970000Y485000D01*
X937300Y478500D02*
X963500D01*
X924600Y465800D02*
X937300Y478500D01*
X924600Y440400D02*
Y465800D01*
Y440400D02*
X950000D01*
X547500Y385000D02*
Y402500D01*
X442500Y280000D02*
X547500Y385000D01*
X442500Y127500D02*
Y280000D01*
Y127500D02*
X458050Y111950D01*
X481650D01*
Y99250D02*
Y111950D01*
X57499Y487499D02*
X60000D01*
X45000Y475000D02*
X57499Y487499D01*
X45000Y462500D02*
Y475000D01*
Y462500D02*
X49500Y458000D01*
X60000D01*
X794000Y685000D02*
X952500D01*
X736000D02*
Y748000D01*
X81000Y678500D02*
X120000Y717500D01*
D22*
X512500Y150000D02*
X535825D01*
D23*
X556650Y161650D02*
D03*
D28*
X31200Y350000D02*
D03*
X232800D02*
D03*
D29*
X267700Y887700D02*
D03*
X242300D02*
D03*
Y862300D02*
D03*
X82500Y562500D02*
D03*
X37500D02*
D03*
X82500Y497500D02*
D03*
X37500D02*
D03*
X540800Y925000D02*
D03*
X490000D02*
D03*
X515400D02*
D03*
X338100Y125000D02*
D03*
X287300D02*
D03*
X312700D02*
D03*
X20000Y629600D02*
D03*
X329600Y925000D02*
D03*
X355000D02*
D03*
X950000Y491200D02*
D03*
X924600D02*
D03*
X950000Y516600D02*
D03*
X924600D02*
D03*
X950000Y542000D02*
D03*
X924600D02*
D03*
X950000Y567400D02*
D03*
X924600Y465800D02*
D03*
X950000D02*
D03*
X924600Y440400D02*
D03*
X950000D02*
D03*
X924600Y415000D02*
D03*
X950000D02*
D03*
X924600Y389600D02*
D03*
X950000D02*
D03*
Y364200D02*
D03*
X924600D02*
D03*
Y338800D02*
D03*
X950000D02*
D03*
X177975Y881500D02*
D03*
Y830700D02*
D03*
X28750D02*
D03*
Y856100D02*
D03*
Y881500D02*
D03*
X950000Y885000D02*
D03*
Y834200D02*
D03*
X800775D02*
D03*
Y859600D02*
D03*
Y885000D02*
D03*
X925000Y315000D02*
D03*
X950400Y162600D02*
D03*
X925000D02*
D03*
X950400Y188000D02*
D03*
X925000D02*
D03*
X950400Y213400D02*
D03*
X925000D02*
D03*
X950400Y315000D02*
D03*
X925000Y289600D02*
D03*
X950400D02*
D03*
X925000Y264200D02*
D03*
X950400D02*
D03*
X925000Y238800D02*
D03*
X950400D02*
D03*
X752700Y35000D02*
D03*
X857700D02*
D03*
X30000Y180800D02*
D03*
X55400D02*
D03*
X30000Y155400D02*
D03*
X55400D02*
D03*
X30000Y130000D02*
D03*
X55400D02*
D03*
X30000Y28400D02*
D03*
X55400Y53800D02*
D03*
X30000D02*
D03*
X55400Y79200D02*
D03*
X30000D02*
D03*
X55400Y104600D02*
D03*
X30000D02*
D03*
X197700Y45000D02*
D03*
X400400Y70000D02*
D03*
X375000D02*
D03*
D30*
X267700Y862300D02*
D03*
X20000Y655000D02*
D03*
X924600Y567400D02*
D03*
X55400Y28400D02*
D03*
D31*
X464600Y925000D02*
D03*
X261900Y125000D02*
D03*
X380400Y925000D02*
D03*
X727300Y35000D02*
D03*
X832300D02*
D03*
X172300Y45000D02*
D03*
X349600Y70000D02*
D03*
D32*
X425000Y725000D02*
D03*
X385000D02*
D03*
D33*
X105000Y922000D02*
D03*
Y790000D02*
D03*
X877025Y925500D02*
D03*
Y793500D02*
D03*
D34*
X380000Y434500D02*
D03*
Y465500D02*
D03*
D35*
X875000Y262500D02*
D03*
X832500Y330000D02*
D03*
X810000Y327500D02*
D03*
X822500Y372500D02*
D03*
X805000Y367500D02*
D03*
X815000Y417500D02*
D03*
X795000Y407500D02*
D03*
X792500Y260000D02*
D03*
X777500Y242500D02*
D03*
X757500Y232500D02*
D03*
X782500Y327500D02*
D03*
X762500D02*
D03*
X742500D02*
D03*
X877500Y330000D02*
D03*
X895000Y340000D02*
D03*
X835000Y387500D02*
D03*
X847500Y375000D02*
D03*
X787500Y367500D02*
D03*
X872500Y415000D02*
D03*
X857500Y430000D02*
D03*
X892500Y427500D02*
D03*
X890000Y447500D02*
D03*
X880000Y397500D02*
D03*
X730000Y342500D02*
D03*
X722500Y470000D02*
D03*
X862500Y365000D02*
D03*
X755000Y375000D02*
D03*
X735000Y380000D02*
D03*
X772500Y382500D02*
D03*
X825000Y485000D02*
D03*
X835000Y505000D02*
D03*
X900000Y605000D02*
D03*
X880000D02*
D03*
X745000Y475000D02*
D03*
X500000Y875000D02*
D03*
X870000Y725000D02*
D03*
X795000Y575000D02*
D03*
X670000Y375000D02*
D03*
X715000Y860000D02*
D03*
X780000Y805000D02*
D03*
X750000Y775000D02*
D03*
X815000Y585000D02*
D03*
X720000Y490000D02*
D03*
X700000D02*
D03*
X200000Y315000D02*
D03*
X250000Y395000D02*
D03*
X315000D02*
D03*
X280000Y270000D02*
D03*
X295000Y240000D02*
D03*
X450000Y340000D02*
D03*
X600000Y665000D02*
D03*
X580000Y660000D02*
D03*
X550000Y670000D02*
D03*
X575000Y625000D02*
D03*
X550000Y695000D02*
D03*
X600000Y755000D02*
D03*
X689999Y534999D02*
D03*
X674999Y519999D02*
D03*
X659999Y564999D02*
D03*
X695000Y735000D02*
D03*
X705000Y780000D02*
D03*
X615000Y785000D02*
D03*
X625000Y550000D02*
D03*
X640000Y560000D02*
D03*
X705000Y520000D02*
D03*
X610000Y480000D02*
D03*
X555000Y450000D02*
D03*
X565000Y500000D02*
D03*
X585000Y510000D02*
D03*
X715000Y330000D02*
D03*
Y250000D02*
D03*
X700000Y360000D02*
D03*
X585000Y440000D02*
D03*
X655000Y395000D02*
D03*
X585000Y460000D02*
D03*
X615000Y425000D02*
D03*
X505000Y575000D02*
D03*
X565825Y143300D02*
D03*
X547475D02*
D03*
X538300Y152475D02*
D03*
X547475Y161650D02*
D03*
X556650Y152475D02*
D03*
X575000D02*
D03*
X565825Y161650D02*
D03*
X575000Y170825D02*
D03*
X556650D02*
D03*
X547475Y180000D02*
D03*
X565825D02*
D03*
X538300Y170825D02*
D03*
X870000Y665000D02*
D03*
X495000Y450000D02*
D03*
X680000Y830000D02*
D03*
X235000Y450000D02*
D03*
X480000Y370000D02*
D03*
X410000Y360000D02*
D03*
X430000D02*
D03*
X450000D02*
D03*
X615000Y405000D02*
D03*
X635000Y385000D02*
D03*
X415000Y325000D02*
D03*
X100000Y155000D02*
D03*
X345000Y175000D02*
D03*
X365000D02*
D03*
X390000D02*
D03*
X570000Y400000D02*
D03*
X585000Y395000D02*
D03*
X610000Y330000D02*
D03*
X595000Y345000D02*
D03*
X580000Y355000D02*
D03*
X560000Y280000D02*
D03*
X615000Y285000D02*
D03*
X630000Y335000D02*
D03*
X675000D02*
D03*
X695000Y285000D02*
D03*
X685000Y270000D02*
D03*
X447499Y472499D02*
D03*
X497500Y502500D02*
D03*
X495000Y485000D02*
D03*
X460000Y547500D02*
D03*
X442500Y555000D02*
D03*
X430000Y542500D02*
D03*
X485000Y587500D02*
D03*
X385000Y565000D02*
D03*
X392500Y530000D02*
D03*
X310000Y365000D02*
D03*
X92500Y695000D02*
D03*
X547500Y402500D02*
D03*
X885000Y635000D02*
D03*
X770000Y625000D02*
D03*
X790000Y612500D02*
D03*
X750000Y640000D02*
D03*
X60000Y487499D02*
D03*
X512500Y150000D02*
D03*
X975000Y465000D02*
D03*
X477500Y545000D02*
D03*
X425000Y215000D02*
D03*
X82500Y402500D02*
D03*
X35000Y400000D02*
D03*
X190000Y430000D02*
D03*
Y397500D02*
D03*
X302500Y467500D02*
D03*
X205000Y465000D02*
D03*
X312500Y75000D02*
D03*
X517500Y435000D02*
D03*
X337500Y300000D02*
D03*
X262500Y202500D02*
D03*
X202500Y130000D02*
D03*
X535000Y492500D02*
D03*
X125000Y175000D02*
D03*
X912500Y90000D02*
D03*
X937500Y30000D02*
D03*
D36*
X575000Y152475D02*
D03*
Y170825D02*
D03*
X556650Y152475D02*
D03*
Y170825D02*
D03*
X538300Y152475D02*
D03*
Y170825D02*
D03*
X565825Y180000D02*
D03*
X547475D02*
D03*
X565825Y161650D02*
D03*
X565825Y143300D02*
D03*
X547475D02*
D03*
Y161650D02*
D03*
D37*
X736000Y685000D02*
D03*
D38*
X794000Y662000D02*
D03*
Y685000D02*
D03*
Y708000D02*
D03*
D39*
X651650Y188150D02*
D03*
Y200850D02*
D03*
Y213550D02*
D03*
Y226250D02*
D03*
Y238950D02*
D03*
X481650Y86550D02*
D03*
Y99250D02*
D03*
Y111950D02*
D03*
Y124650D02*
D03*
Y137350D02*
D03*
Y150050D02*
D03*
Y162750D02*
D03*
Y175450D02*
D03*
Y188150D02*
D03*
Y200850D02*
D03*
Y238950D02*
D03*
Y226250D02*
D03*
Y213550D02*
D03*
X651650Y251650D02*
D03*
X481650D02*
D03*
D40*
X651650Y111950D02*
D03*
Y86550D02*
D03*
Y99250D02*
D03*
Y175450D02*
D03*
Y150050D02*
D03*
Y137350D02*
D03*
Y124650D02*
D03*
Y162750D02*
D03*
D41*
X575000Y180000D02*
D03*
Y143300D02*
D03*
X538300Y180000D02*
D03*
Y143300D02*
D03*
X556650Y180000D02*
D03*
Y143300D02*
D03*
X556650Y161650D02*
D03*
D42*
X538300D02*
D03*
X575000D02*
D03*
D43*
X522200Y261650D02*
D03*
X534900D02*
D03*
X547600D02*
D03*
X560300D02*
D03*
X573000D02*
D03*
X585700D02*
D03*
X598400D02*
D03*
X611100D02*
D03*
X623800D02*
D03*
X509500D02*
D03*
D44*
X129000Y664050D02*
D03*
Y651350D02*
D03*
Y638650D02*
D03*
Y625950D02*
D03*
X81000Y664050D02*
D03*
Y651350D02*
D03*
Y638650D02*
D03*
Y625950D02*
D03*
M02*
