M48
;Layer_Color=9474304
;FILE_FORMAT=4:4
METRIC,LZ
;TYPE=PLATED
T1F00S00C0.3000
T2F00S00C0.7000
T3F00S00C0.7112
T4F00S00C1.0000
T6F00S00C1.1000
T7F00S00C1.2000
%
T01
X00547475Y001433
X0055665Y00152475
X005383
X00547475Y0016165
X00565825
X0055665Y00170825
X005383
X00547475Y0018
X00565825
X00575Y00170825
Y00152475
X00565825Y001433
T02
X0038Y004345
Y004655
T03
X009375Y0003
X009125Y0009
X00875Y002625
X008775Y0033
X008325
X0081Y003275
X007825
X007625
X007425
X007575Y002325
X007775Y002425
X007925Y0026
X00715Y0025
X00685Y0027
X00695Y00285
X00715Y0033
X00675Y00335
X0063
X0061Y0033
X00615Y00285
X0056Y0028
X00565825Y0018
X00575Y00170825
Y00152475
X00565825Y001433
X00547475
X005383Y00152475
X00547475Y0016165
X0055665Y00152475
X00565825Y0016165
X0055665Y00170825
X00547475Y0018
X005383Y00170825
X005125Y0015
X0039Y00175
X00365
X00345
X00425Y00215
X00415Y00325
X003375Y003
X0028Y0027
X00295Y0024
X002625Y002025
X002025Y0013
X00125Y00175
X001Y00155
X002Y00315
X003125Y00075
X0031Y00365
X00315Y00395
X0025
X0019Y003975
Y0043
X00205Y00465
X00235Y0045
X003025Y004675
X0006Y00487499
X000825Y004025
X00035Y004
X000925Y00695
X00385Y00565
X003925Y0053
X0043Y005425
X004425Y00555
X0046Y005475
X004775Y00545
X00485Y005875
X00505Y00575
X004975Y005025
X00495Y00485
Y0045
X005175Y00435
X00555Y0045
X00585Y0044
Y0046
X0061Y0048
X00585Y0051
X00565Y005
X00535Y004925
X005475Y004025
X0057Y004
X00585Y00395
X00615Y00405
Y00425
X00635Y00385
X00655Y00395
X0067Y00375
X007Y0036
X0073Y003425
X007225Y0047
X0072Y0049
X007
X00705Y0052
X00689999Y00534999
X00674999Y00519999
X00659999Y00564999
X0064Y0056
X00625Y0055
X00575Y00625
X0058Y0066
X006Y00665
X0055Y0067
Y00695
X00447499Y00472499
X0045Y0036
Y0034
X0043Y0036
X0041
X0048Y0037
X0058Y00355
X00595Y00345
X00735Y0038
X00755Y00375
X007725Y003825
X007875Y003675
X00805
X008225Y003725
X00835Y003875
X008475Y00375
X008625Y00365
X0088Y003975
X008725Y00415
X008575Y0043
X008925Y004275
X0089Y004475
X00825Y00485
X00835Y00505
X00815Y00585
X00795Y00575
X0079Y006125
X0077Y00625
X0075Y0064
X00885Y00635
X0088Y00605
X009
X0087Y00665
Y00725
X00815Y004175
X00795Y004075
X00745Y00475
X00975Y00465
X00895Y0034
X0078Y00805
X0075Y00775
X00705Y0078
X00695Y00735
X0068Y0083
X00715Y0086
X00615Y00785
X006Y00755
X005Y00875
T04
X00385Y00725
X00425
X0094Y00704
Y0066
X0095Y008342
Y00885
X00800775
Y008596
Y008342
X00177975Y008307
Y008815
X0002875
Y008561
Y008307
T06
X007527Y00035
X008323
X008577
X00925Y001626
X009504
Y00188
X00925
Y002134
X009504
Y002388
Y002642
Y002896
Y00315
X00925
Y002896
Y002642
Y002388
X007273Y00035
X004004Y0007
X00375
X003496
X003381Y00125
X003127
X002873
X002619
X001977Y00045
X001723
X000554Y000538
Y000284
X0003
Y000538
Y000792
X000554
Y001046
Y0013
Y001554
Y001808
X0003
Y001554
Y0013
Y001046
X0002Y006296
Y00655
X009246Y005674
Y00542
Y005166
Y004912
X0095
Y005166
Y00542
Y005674
Y004658
X009246
Y004404
X0095
Y00415
X009246
Y003896
X0095
Y003642
X009246
Y003388
X0095
X005408Y00925
X005154
X0049
X004646
X003804
X00355
X003296
X002677Y008877
Y008623
X002423
Y008877
T07
X000375Y004975
X000825
Y005625
X000375
M30
