G04 Layer_Physical_Order=1*
G04 Layer_Color=255*
%FSLAX44Y44*%
%MOMM*%
G71*
G01*
G75*
%ADD10R,0.8500X0.8500*%
%ADD11R,0.8500X0.8500*%
%ADD12R,4.0000X2.0000*%
%ADD13R,3.5000X2.0000*%
%ADD14R,2.2000X0.5000*%
%ADD15O,0.3000X1.4000*%
%ADD16O,1.4000X0.3000*%
%ADD17R,0.7000X1.2000*%
%ADD18R,1.8000X1.1000*%
%ADD19C,0.2540*%
%ADD20C,0.4000*%
%ADD21C,0.3000*%
%ADD22C,0.5000*%
%ADD23R,6.0000X6.0000*%
%ADD24R,1.0000X0.8000*%
%ADD25R,1.0000X2.8000*%
%ADD26R,1.3000X1.9000*%
%ADD27R,1.0000X1.2000*%
%ADD28O,1.8000X2.4000*%
%ADD29C,2.0000*%
%ADD30R,2.0000X2.0000*%
%ADD31R,2.0000X2.0000*%
%ADD32C,1.8000*%
G04:AMPARAMS|DCode=33|XSize=5mm|YSize=4mm|CornerRadius=1.4mm|HoleSize=0mm|Usage=FLASHONLY|Rotation=270.000|XOffset=0mm|YOffset=0mm|HoleType=Round|Shape=RoundedRectangle|*
%AMROUNDEDRECTD33*
21,1,5.0000,1.2000,0,0,270.0*
21,1,2.2000,4.0000,0,0,270.0*
1,1,2.8000,-0.6000,-1.1000*
1,1,2.8000,-0.6000,1.1000*
1,1,2.8000,0.6000,1.1000*
1,1,2.8000,0.6000,-1.1000*
%
%ADD33ROUNDEDRECTD33*%
%ADD34C,1.3000*%
%ADD35C,1.2700*%
%ADD36C,0.6000*%
G36*
X245646Y433368D02*
Y406708D01*
X243154Y404881D01*
X237154Y407921D01*
Y435837D01*
X238078Y436762D01*
X239022Y438174D01*
X239646Y438297D01*
X245646Y433368D01*
D02*
G37*
G36*
X538310Y395200D02*
X539801Y388927D01*
X539248Y387939D01*
X538244Y387739D01*
X537500Y387242D01*
X536756Y387739D01*
X535000Y388088D01*
X533244Y387739D01*
X532500Y387242D01*
X531756Y387739D01*
X530000Y388088D01*
X528244Y387739D01*
X527500Y387242D01*
X526756Y387739D01*
X525000Y388088D01*
X523244Y387739D01*
X522500Y387242D01*
X521756Y387739D01*
X520000Y388088D01*
X518244Y387739D01*
X517500Y387242D01*
X516756Y387739D01*
X515000Y388088D01*
X514041Y387897D01*
X511642Y389801D01*
X510938Y390708D01*
X510328Y392923D01*
X511898Y395412D01*
X537500D01*
X537918Y395495D01*
X538310Y395200D01*
D02*
G37*
G36*
X371672Y394646D02*
X371575Y394354D01*
X357000D01*
X355334Y394022D01*
X353922Y393078D01*
X343093Y382250D01*
X336250D01*
Y383250D01*
X329270D01*
Y375000D01*
X326730D01*
Y383250D01*
X325044D01*
X323523Y385557D01*
X322403Y389250D01*
X323807Y391352D01*
X324533Y395000D01*
X329139Y400646D01*
X367332D01*
X371672Y394646D01*
D02*
G37*
G36*
X579608Y413904D02*
X579625Y411729D01*
X577643Y407383D01*
X576079Y407183D01*
X573648Y408807D01*
X570000Y409533D01*
X566352Y408807D01*
X563552Y406937D01*
X559964Y407591D01*
X557393Y408254D01*
X556070Y412081D01*
X558244Y414256D01*
X559239Y415744D01*
X559588Y417500D01*
Y426084D01*
X565131Y428380D01*
X579608Y413904D01*
D02*
G37*
G36*
X881778Y442131D02*
X884896Y437100D01*
X883334Y431522D01*
X881921Y430578D01*
X875316Y423973D01*
X872500Y424533D01*
X868368Y428840D01*
X868235Y434578D01*
X876143Y442486D01*
X881778Y442131D01*
D02*
G37*
G36*
X908334Y423478D02*
X911022Y419682D01*
X911770Y417146D01*
X911488Y415000D01*
X911935Y411606D01*
X913244Y408444D01*
X915176Y405927D01*
X915328Y405663D01*
Y398937D01*
X915176Y398673D01*
X913244Y396156D01*
X911935Y392994D01*
X911488Y389600D01*
X911754Y387580D01*
X909465Y383711D01*
X907356Y381580D01*
X889198D01*
X888009Y382187D01*
X884458Y387531D01*
X885028Y389614D01*
X886741Y390759D01*
X888808Y393852D01*
X889533Y397500D01*
X888808Y401148D01*
X886741Y404241D01*
X883648Y406307D01*
X881308Y411352D01*
X882033Y415000D01*
X881670Y416824D01*
X882115Y417252D01*
X886508Y420259D01*
X888852Y418693D01*
X892500Y417967D01*
X896148Y418693D01*
X899241Y420759D01*
X900386Y422472D01*
X905479Y423991D01*
X907466Y424058D01*
X908334Y423478D01*
D02*
G37*
G36*
X832349Y421494D02*
X843489Y410354D01*
X841004Y404354D01*
X825000D01*
X823334Y404022D01*
X821921Y403078D01*
X813197Y394354D01*
X802954D01*
X801134Y400354D01*
X801741Y400759D01*
X803808Y403852D01*
X804358Y406620D01*
X807606Y408526D01*
X810270Y409416D01*
X811352Y408693D01*
X815000Y407967D01*
X818648Y408693D01*
X821741Y410759D01*
X823808Y413852D01*
X824533Y417500D01*
X829546Y421483D01*
X831635Y421831D01*
X832349Y421494D01*
D02*
G37*
G36*
X445646Y376650D02*
Y368336D01*
X443742Y367063D01*
X442884Y366741D01*
X437116D01*
X436258Y367063D01*
X435406Y367633D01*
X435014Y373857D01*
X440103Y378946D01*
X445646Y376650D01*
D02*
G37*
G36*
X723351Y386684D02*
X725894Y382146D01*
X725467Y380000D01*
X726192Y376352D01*
X728259Y373259D01*
X730646Y371664D01*
Y363794D01*
X728320Y362318D01*
X724646Y361511D01*
X703554Y382603D01*
X705850Y388146D01*
X721982D01*
X723351Y386684D01*
D02*
G37*
G36*
X745867Y370859D02*
X746938Y370237D01*
X748259Y368259D01*
X750646Y366664D01*
Y356294D01*
X748320Y354818D01*
X744646Y354011D01*
X739354Y359303D01*
Y366080D01*
X740237Y367714D01*
X745354Y370996D01*
X745867Y370859D01*
D02*
G37*
G36*
X651352Y386193D02*
X655000Y385467D01*
X657861Y386036D01*
X659810Y384247D01*
X661666Y381141D01*
X660959Y380220D01*
X659916Y377702D01*
X659728Y376270D01*
X670000D01*
Y375000D01*
X671270D01*
Y364728D01*
X672702Y364916D01*
X675220Y365959D01*
X677382Y367618D01*
X679041Y369780D01*
X680084Y372298D01*
X680430Y374928D01*
X680653Y375102D01*
X686134Y377709D01*
X693604Y370239D01*
X693259Y366741D01*
X691192Y363648D01*
X690467Y360000D01*
X691192Y356352D01*
X693259Y353259D01*
X696352Y351193D01*
X700000Y350467D01*
X703648Y351193D01*
X706741Y353259D01*
X708075Y355255D01*
X714503Y356571D01*
X718146Y353615D01*
Y350000D01*
X718478Y348334D01*
X719421Y346922D01*
X717140Y340926D01*
X716408Y340297D01*
X715000Y339533D01*
X711352Y338807D01*
X708259Y336741D01*
X706192Y333648D01*
X705467Y330000D01*
X704936Y329354D01*
X689139D01*
X684533Y335000D01*
X683808Y338648D01*
X681741Y341741D01*
X678648Y343807D01*
X675000Y344533D01*
X671352Y343807D01*
X668259Y341741D01*
X666664Y339354D01*
X644600D01*
X644412Y339646D01*
X644575Y341310D01*
X646666Y345978D01*
X648079Y346922D01*
X666432Y365275D01*
X667298Y364916D01*
X668730Y364728D01*
Y373730D01*
X659728D01*
X659916Y372298D01*
X660275Y371432D01*
X643197Y354354D01*
X631803D01*
X618124Y368033D01*
X618244Y369256D01*
X619239Y370744D01*
X619588Y372500D01*
Y383799D01*
X625588Y384390D01*
X626193Y381352D01*
X628259Y378259D01*
X631352Y376193D01*
X635000Y375467D01*
X638648Y376193D01*
X641741Y378259D01*
X643808Y381352D01*
X644358Y384120D01*
X647606Y386026D01*
X650270Y386916D01*
X651352Y386193D01*
D02*
G37*
G36*
X413946Y385103D02*
X409197Y380354D01*
X392250D01*
Y390646D01*
X411650D01*
X413946Y385103D01*
D02*
G37*
G36*
X485886Y390393D02*
X485905Y390383D01*
X488066Y387767D01*
X486565Y381156D01*
X483392Y379798D01*
X482702Y380084D01*
X481270Y380272D01*
Y370000D01*
Y359728D01*
X481852Y359804D01*
X483876Y358783D01*
X487412Y355373D01*
Y347250D01*
X476907D01*
X471805Y352352D01*
X472152Y356084D01*
X475761Y358772D01*
X478184Y359800D01*
X478730Y359728D01*
Y370000D01*
Y380272D01*
X478255Y380210D01*
X475153Y382590D01*
X473194Y384878D01*
X473241Y387084D01*
X476493Y390336D01*
X478000D01*
X478379Y390412D01*
X483500D01*
X484646Y390640D01*
X485886Y390393D01*
D02*
G37*
G36*
X790042Y386926D02*
X790046Y386922D01*
X791459Y385978D01*
X793125Y385646D01*
X814546D01*
X814969Y385174D01*
X815536Y380914D01*
X811422Y376220D01*
X808648Y376307D01*
X805000Y377033D01*
X801352Y376307D01*
X798259Y374241D01*
X794241D01*
X791148Y376307D01*
X787500Y377033D01*
X786646Y376863D01*
X783270Y380239D01*
X784196Y384519D01*
X786759Y386912D01*
X788971Y387337D01*
X790042Y386926D01*
D02*
G37*
G36*
X369270Y481750D02*
X376250D01*
Y482750D01*
X389250D01*
Y485646D01*
X407998D01*
Y479002D01*
X431998D01*
Y485646D01*
X437775D01*
X439771Y480734D01*
X439938Y479646D01*
X438458Y477719D01*
X437416Y475201D01*
X431770Y471916D01*
X431146Y471847D01*
X429250Y472250D01*
Y472250D01*
X400750D01*
Y469854D01*
X388517D01*
X386849Y472349D01*
X383707Y474449D01*
X380000Y475186D01*
X376293Y474449D01*
X373151Y472349D01*
X371149Y469354D01*
X354250D01*
Y472250D01*
X341250D01*
Y473250D01*
X341104D01*
X339118Y478673D01*
X342855Y483146D01*
X359750D01*
Y481750D01*
X366730D01*
Y490000D01*
X369270D01*
Y481750D01*
D02*
G37*
G36*
X988146Y588197D02*
Y474725D01*
X983238Y472730D01*
X982146Y472562D01*
X980220Y474041D01*
X977702Y475084D01*
X976270Y475272D01*
Y465000D01*
Y454728D01*
X977702Y454916D01*
X980220Y455959D01*
X982146Y457438D01*
X983238Y457270D01*
X988146Y455275D01*
Y201803D01*
X978697Y192354D01*
X962668D01*
X961756Y194556D01*
X959824Y197073D01*
X959672Y197337D01*
Y204063D01*
X959824Y204327D01*
X961756Y206844D01*
X963065Y210006D01*
X963512Y213400D01*
X963065Y216794D01*
X961756Y219956D01*
X959824Y222473D01*
X959672Y222737D01*
Y229463D01*
X959824Y229727D01*
X961756Y232244D01*
X963065Y235406D01*
X963512Y238800D01*
X963065Y242194D01*
X961756Y245356D01*
X959824Y247873D01*
X959672Y248137D01*
Y254863D01*
X959824Y255127D01*
X961756Y257644D01*
X963065Y260806D01*
X963512Y264200D01*
X963065Y267594D01*
X961756Y270756D01*
X959824Y273273D01*
X959672Y273537D01*
Y280263D01*
X959824Y280527D01*
X961756Y283044D01*
X963065Y286206D01*
X963512Y289600D01*
X963065Y292994D01*
X961756Y296156D01*
X959824Y298673D01*
X959672Y298937D01*
Y305663D01*
X959824Y305927D01*
X961756Y308444D01*
X963065Y311606D01*
X963512Y315000D01*
X963065Y318394D01*
X961756Y321556D01*
X959672Y324272D01*
X959275Y329485D01*
X960292Y330858D01*
X961356Y332244D01*
X962665Y335406D01*
X963112Y338800D01*
X962665Y342194D01*
X961753Y344396D01*
X970579Y353222D01*
X971522Y354634D01*
X971854Y356300D01*
Y420000D01*
X971522Y421666D01*
X970579Y423078D01*
X963079Y430578D01*
X961901Y432810D01*
X962665Y437006D01*
X963112Y440400D01*
X962665Y443794D01*
X961356Y446956D01*
X960022Y448694D01*
X959297Y449888D01*
X959904Y455117D01*
X960406Y456364D01*
X960897Y457004D01*
X961028Y457076D01*
X966878Y457557D01*
X968104Y457245D01*
X969780Y455959D01*
X972298Y454916D01*
X973730Y454728D01*
Y465000D01*
Y475272D01*
X972298Y475084D01*
X969780Y474041D01*
X968374Y472962D01*
X964954Y472905D01*
X961704Y473544D01*
X959985Y475785D01*
Y481215D01*
X962229Y484140D01*
X963640Y487545D01*
X963954Y489930D01*
X950000D01*
Y492470D01*
X963954D01*
X963640Y494855D01*
X962229Y498260D01*
X960406Y500636D01*
X959904Y501883D01*
X959297Y507112D01*
X960022Y508307D01*
X961356Y510044D01*
X962665Y513206D01*
X963112Y516600D01*
X962665Y519994D01*
X961356Y523156D01*
X959424Y525673D01*
X959272Y525937D01*
Y532663D01*
X959424Y532927D01*
X961356Y535444D01*
X962665Y538606D01*
X963112Y542000D01*
X962665Y545394D01*
X961356Y548556D01*
X959424Y551073D01*
X959272Y551337D01*
Y558063D01*
X959424Y558327D01*
X961356Y560844D01*
X962665Y564006D01*
X963112Y567400D01*
X962665Y570794D01*
X961356Y573956D01*
X959272Y576672D01*
X956556Y578755D01*
X953394Y580065D01*
X950000Y580512D01*
X946606Y580065D01*
X943444Y578755D01*
X937600Y580400D01*
Y580400D01*
X916570D01*
X915738Y581482D01*
X913079Y586922D01*
X926803Y600646D01*
X975697D01*
X988146Y588197D01*
D02*
G37*
G36*
X579910Y496277D02*
X580527Y495924D01*
X580646Y495716D01*
Y471013D01*
X577854Y468909D01*
X571854Y471900D01*
Y493428D01*
X573807Y496352D01*
X579910Y496277D01*
D02*
G37*
G36*
X617152Y504484D02*
X620720Y502579D01*
X622261Y496756D01*
X621912Y495000D01*
X618879Y490394D01*
X617645Y489354D01*
X615000D01*
X613334Y489022D01*
X610276Y490534D01*
X608559Y497070D01*
X616203Y504715D01*
X617152Y504484D01*
D02*
G37*
G36*
X730646Y508197D02*
Y500874D01*
X724646Y498141D01*
X723648Y498807D01*
X720000Y499533D01*
X716352Y498807D01*
X713259Y496741D01*
X706741D01*
X706425Y496952D01*
X706059Y497496D01*
X705316Y503910D01*
X705436Y504280D01*
X708079Y506922D01*
X709022Y508334D01*
X709354Y510000D01*
Y511664D01*
X711741Y513259D01*
X713808Y516352D01*
X713840Y516517D01*
X720351Y518492D01*
X730646Y508197D01*
D02*
G37*
G36*
X407998Y504002D02*
X426666D01*
X428544Y502634D01*
X428928Y502001D01*
X425557Y496002D01*
X407998D01*
Y494354D01*
X389250D01*
Y497250D01*
X376250D01*
Y498250D01*
X372354D01*
Y506750D01*
X376250D01*
Y507750D01*
X389250D01*
Y510646D01*
X407998D01*
Y504002D01*
D02*
G37*
G36*
X825870Y502973D02*
X826192Y501352D01*
X826916Y500270D01*
X826026Y497606D01*
X824120Y494358D01*
X821352Y493807D01*
X818953Y492204D01*
X811511Y499646D01*
X813996Y505646D01*
X823197D01*
X825870Y502973D01*
D02*
G37*
G36*
X510550Y442713D02*
X510118Y442382D01*
X508459Y440220D01*
X507416Y437702D01*
X507228Y436270D01*
X527772D01*
X527584Y437702D01*
X527086Y438902D01*
X528840Y442932D01*
X530511Y444902D01*
X547161D01*
X548259Y443259D01*
X550412Y441820D01*
Y419400D01*
X535600Y404588D01*
X506500D01*
X505354Y404360D01*
X504114Y404607D01*
X499354Y407382D01*
Y425000D01*
X499022Y426666D01*
X498078Y428078D01*
X498078D01*
X496666Y429022D01*
X495000Y429354D01*
X492653D01*
X489152Y434027D01*
X491076Y439671D01*
X493297Y440621D01*
X493877Y440690D01*
X495000Y440467D01*
X498648Y441193D01*
X501741Y443259D01*
X503807Y446352D01*
X510361Y448687D01*
X510550Y442713D01*
D02*
G37*
G36*
X620620Y469525D02*
X622261Y466756D01*
X621912Y465000D01*
X622261Y463244D01*
X622758Y462500D01*
X622261Y461756D01*
X621912Y460000D01*
X622261Y458244D01*
X622758Y457500D01*
X622261Y456756D01*
X621912Y455000D01*
X622261Y453244D01*
X622758Y452500D01*
X622261Y451756D01*
X621912Y450000D01*
X622261Y448244D01*
X622758Y447500D01*
X622261Y446756D01*
X621912Y445000D01*
X622261Y443244D01*
X622758Y442500D01*
X622261Y441756D01*
X621912Y440000D01*
X622177Y438666D01*
X620127Y435843D01*
X616703Y434379D01*
X616123Y434310D01*
X615000Y434533D01*
X611352Y433807D01*
X610588Y433297D01*
X604588Y436225D01*
Y465704D01*
X610000Y470467D01*
X613648Y471193D01*
X613738Y471253D01*
X620620Y469525D01*
D02*
G37*
G36*
X595412Y428775D02*
Y418916D01*
X589869Y416620D01*
X581429Y425060D01*
X584385Y430589D01*
X585000Y430467D01*
X588648Y431193D01*
X589412Y431703D01*
X595412Y428775D01*
D02*
G37*
G36*
X400750Y457750D02*
X400750Y452250D01*
X400285Y446442D01*
X398197Y444354D01*
X395000D01*
X393334Y444022D01*
X392605Y443535D01*
X386849Y441349D01*
X383707Y443449D01*
X380000Y444186D01*
X376293Y443449D01*
X373151Y441349D01*
X371818Y439354D01*
X354250D01*
Y442250D01*
X341250D01*
Y443250D01*
X337354D01*
Y456750D01*
X341250D01*
Y457750D01*
X354250D01*
Y460646D01*
X371818D01*
X373151Y458651D01*
X376293Y456551D01*
X380000Y455814D01*
X383707Y456551D01*
X386849Y458651D01*
X388517Y461146D01*
X396157D01*
X400750Y457750D01*
D02*
G37*
G36*
X781921Y476922D02*
X783334Y475978D01*
X785000Y475646D01*
X793197D01*
X803489Y465354D01*
X801004Y459354D01*
X737826D01*
X734350Y464966D01*
X741011Y466420D01*
X741352Y466193D01*
X745000Y465467D01*
X748648Y466193D01*
X751741Y468259D01*
X753808Y471352D01*
X754533Y475000D01*
X753808Y478648D01*
X751741Y481741D01*
X749354Y483336D01*
Y501004D01*
X755354Y503489D01*
X781921Y476922D01*
D02*
G37*
G36*
X913244Y510044D02*
X914578Y508307D01*
X915303Y507112D01*
X914696Y501883D01*
X914194Y500636D01*
X912371Y498260D01*
X910960Y494855D01*
X910646Y492470D01*
X924600D01*
Y489930D01*
X910646D01*
X910960Y487545D01*
X912371Y484140D01*
X914194Y481764D01*
X914696Y480517D01*
X915303Y475288D01*
X914578Y474094D01*
X913244Y472356D01*
X911935Y469194D01*
X911488Y465800D01*
X911510Y465632D01*
X905827Y462830D01*
X890579Y478078D01*
X889166Y479022D01*
X887500Y479354D01*
X863996D01*
X861511Y485354D01*
X863079Y486922D01*
X864022Y488334D01*
X864354Y490000D01*
Y508197D01*
X868403Y512246D01*
X912332D01*
X913244Y510044D01*
D02*
G37*
G36*
X893985Y462358D02*
X891029Y456828D01*
X890000Y457033D01*
X886352Y456307D01*
X883259Y454241D01*
X881664Y451854D01*
X875000D01*
X873334Y451522D01*
X871921Y450578D01*
X860316Y438973D01*
X857500Y439533D01*
X853852Y438807D01*
X850759Y436741D01*
X850616Y436526D01*
X843367Y435290D01*
X834011Y444646D01*
X834818Y448320D01*
X836294Y450646D01*
X837500D01*
X839166Y450978D01*
X840579Y451922D01*
X859303Y470646D01*
X885697D01*
X893985Y462358D01*
D02*
G37*
G36*
X443259Y346741D02*
X441193Y343648D01*
X440467Y340000D01*
X440589Y339385D01*
X435060Y336429D01*
X430744Y340744D01*
X429256Y341739D01*
X427500Y342088D01*
X408877D01*
X407718Y344803D01*
X408437Y346587D01*
X411505Y350766D01*
X413648Y351193D01*
X416741Y353259D01*
X423259D01*
X426352Y351193D01*
X430000Y350467D01*
X433648Y351193D01*
X436741Y353259D01*
X443259D01*
Y346741D01*
D02*
G37*
G36*
X422006Y190691D02*
X425646Y188504D01*
Y181803D01*
X420354Y176511D01*
X414354Y178996D01*
Y185697D01*
X419773Y191116D01*
X422006Y190691D01*
D02*
G37*
G36*
X385646Y206004D02*
Y183336D01*
X383259Y181741D01*
X381193Y178648D01*
X380467Y175000D01*
X381193Y171352D01*
X383259Y168259D01*
X386352Y166192D01*
X388603Y165745D01*
X390614Y161753D01*
X390966Y159623D01*
X360697Y129354D01*
X351450D01*
X350329Y132060D01*
X348085Y134985D01*
X345160Y137229D01*
X341755Y138640D01*
X339370Y138954D01*
Y125000D01*
Y111046D01*
X341755Y111360D01*
X345160Y112771D01*
X348085Y115015D01*
X350329Y117940D01*
X351450Y120646D01*
X361004D01*
X363191Y117006D01*
X363616Y114773D01*
X346521Y97678D01*
X345578Y96266D01*
X345246Y94600D01*
Y83000D01*
X336600D01*
Y57000D01*
X362600D01*
X362600Y57000D01*
X368444Y58644D01*
X371606Y57335D01*
X375000Y56888D01*
X378394Y57335D01*
X381556Y58644D01*
X384073Y60576D01*
X384337Y60728D01*
X391063D01*
X391327Y60576D01*
X393844Y58644D01*
X397006Y57335D01*
X400400Y56888D01*
X403794Y57335D01*
X406956Y58644D01*
X409672Y60728D01*
X411755Y63444D01*
X413065Y66606D01*
X413512Y70000D01*
X413065Y73394D01*
X411755Y76556D01*
X409672Y79272D01*
X406956Y81355D01*
X404754Y82268D01*
Y103597D01*
X442609Y141452D01*
X448825Y139183D01*
X449304Y135461D01*
X426922Y113078D01*
X425978Y111666D01*
X425646Y110000D01*
Y61803D01*
X413197Y49354D01*
X316803D01*
X306276Y59881D01*
X309675Y64967D01*
X309798Y64916D01*
X311230Y64728D01*
Y73730D01*
X302228D01*
X302416Y72298D01*
X302467Y72175D01*
X297381Y68776D01*
X278078Y88078D01*
X276666Y89022D01*
X275000Y89354D01*
X120000D01*
X118334Y89022D01*
X116922Y88078D01*
X86997Y58154D01*
X67668D01*
X66755Y60356D01*
X64824Y62873D01*
X64672Y63137D01*
Y69863D01*
X64824Y70127D01*
X66755Y72644D01*
X68065Y75806D01*
X68512Y79200D01*
X68065Y82594D01*
X66755Y85756D01*
X64824Y88273D01*
X64672Y88537D01*
Y95263D01*
X64824Y95527D01*
X66755Y98044D01*
X68065Y101206D01*
X68512Y104600D01*
X68065Y107994D01*
X66755Y111156D01*
X64824Y113673D01*
X64672Y113937D01*
Y120663D01*
X64824Y120927D01*
X66755Y123444D01*
X68065Y126606D01*
X68512Y130000D01*
X68238Y132081D01*
X83078Y146922D01*
X84022Y148334D01*
X85776Y149480D01*
X91193Y151352D01*
X93259Y148259D01*
X96352Y146193D01*
X100000Y145467D01*
X103648Y146193D01*
X106741Y148259D01*
X108336Y150646D01*
X245000D01*
X246666Y150978D01*
X248078Y151922D01*
X251546Y155389D01*
X257546Y152904D01*
Y138000D01*
X248900D01*
Y112000D01*
X274900D01*
X274900Y112000D01*
X280744Y113645D01*
X283906Y112335D01*
X287300Y111888D01*
X290694Y112335D01*
X293856Y113645D01*
X296373Y115576D01*
X296637Y115728D01*
X303363D01*
X303627Y115576D01*
X306144Y113645D01*
X309306Y112335D01*
X312700Y111888D01*
X316094Y112335D01*
X319256Y113645D01*
X320937Y114935D01*
X325740Y115291D01*
X328115Y115015D01*
X331040Y112771D01*
X334445Y111360D01*
X336830Y111046D01*
Y125000D01*
Y138954D01*
X334445Y138640D01*
X331040Y137229D01*
X328115Y134985D01*
X325740Y134709D01*
X320937Y135065D01*
X319256Y136355D01*
X317054Y137268D01*
Y175897D01*
X334646Y193489D01*
X340646Y191004D01*
Y183336D01*
X338259Y181741D01*
X336193Y178648D01*
X335467Y175000D01*
X336193Y171352D01*
X338259Y168259D01*
X341352Y166192D01*
X345000Y165467D01*
X348648Y166192D01*
X351741Y168259D01*
X358259D01*
X361352Y166192D01*
X365000Y165467D01*
X368648Y166192D01*
X371741Y168259D01*
X373807Y171352D01*
X374533Y175000D01*
X373807Y178648D01*
X371741Y181741D01*
X369354Y183336D01*
Y198197D01*
X379646Y208489D01*
X385646Y206004D01*
D02*
G37*
G36*
X420489Y419646D02*
X410197Y409354D01*
X317000D01*
X315334Y409022D01*
X313922Y408078D01*
X308093Y402250D01*
X285750D01*
Y392239D01*
X281756Y388244D01*
X280761Y386756D01*
X280412Y385000D01*
Y335000D01*
X280761Y333244D01*
X281756Y331756D01*
X296756Y316756D01*
X298244Y315761D01*
X300000Y315412D01*
X331983D01*
X333176Y309412D01*
X332280Y309041D01*
X330118Y307382D01*
X328459Y305220D01*
X327416Y302702D01*
X327228Y301270D01*
X347772D01*
X347584Y302702D01*
X346541Y305220D01*
X344882Y307382D01*
X342720Y309041D01*
X341824Y309412D01*
X343017Y315412D01*
X390770D01*
X393255Y309412D01*
X243197Y159354D01*
X129153D01*
X127702Y164916D01*
X130220Y165959D01*
X132382Y167618D01*
X134041Y169780D01*
X135084Y172298D01*
X135272Y173730D01*
X125000D01*
Y176270D01*
X135272D01*
X135084Y177702D01*
X134041Y180220D01*
X132382Y182382D01*
X130220Y184041D01*
X127702Y185084D01*
X125072Y185430D01*
X124898Y185653D01*
X122291Y191134D01*
X268078Y336922D01*
X269022Y338334D01*
X269354Y340000D01*
Y403197D01*
X281803Y415646D01*
X390000D01*
X391666Y415978D01*
X393078Y416922D01*
X401803Y425646D01*
X418004D01*
X420489Y419646D01*
D02*
G37*
G36*
X360646Y196004D02*
Y183336D01*
X358742Y182064D01*
X357884Y181741D01*
X354693D01*
X349354Y186597D01*
Y193197D01*
X354646Y198489D01*
X360646Y196004D01*
D02*
G37*
G36*
X881422Y184921D02*
X882834Y183978D01*
X884500Y183646D01*
X912732D01*
X913644Y181444D01*
X915576Y178927D01*
X915728Y178663D01*
Y171937D01*
X915576Y171673D01*
X913644Y169156D01*
X912732Y166954D01*
X829203D01*
X769734Y226423D01*
X769876Y229133D01*
X770943Y230356D01*
X775466Y233372D01*
X777500Y232967D01*
X781148Y233692D01*
X784241Y235759D01*
X785836Y238146D01*
X828197D01*
X881422Y184921D01*
D02*
G37*
G36*
X488946Y255103D02*
X439221Y205378D01*
X438919Y205335D01*
X433174Y207816D01*
X433200Y208685D01*
X434041Y209780D01*
X435084Y212298D01*
X435272Y213730D01*
X414728D01*
X414916Y212298D01*
X415959Y209780D01*
X417618Y207618D01*
X417251Y201030D01*
X417122Y200779D01*
X406922Y190578D01*
X405978Y189166D01*
X405646Y187500D01*
Y180071D01*
X405546Y179834D01*
X404783Y179364D01*
X398807Y178648D01*
X396741Y181741D01*
X394354Y183336D01*
Y208197D01*
X446803Y260646D01*
X486650D01*
X488946Y255103D01*
D02*
G37*
G36*
X879100Y209046D02*
X912732D01*
X913644Y206844D01*
X915576Y204327D01*
X915728Y204063D01*
Y197337D01*
X915576Y197073D01*
X913644Y194556D01*
X912732Y192354D01*
X886303D01*
X875657Y203000D01*
X877486Y209032D01*
X877847Y209296D01*
X879100Y209046D01*
D02*
G37*
G36*
X438825Y154183D02*
X439304Y150461D01*
X397322Y108478D01*
X396378Y107066D01*
X396046Y105400D01*
Y82268D01*
X393844Y81355D01*
X391327Y79424D01*
X391063Y79272D01*
X384337D01*
X384073Y79424D01*
X381556Y81355D01*
X379354Y82268D01*
Y103197D01*
X432609Y156452D01*
X438825Y154183D01*
D02*
G37*
G36*
X460646Y126004D02*
Y76803D01*
X440400Y56557D01*
X434368Y58386D01*
X434104Y58747D01*
X434354Y60000D01*
Y108197D01*
X454646Y128489D01*
X460646Y126004D01*
D02*
G37*
G36*
X138489Y74646D02*
X78197Y14354D01*
X73967D01*
X68400Y15400D01*
Y41400D01*
X68400Y41400D01*
X67824Y43446D01*
X72077Y49446D01*
X88800D01*
X90466Y49778D01*
X91878Y50722D01*
X121803Y80646D01*
X136004D01*
X138489Y74646D01*
D02*
G37*
G36*
X370646Y101004D02*
Y86677D01*
X364646Y82424D01*
X362600Y83000D01*
Y83000D01*
X353954D01*
Y92797D01*
X364646Y103489D01*
X370646Y101004D01*
D02*
G37*
G36*
X114347Y175102D02*
X114570Y174928D01*
X114916Y172298D01*
X115959Y169780D01*
X117618Y167618D01*
X119780Y165959D01*
X122298Y164916D01*
X120847Y159354D01*
X108336D01*
X106741Y161741D01*
X103648Y163808D01*
X103483Y163840D01*
X101508Y170351D01*
X108865Y177709D01*
X114347Y175102D01*
D02*
G37*
G36*
X282946Y163304D02*
Y141677D01*
X276946Y137424D01*
X274900Y138000D01*
Y138000D01*
X266254D01*
Y155097D01*
X276946Y165789D01*
X282946Y163304D01*
D02*
G37*
G36*
X308346Y173704D02*
Y137268D01*
X306144Y136355D01*
X303627Y134424D01*
X303363Y134272D01*
X296637D01*
X296373Y134424D01*
X293856Y136355D01*
X291654Y137268D01*
Y165497D01*
X302346Y176189D01*
X308346Y173704D01*
D02*
G37*
G36*
X470750Y341093D02*
Y334077D01*
X465797Y330222D01*
X461404Y330998D01*
X459121Y335705D01*
X458834Y336484D01*
X459533Y340000D01*
X459305Y341148D01*
X465000Y346843D01*
X470750Y341093D01*
D02*
G37*
G36*
X311352Y386193D02*
X313786Y385708D01*
X317083Y380351D01*
X316763Y379370D01*
X312702Y375084D01*
X311270Y375272D01*
Y365000D01*
Y354728D01*
X312702Y354916D01*
X315220Y355959D01*
X315595Y356248D01*
X319750Y352093D01*
Y351270D01*
X328000D01*
Y350000D01*
X329270D01*
Y341750D01*
X336250D01*
Y342750D01*
X349250D01*
Y357250D01*
X346354D01*
Y367750D01*
X349250D01*
Y376093D01*
X358803Y385646D01*
X377750D01*
Y382750D01*
Y368750D01*
X378646D01*
Y347249D01*
X375749D01*
Y332749D01*
X392411D01*
Y324588D01*
X301901D01*
X289588Y336900D01*
Y383100D01*
X294239Y387750D01*
X309021D01*
X311352Y386193D01*
D02*
G37*
G36*
X800646Y355748D02*
Y332500D01*
X800978Y330834D01*
X801095Y330658D01*
X800467Y327500D01*
X796250Y323205D01*
X792033Y327500D01*
X791308Y331148D01*
X789241Y334241D01*
X791106Y340211D01*
X791522Y340834D01*
X791854Y342500D01*
Y355772D01*
X797854Y358369D01*
X800646Y355748D01*
D02*
G37*
G36*
X911488Y338800D02*
X911935Y335406D01*
X913244Y332244D01*
X915328Y329528D01*
X915725Y324315D01*
X914708Y322942D01*
X913644Y321556D01*
X912732Y319354D01*
X888374D01*
X885640Y325354D01*
X886308Y326352D01*
X886482Y327230D01*
X890547Y330538D01*
X892862Y330892D01*
X895000Y330467D01*
X898648Y331193D01*
X901741Y333259D01*
X903808Y336352D01*
X904533Y340000D01*
X907615Y342442D01*
X911488Y338800D01*
D02*
G37*
G36*
X401263Y369630D02*
X402528Y365646D01*
X401193Y363648D01*
X400467Y360000D01*
X401193Y356352D01*
X403259Y353259D01*
X403274Y353249D01*
X401454Y347249D01*
X387353D01*
Y368750D01*
X392250D01*
Y371646D01*
X399870D01*
X401263Y369630D01*
D02*
G37*
G36*
X818146Y355602D02*
Y343561D01*
X812450Y339784D01*
X809354Y341420D01*
Y356527D01*
X812146Y358611D01*
X818146Y355602D01*
D02*
G37*
G36*
X772500Y372967D02*
X773354Y373137D01*
X778137Y368354D01*
X777967Y367500D01*
X778692Y363852D01*
X780759Y360759D01*
X783146Y359164D01*
Y344303D01*
X779421Y340578D01*
X778478Y339166D01*
X778146Y337500D01*
Y335836D01*
X776242Y334563D01*
X775384Y334241D01*
X769241D01*
X766148Y336307D01*
X762500Y337033D01*
X759354Y342525D01*
Y366664D01*
X761741Y368259D01*
X763808Y371352D01*
X768852Y373693D01*
X772500Y372967D01*
D02*
G37*
G36*
X883685Y275158D02*
X879860Y270498D01*
X878648Y271308D01*
X875000Y272033D01*
X871352Y271308D01*
X868259Y269241D01*
X866192Y266148D01*
X865467Y262500D01*
X866192Y258852D01*
X868259Y255759D01*
X871352Y253692D01*
X875000Y252967D01*
X878648Y253692D01*
X881741Y255759D01*
X883336Y258146D01*
X913436D01*
X913644Y257644D01*
X915576Y255127D01*
X915728Y254863D01*
Y248137D01*
X915576Y247873D01*
X913644Y245356D01*
X912335Y242194D01*
X911888Y238800D01*
X912335Y235406D01*
X913644Y232244D01*
X915576Y229727D01*
X915728Y229463D01*
Y222737D01*
X915576Y222473D01*
X913644Y219956D01*
X912732Y217754D01*
X880903D01*
X835579Y263078D01*
X834166Y264022D01*
X832500Y264354D01*
X800836D01*
X799241Y266741D01*
X796148Y268808D01*
X792500Y269533D01*
X788852Y268808D01*
X785759Y266741D01*
X783692Y263648D01*
X782967Y260000D01*
X783671Y256458D01*
X783269Y255637D01*
X779647Y251606D01*
X777500Y252033D01*
X773852Y251308D01*
X770759Y249241D01*
X768692Y246148D01*
X768142Y243380D01*
X764894Y241474D01*
X762230Y240585D01*
X761148Y241308D01*
X757500Y242033D01*
X753852Y241308D01*
X750759Y239241D01*
X748692Y236148D01*
X747967Y232500D01*
X748692Y228852D01*
X750759Y225759D01*
X753852Y223692D01*
X757500Y222967D01*
X760316Y223527D01*
X824322Y159522D01*
X825734Y158578D01*
X827400Y158246D01*
X912732D01*
X913644Y156044D01*
X915728Y153328D01*
X918444Y151244D01*
X921606Y149935D01*
X925000Y149488D01*
X928394Y149935D01*
X931556Y151244D01*
X934073Y153176D01*
X934337Y153328D01*
X941063D01*
X941327Y153176D01*
X943844Y151244D01*
X947006Y149935D01*
X950400Y149488D01*
X953794Y149935D01*
X956956Y151244D01*
X959672Y153328D01*
X961756Y156044D01*
X963065Y159206D01*
X963512Y162600D01*
X963065Y165994D01*
X961756Y169156D01*
X959824Y171673D01*
X959672Y171937D01*
Y178663D01*
X959824Y178927D01*
X961756Y181444D01*
X962668Y183646D01*
X980500D01*
X982166Y183978D01*
X983578Y184921D01*
X991500Y192843D01*
X997500Y190358D01*
Y2500D01*
X86889D01*
X84657Y8500D01*
X146803Y70646D01*
X268197D01*
X306922Y31922D01*
X308334Y30978D01*
X310000Y30646D01*
X425000D01*
X426666Y30978D01*
X428078Y31922D01*
X459858Y63701D01*
X460228Y63827D01*
X466395Y63895D01*
X466395D01*
X468049Y62790D01*
X468049Y62790D01*
X468378Y62725D01*
X470000Y62402D01*
X473591Y57219D01*
Y11650D01*
X473824Y10480D01*
X474487Y9487D01*
X475480Y8824D01*
X476650Y8591D01*
X656650D01*
X657821Y8824D01*
X658813Y9487D01*
X659476Y10480D01*
X659709Y11650D01*
Y74650D01*
X659476Y75820D01*
X658813Y76813D01*
X657821Y77476D01*
X656650Y77709D01*
X484797D01*
X484147Y78071D01*
X480098Y82500D01*
X479710Y84451D01*
X478791Y85826D01*
X478605Y86105D01*
X476951Y87210D01*
X475000Y87598D01*
X470254Y90800D01*
X469354Y91957D01*
Y163197D01*
X536803Y230646D01*
X605000D01*
X606666Y230978D01*
X608078Y231922D01*
X641803Y265646D01*
X676664D01*
X678259Y263259D01*
X681352Y261192D01*
X685000Y260467D01*
X688648Y261192D01*
X691741Y263259D01*
X693808Y266352D01*
X694533Y270000D01*
X694893Y274219D01*
X698648Y276192D01*
X701741Y278259D01*
X703808Y281352D01*
X703884Y281735D01*
X707677Y285352D01*
X710314Y285646D01*
X873197D01*
X883685Y275158D01*
D02*
G37*
G36*
X608259Y278259D02*
X611352Y276192D01*
X615000Y275467D01*
X616029Y275672D01*
X618985Y270142D01*
X598197Y249354D01*
X525000D01*
X523747Y249104D01*
X523386Y249368D01*
X521558Y255401D01*
X544649Y278492D01*
X551160Y276517D01*
X551193Y276352D01*
X553259Y273259D01*
X556352Y271192D01*
X560000Y270467D01*
X563648Y271192D01*
X566741Y273259D01*
X568807Y276352D01*
X569533Y280000D01*
X570064Y280646D01*
X606664D01*
X608259Y278259D01*
D02*
G37*
G36*
X832709Y250480D02*
X831614Y246868D01*
X831254Y246604D01*
X830000Y246854D01*
X804400D01*
X801409Y252854D01*
X803513Y255646D01*
X828526D01*
X832709Y250480D01*
D02*
G37*
G36*
X670588Y274646D02*
X670400Y274354D01*
X650895D01*
X647688Y280354D01*
X647884Y280646D01*
X667314D01*
X670588Y274646D01*
D02*
G37*
G36*
X861921Y326922D02*
X863334Y325978D01*
X863757Y325354D01*
X860578Y319354D01*
X843374D01*
X840641Y325354D01*
X841308Y326352D01*
X842033Y330000D01*
X841308Y333648D01*
X839241Y336741D01*
X836148Y338807D01*
X832500Y339533D01*
X826854Y344139D01*
Y353706D01*
X829180Y355182D01*
X832854Y355989D01*
X861921Y326922D01*
D02*
G37*
G36*
X586922Y296922D02*
X588334Y295978D01*
X590000Y295646D01*
X597313D01*
X600588Y289646D01*
X600400Y289354D01*
X565000D01*
X563334Y289022D01*
X563158Y288905D01*
X560000Y289533D01*
X556352Y288808D01*
X555354Y288141D01*
X549354Y290874D01*
Y326650D01*
X554897Y328946D01*
X586922Y296922D01*
D02*
G37*
G36*
X680588Y289646D02*
X680400Y289354D01*
X640000D01*
X638334Y289022D01*
X636922Y288078D01*
X629858Y281015D01*
X624328Y283971D01*
X624533Y285000D01*
X623807Y288648D01*
X623140Y289646D01*
X625874Y295646D01*
X677314D01*
X680588Y289646D01*
D02*
G37*
G36*
X596352Y656192D02*
X600000Y655467D01*
X601029Y655672D01*
X603985Y650142D01*
X585239Y631396D01*
X581741Y631741D01*
X578648Y633807D01*
X575000Y634533D01*
X571352Y633807D01*
X570354Y633140D01*
X564354Y635874D01*
Y650926D01*
X567032Y652818D01*
X573259Y653259D01*
X576352Y651192D01*
X580000Y650467D01*
X583648Y651192D01*
X586741Y653259D01*
X588062Y655237D01*
X590259Y656514D01*
X595065Y657053D01*
X596352Y656192D01*
D02*
G37*
G36*
X785632Y641614D02*
X785896Y641253D01*
X785646Y640000D01*
Y626464D01*
X785391Y626308D01*
X778808Y628648D01*
X776741Y631741D01*
X775406Y632633D01*
X775014Y638857D01*
X779600Y643443D01*
X785632Y641614D01*
D02*
G37*
G36*
X655705Y763269D02*
X656712Y759870D01*
X565355Y668512D01*
X562384Y669271D01*
X559338Y670980D01*
X558807Y673648D01*
X556741Y676741D01*
X553648Y678808D01*
X550000Y679533D01*
X546352Y678808D01*
X543259Y676741D01*
X541193Y673648D01*
X540467Y670000D01*
X541193Y666352D01*
X542947Y663726D01*
X543173Y662809D01*
X542959Y661683D01*
X536472Y659685D01*
X534354Y661803D01*
Y687312D01*
X536088Y688598D01*
X543259Y688259D01*
X546352Y686192D01*
X550000Y685467D01*
X553648Y686192D01*
X556741Y688259D01*
X558807Y691352D01*
X559533Y695000D01*
X558807Y698648D01*
X557204Y701047D01*
X591803Y735646D01*
X605000D01*
X606666Y735978D01*
X608078Y736921D01*
X626803Y755646D01*
X635000D01*
X636666Y755978D01*
X638078Y756921D01*
X646803Y765646D01*
X654004D01*
X655705Y763269D01*
D02*
G37*
G36*
X720646Y690405D02*
Y660249D01*
X714646Y657042D01*
X714354Y657238D01*
Y693717D01*
X714646Y693885D01*
X720646Y690405D01*
D02*
G37*
G36*
X769183Y653825D02*
X771452Y647609D01*
X766921Y643079D01*
X765978Y641666D01*
X765646Y640000D01*
Y633336D01*
X763259Y631741D01*
X761192Y628648D01*
X760533Y625332D01*
X759066Y624473D01*
X754775Y622860D01*
X751833Y625721D01*
X753483Y631160D01*
X753648Y631193D01*
X756741Y633259D01*
X758808Y636352D01*
X759533Y640000D01*
X758808Y643648D01*
X757204Y646047D01*
X765461Y654304D01*
X769183Y653825D01*
D02*
G37*
G36*
X652627Y580222D02*
X653600Y578911D01*
X653258Y571740D01*
X652486Y570585D01*
X651577Y570015D01*
X646455Y568959D01*
X645220Y569041D01*
X644133Y569491D01*
X642481Y573806D01*
X642340Y576183D01*
X646639Y580482D01*
X652627Y580222D01*
D02*
G37*
G36*
X811352Y576193D02*
X815000Y575467D01*
X816029Y575672D01*
X818985Y570142D01*
X813197Y564354D01*
X805874D01*
X803141Y570354D01*
X803808Y571352D01*
X804358Y574120D01*
X807606Y576026D01*
X810270Y576916D01*
X811352Y576193D01*
D02*
G37*
G36*
X873259Y598259D02*
X873598Y591088D01*
X872312Y589354D01*
X858996D01*
X856511Y595354D01*
X861803Y600646D01*
X871664D01*
X873259Y598259D01*
D02*
G37*
G36*
X910854Y582551D02*
X911600Y579847D01*
Y571754D01*
X896396D01*
X893911Y577754D01*
X901803Y585646D01*
X909781D01*
X910854Y582551D01*
D02*
G37*
G36*
X886500Y745000D02*
X886500D01*
Y730098D01*
X879091D01*
X879041Y730220D01*
X877382Y732382D01*
X875220Y734041D01*
X872702Y735084D01*
X871270Y735272D01*
Y725000D01*
Y714728D01*
X872702Y714916D01*
X875220Y715959D01*
X877382Y717618D01*
X879041Y719780D01*
X879091Y719902D01*
X886500D01*
Y717000D01*
X902902D01*
Y703500D01*
X894000D01*
Y696500D01*
X893000D01*
Y691642D01*
X887000Y689157D01*
X883079Y693079D01*
X881666Y694022D01*
X880000Y694354D01*
X855000D01*
X853334Y694022D01*
X851921Y693079D01*
X843197Y684354D01*
X795632D01*
X793966Y684022D01*
X792553Y683079D01*
X773828Y664354D01*
X765000D01*
X763334Y664022D01*
X761921Y663079D01*
X747973Y649130D01*
X746352Y648808D01*
X743259Y646741D01*
X741192Y643648D01*
X741160Y643483D01*
X734649Y641508D01*
X729354Y646803D01*
Y693197D01*
X756803Y720646D01*
X805000D01*
X806666Y720978D01*
X808079Y721921D01*
X823078Y736921D01*
X823079Y736921D01*
X824022Y738334D01*
X824354Y740000D01*
Y742750D01*
X827250D01*
Y745646D01*
X855000D01*
X856666Y745978D01*
X858079Y746921D01*
X861803Y750646D01*
X885646D01*
X886500Y745000D01*
D02*
G37*
G36*
X752750Y877750D02*
X755412D01*
Y800000D01*
X755761Y798244D01*
X756756Y796756D01*
X792756Y760756D01*
X794244Y759761D01*
X796000Y759412D01*
X812750D01*
Y742750D01*
X812750D01*
X811225Y737382D01*
X803197Y729354D01*
X755000D01*
X753746Y729104D01*
X753386Y729368D01*
X751557Y735400D01*
X753079Y736921D01*
X754022Y738334D01*
X754354Y740000D01*
Y766664D01*
X756741Y768259D01*
X758808Y771352D01*
X759533Y775000D01*
X758808Y778648D01*
X756741Y781741D01*
X753648Y783808D01*
X750000Y784533D01*
X746352Y783808D01*
X743259Y781741D01*
X741192Y778648D01*
X740467Y775000D01*
X741192Y771352D01*
X743259Y768259D01*
X745646Y766664D01*
Y741803D01*
X706921Y703079D01*
X705978Y701666D01*
X705646Y700000D01*
Y653996D01*
X699646Y651511D01*
X663079Y688079D01*
X661666Y689022D01*
X660000Y689354D01*
X645000D01*
X643334Y689022D01*
X641921Y688079D01*
X617365Y663522D01*
X611065Y665707D01*
X610575Y669418D01*
X671803Y730646D01*
X686664D01*
X688259Y728259D01*
X691352Y726192D01*
X695000Y725467D01*
X698648Y726192D01*
X701741Y728259D01*
X703808Y731352D01*
X704533Y735000D01*
X703808Y738648D01*
X701741Y741741D01*
X698648Y743808D01*
X695000Y744533D01*
X691352Y743808D01*
X688259Y741741D01*
X686664Y739354D01*
X670000D01*
X668746Y739104D01*
X668386Y739368D01*
X666557Y745400D01*
X676803Y755646D01*
X710000D01*
X711666Y755978D01*
X713079Y756921D01*
X723079Y766921D01*
X724022Y768334D01*
X724354Y770000D01*
Y791000D01*
X737000D01*
Y809000D01*
X706500D01*
Y810000D01*
X703354D01*
Y842197D01*
X711432Y850275D01*
X712298Y849916D01*
X713730Y849728D01*
Y858730D01*
X704728D01*
X704916Y857298D01*
X705275Y856432D01*
X695921Y847078D01*
X694978Y845666D01*
X694646Y844000D01*
Y835384D01*
X689097Y833801D01*
X688646Y833889D01*
X686741Y836741D01*
X684588Y838179D01*
Y858100D01*
X706900Y880412D01*
X752750D01*
Y877750D01*
D02*
G37*
G36*
X326922Y851921D02*
X328334Y850978D01*
X330000Y850646D01*
X378197D01*
X465646Y763197D01*
Y754250D01*
X462750D01*
Y739750D01*
Y725750D01*
X465646D01*
Y720000D01*
X465978Y718334D01*
X466922Y716921D01*
X475646Y708197D01*
Y688996D01*
X469646Y686511D01*
X435988Y720169D01*
X436691Y721867D01*
X437104Y725000D01*
X436691Y728133D01*
X435482Y731052D01*
X433559Y733559D01*
X431052Y735482D01*
X428133Y736691D01*
X425000Y737104D01*
X421867Y736691D01*
X418948Y735482D01*
X416441Y733559D01*
X414518Y731052D01*
X413309Y728133D01*
X412896Y725000D01*
X413309Y721867D01*
X414518Y718948D01*
X416441Y716441D01*
X418948Y714518D01*
X421867Y713309D01*
X425000Y712896D01*
X428133Y713309D01*
X429831Y714012D01*
X465646Y678197D01*
Y630000D01*
X465978Y628334D01*
X466922Y626922D01*
X493685Y600158D01*
X489860Y595498D01*
X488648Y596307D01*
X485000Y597033D01*
X481352Y596307D01*
X478259Y594241D01*
X476193Y591148D01*
X476160Y590983D01*
X469649Y589008D01*
X451854Y606803D01*
Y662500D01*
X451522Y664166D01*
X450578Y665579D01*
X396753Y719404D01*
X397665Y721606D01*
X397945Y723730D01*
X386270D01*
Y712055D01*
X388394Y712335D01*
X390596Y713247D01*
X443146Y660697D01*
Y612548D01*
X437146Y610063D01*
X317598Y729612D01*
Y765000D01*
X317210Y766951D01*
X316105Y768605D01*
X247398Y837312D01*
Y845122D01*
X253398Y849666D01*
X254700Y849300D01*
Y849300D01*
X280700D01*
Y857946D01*
X320897D01*
X326922Y851921D01*
D02*
G37*
G36*
X997500Y599642D02*
X991500Y597157D01*
X980579Y608078D01*
X979166Y609022D01*
X977500Y609354D01*
X925000D01*
X923334Y609022D01*
X921921Y608078D01*
X914858Y601015D01*
X909328Y603971D01*
X909533Y605000D01*
X908808Y608648D01*
X906741Y611741D01*
X904857Y613000D01*
X905958Y619000D01*
X906730D01*
Y633000D01*
Y647000D01*
X886500D01*
Y646755D01*
X885000Y645439D01*
X882298Y645084D01*
X879780Y644041D01*
X877618Y642382D01*
X875959Y640220D01*
X874916Y637702D01*
X874728Y636270D01*
X885000D01*
Y633730D01*
X874728D01*
X874916Y632298D01*
X875959Y629780D01*
X877618Y627618D01*
X879780Y625959D01*
X882298Y624916D01*
X885000Y624561D01*
X886500Y623245D01*
Y619000D01*
X887823D01*
X890491Y613000D01*
X889356Y611741D01*
X886741D01*
X883648Y613807D01*
X880000Y614533D01*
X876352Y613807D01*
X873259Y611741D01*
X871664Y609354D01*
X860000D01*
X858334Y609022D01*
X856921Y608078D01*
X829858Y581015D01*
X824328Y583971D01*
X824533Y585000D01*
X823808Y588648D01*
X821741Y591741D01*
X818648Y593807D01*
X815000Y594533D01*
X811352Y593807D01*
X808259Y591741D01*
X802289Y593606D01*
X801666Y594022D01*
X800000Y594354D01*
X781803D01*
X766015Y610142D01*
X768971Y615672D01*
X770000Y615467D01*
X773648Y616193D01*
X775304Y617299D01*
X780561Y614583D01*
X780830Y614324D01*
X780467Y612500D01*
X781192Y608852D01*
X783259Y605759D01*
X786352Y603693D01*
X790000Y602967D01*
X793648Y603693D01*
X796741Y605759D01*
X798808Y608852D01*
X799533Y612500D01*
X798808Y616148D01*
X796741Y619241D01*
X794354Y620836D01*
Y638197D01*
X811803Y655646D01*
X865000D01*
X866666Y655978D01*
X866842Y656095D01*
X870000Y655467D01*
X873648Y656192D01*
X876741Y658259D01*
X878507Y660902D01*
X894000D01*
Y660500D01*
X922000D01*
Y668500D01*
Y676500D01*
Y683500D01*
X923000D01*
Y688730D01*
X908000D01*
Y691270D01*
X923000D01*
Y696500D01*
X922000D01*
Y703500D01*
X913098D01*
Y717000D01*
X929500D01*
Y717000D01*
X935000D01*
X936066Y711442D01*
X936077Y711000D01*
X934232Y709768D01*
X932464Y707121D01*
X931843Y704000D01*
X932464Y700879D01*
X934232Y698232D01*
X936879Y696464D01*
X940000Y695843D01*
X943121Y696464D01*
X945768Y698232D01*
X947536Y700879D01*
X947902Y702720D01*
X953902Y702129D01*
Y661871D01*
X947902Y661280D01*
X947536Y663121D01*
X945768Y665768D01*
X943121Y667536D01*
X940000Y668157D01*
X936879Y667536D01*
X934232Y665768D01*
X932464Y663121D01*
X931843Y660000D01*
X932464Y656879D01*
X934232Y654232D01*
X936077Y653000D01*
X936066Y652558D01*
X935000Y647000D01*
X929500D01*
Y647000D01*
X909270D01*
Y633000D01*
Y619000D01*
X929500D01*
Y619000D01*
X935000D01*
Y619000D01*
X957730D01*
Y633000D01*
X959000D01*
Y634270D01*
X983000D01*
Y647000D01*
X964098D01*
Y717000D01*
X983000D01*
Y729730D01*
X959000D01*
Y732270D01*
X983000D01*
Y745000D01*
X974888D01*
X971097Y750929D01*
X972347Y753646D01*
X978000D01*
X979666Y753978D01*
X981078Y754921D01*
X988079Y761921D01*
X989022Y763334D01*
X989354Y765000D01*
Y805000D01*
X989022Y806666D01*
X988079Y808079D01*
X963869Y832288D01*
X963954Y832930D01*
X951270D01*
Y820246D01*
X953655Y820560D01*
X957060Y821971D01*
X959783Y824060D01*
X980646Y803197D01*
Y766803D01*
X976197Y762354D01*
X968250D01*
Y766250D01*
X967250D01*
Y779250D01*
X964354D01*
Y795000D01*
X964022Y796666D01*
X963079Y798079D01*
X958079Y803079D01*
X956666Y804022D01*
X955000Y804354D01*
X941803D01*
X929354Y816803D01*
Y858197D01*
X944404Y873247D01*
X946606Y872335D01*
X950000Y871888D01*
X953394Y872335D01*
X956556Y873644D01*
X959272Y875728D01*
X961356Y878444D01*
X962665Y881606D01*
X963112Y885000D01*
X962665Y888394D01*
X961356Y891556D01*
X959272Y894272D01*
X956556Y896356D01*
X953394Y897665D01*
X950000Y898112D01*
X946606Y897665D01*
X943444Y896356D01*
X940728Y894272D01*
X938644Y891556D01*
X937335Y888394D01*
X936888Y885000D01*
X937335Y881606D01*
X938247Y879404D01*
X921921Y863079D01*
X920978Y861666D01*
X920646Y860000D01*
Y815000D01*
X920978Y813334D01*
X921921Y811921D01*
X936921Y796921D01*
X938334Y795978D01*
X940000Y795646D01*
X953197D01*
X955646Y793197D01*
Y779250D01*
X952750D01*
Y776354D01*
X937000D01*
X935334Y776022D01*
X933922Y775079D01*
X918197Y759354D01*
X883026D01*
X883025Y765353D01*
X887463Y765938D01*
X891598Y767651D01*
X895150Y770376D01*
X897875Y773927D01*
X899587Y778062D01*
X900172Y782500D01*
Y804500D01*
X899587Y808938D01*
X897875Y813073D01*
X895150Y816625D01*
X891598Y819350D01*
X887463Y821062D01*
X883025Y821647D01*
X871025D01*
X866587Y821062D01*
X862452Y819350D01*
X858901Y816625D01*
X856176Y813073D01*
X854463Y808938D01*
X853878Y804500D01*
Y782500D01*
X854463Y778062D01*
X856176Y773927D01*
X858901Y770376D01*
X862452Y767651D01*
X866587Y765938D01*
X871025Y765353D01*
X871024Y759354D01*
X860000D01*
X858334Y759022D01*
X856921Y758079D01*
X853197Y754354D01*
X827250D01*
Y771250D01*
X812750D01*
Y768588D01*
X797900D01*
X776429Y790060D01*
X779385Y795589D01*
X780000Y795467D01*
X783648Y796192D01*
X786741Y798259D01*
X788808Y801352D01*
X789533Y805000D01*
X788808Y808648D01*
X786741Y811741D01*
X784354Y813336D01*
Y815000D01*
X784022Y816666D01*
X783079Y818079D01*
X778354Y822803D01*
Y877750D01*
X781250D01*
Y880646D01*
X788507D01*
X789419Y878444D01*
X790753Y876706D01*
X791478Y875512D01*
X790871Y870283D01*
X790369Y869036D01*
X788546Y866660D01*
X787135Y863255D01*
X786821Y860870D01*
X800775D01*
X814729D01*
X814415Y863255D01*
X813004Y866660D01*
X811181Y869036D01*
X810679Y870283D01*
X810072Y875512D01*
X810797Y876706D01*
X812131Y878444D01*
X813440Y881606D01*
X813887Y885000D01*
X813440Y888394D01*
X812131Y891556D01*
X810047Y894272D01*
X807331Y896356D01*
X804169Y897665D01*
X800775Y898112D01*
X797381Y897665D01*
X794219Y896356D01*
X791503Y894272D01*
X789419Y891556D01*
X788507Y889354D01*
X781250D01*
Y892250D01*
X752750D01*
Y889588D01*
X705000D01*
X703244Y889239D01*
X701756Y888244D01*
X676756Y863244D01*
X675761Y861756D01*
X675412Y860000D01*
Y838179D01*
X673259Y836741D01*
X671192Y833648D01*
X670467Y830000D01*
X671192Y826352D01*
X672412Y824527D01*
Y809000D01*
X637500D01*
Y809000D01*
X633500Y809059D01*
X623500D01*
X622329Y808826D01*
X621337Y808163D01*
X620674Y807170D01*
X620441Y806000D01*
Y799276D01*
X615000Y794533D01*
X611352Y793808D01*
X608259Y791741D01*
X606193Y788648D01*
X605467Y785000D01*
X606193Y781352D01*
X606859Y780354D01*
X604126Y774354D01*
X590000D01*
X588334Y774022D01*
X586922Y773079D01*
X539897Y726054D01*
X534354Y728350D01*
Y785000D01*
X534022Y786666D01*
X533078Y788079D01*
X393400Y927757D01*
Y938000D01*
X367400D01*
X367400Y938000D01*
X361556Y936356D01*
X358394Y937665D01*
X355000Y938112D01*
X351606Y937665D01*
X348444Y936356D01*
X345927Y934424D01*
X345925Y934423D01*
X345587Y934272D01*
X339013D01*
X338675Y934423D01*
X338673Y934424D01*
X336156Y936356D01*
X332994Y937665D01*
X329600Y938112D01*
X326206Y937665D01*
X323044Y936356D01*
X320328Y934272D01*
X318244Y931556D01*
X316935Y928394D01*
X316488Y925000D01*
X316935Y921606D01*
X318244Y918444D01*
X320328Y915728D01*
X323044Y913644D01*
X325246Y912732D01*
Y910400D01*
X325578Y908734D01*
X326521Y907321D01*
X351922Y881921D01*
X353334Y880978D01*
X355000Y880646D01*
X378197D01*
X505646Y753197D01*
Y731803D01*
X488944Y715100D01*
X485000Y713741D01*
X481056Y715100D01*
X476407Y719750D01*
X477250Y725750D01*
X477250D01*
Y739750D01*
Y754250D01*
X474354D01*
Y765000D01*
X474022Y766666D01*
X473078Y768079D01*
X383078Y858079D01*
X381666Y859022D01*
X380000Y859354D01*
X331803D01*
X325779Y865378D01*
X324366Y866322D01*
X322700Y866654D01*
X280700D01*
Y875300D01*
X280700Y875300D01*
X279056Y881144D01*
X280365Y884306D01*
X280812Y887700D01*
X280365Y891094D01*
X279056Y894256D01*
X276972Y896972D01*
X274256Y899055D01*
X271094Y900365D01*
X267700Y900812D01*
X264306Y900365D01*
X261144Y899055D01*
X259407Y897722D01*
X258212Y896997D01*
X252983Y897604D01*
X251736Y898106D01*
X249360Y899929D01*
X246654Y901050D01*
Y902200D01*
X246322Y903866D01*
X245378Y905278D01*
X222750Y927907D01*
Y928730D01*
X215770D01*
Y921750D01*
X216593D01*
X233217Y905126D01*
X232315Y897685D01*
X230071Y894760D01*
X228660Y891355D01*
X228346Y888970D01*
X242300D01*
Y886430D01*
X228346D01*
X228660Y884045D01*
X230071Y880640D01*
X231894Y878264D01*
X232396Y877017D01*
X233003Y871788D01*
X232278Y870593D01*
X230944Y868856D01*
X229635Y865694D01*
X229188Y862300D01*
X229635Y858906D01*
X230944Y855744D01*
X233028Y853028D01*
X235744Y850945D01*
X237202Y850341D01*
Y835200D01*
X237590Y833249D01*
X238695Y831595D01*
X307402Y762888D01*
Y727500D01*
X307790Y725549D01*
X308895Y723895D01*
X470094Y562696D01*
X469036Y555415D01*
X467987Y554878D01*
X466178Y554617D01*
X463648Y556307D01*
X460000Y557033D01*
X456352Y556307D01*
X451307Y558648D01*
X449241Y561741D01*
X446148Y563807D01*
X442500Y564533D01*
X438852Y563807D01*
X435759Y561741D01*
X433693Y558648D01*
X432967Y555000D01*
X430000Y552033D01*
X426352Y551307D01*
X423259Y549241D01*
X421193Y546148D01*
X420467Y542500D01*
X421193Y538852D01*
X423259Y535759D01*
X426352Y533693D01*
X430000Y532967D01*
X432816Y533527D01*
X440646Y525697D01*
Y515354D01*
X440582Y514901D01*
X440229Y514359D01*
X437868Y513899D01*
X431998Y518684D01*
Y521002D01*
X407998D01*
Y521002D01*
X404722Y521414D01*
X404527Y521697D01*
X401485Y527245D01*
X402033Y530000D01*
X401307Y533648D01*
X399241Y536741D01*
X396854Y538336D01*
Y557500D01*
X396522Y559166D01*
X395578Y560578D01*
X393973Y562184D01*
X394533Y565000D01*
X393807Y568648D01*
X391741Y571741D01*
X388648Y573807D01*
X385000Y574533D01*
X381352Y573807D01*
X378259Y571741D01*
X376193Y568648D01*
X375467Y565000D01*
X376193Y561352D01*
X378259Y558259D01*
X381352Y556193D01*
X385000Y555467D01*
X388146Y549975D01*
Y538336D01*
X385759Y536741D01*
X383693Y533648D01*
X382967Y530000D01*
X383315Y528250D01*
X381471Y525132D01*
X376250Y523250D01*
X376250Y523250D01*
X376250Y523250D01*
X369270D01*
Y515000D01*
X368000D01*
Y513730D01*
X359750D01*
Y506750D01*
X363646D01*
Y498250D01*
X359750D01*
Y491854D01*
X341000D01*
X339334Y491522D01*
X337921Y490578D01*
X329921Y482579D01*
X328978Y481166D01*
X328646Y479500D01*
Y473250D01*
X324750D01*
Y473108D01*
X311243D01*
X309882Y474882D01*
X307720Y476541D01*
X305202Y477584D01*
X303770Y477772D01*
Y467500D01*
Y457228D01*
X305202Y457416D01*
X307720Y458459D01*
X309882Y460118D01*
X311243Y461892D01*
X324750D01*
Y456750D01*
X328646D01*
Y443250D01*
X324750D01*
Y436270D01*
X333000D01*
Y433730D01*
X324750D01*
Y426750D01*
X319743Y424354D01*
X280000D01*
X278334Y424022D01*
X276922Y423078D01*
X261922Y408078D01*
X261654Y407678D01*
X256588Y407825D01*
X255311Y408162D01*
X254354Y409331D01*
Y785000D01*
X254022Y786666D01*
X253078Y788079D01*
X214354Y826803D01*
Y849475D01*
X214022Y851141D01*
X213078Y852553D01*
X189728Y875904D01*
X190640Y878106D01*
X191087Y881500D01*
X190640Y884894D01*
X189331Y888056D01*
X187247Y890772D01*
X184531Y892856D01*
X182329Y893768D01*
Y905672D01*
X199407Y922750D01*
X206250D01*
Y921750D01*
X213230D01*
Y930000D01*
Y938250D01*
X206250D01*
Y937250D01*
X193250D01*
Y928907D01*
X174897Y910554D01*
X173953Y909141D01*
X173621Y907475D01*
Y893768D01*
X171419Y892856D01*
X168703Y890772D01*
X166619Y888056D01*
X165310Y884894D01*
X164863Y881500D01*
X165310Y878106D01*
X166619Y874944D01*
X168703Y872228D01*
X171419Y870145D01*
X174581Y868835D01*
X177975Y868388D01*
X181369Y868835D01*
X183571Y869747D01*
X205646Y847672D01*
Y825000D01*
X205978Y823334D01*
X206922Y821921D01*
X245646Y783197D01*
Y460874D01*
X239646Y458140D01*
X238648Y458807D01*
X235000Y459533D01*
X231352Y458807D01*
X228259Y456741D01*
X226192Y453648D01*
X225467Y450000D01*
X226192Y446352D01*
X228259Y443259D01*
X228778Y439306D01*
X228446Y437640D01*
Y364185D01*
X226748Y363482D01*
X224242Y361558D01*
X222318Y359052D01*
X221109Y356133D01*
X220697Y353000D01*
Y347000D01*
X221109Y343867D01*
X222318Y340948D01*
X224242Y338442D01*
X226748Y336518D01*
X229667Y335309D01*
X232800Y334897D01*
X235933Y335309D01*
X238852Y336518D01*
X241359Y338442D01*
X243282Y340948D01*
X244491Y343867D01*
X244904Y347000D01*
Y353000D01*
X244491Y356133D01*
X243282Y359052D01*
X241359Y361558D01*
X238852Y363482D01*
X237154Y364185D01*
Y386597D01*
X243154Y388417D01*
X243259Y388259D01*
X246352Y386193D01*
X250000Y385467D01*
X253648Y386193D01*
X254646Y386859D01*
X260646Y384126D01*
Y341803D01*
X76922Y158078D01*
X75978Y156666D01*
X75445Y156370D01*
X69328Y158934D01*
X68832Y159556D01*
X67629Y162460D01*
X65385Y165385D01*
X65109Y167760D01*
X65465Y172563D01*
X66755Y174244D01*
X68065Y177406D01*
X68512Y180800D01*
X68065Y184194D01*
X66755Y187356D01*
X64672Y190072D01*
X61956Y192155D01*
X58794Y193465D01*
X55400Y193912D01*
X52006Y193465D01*
X48844Y192155D01*
X46327Y190224D01*
X46063Y190072D01*
X39337D01*
X39073Y190224D01*
X36556Y192155D01*
X33394Y193465D01*
X30000Y193912D01*
X26606Y193465D01*
X23444Y192155D01*
X20728Y190072D01*
X18644Y187356D01*
X17335Y184194D01*
X16888Y180800D01*
X17335Y177406D01*
X18644Y174244D01*
X19935Y172563D01*
X20291Y167760D01*
X20015Y165385D01*
X17771Y162460D01*
X16360Y159055D01*
X16046Y156670D01*
X30000D01*
Y154130D01*
X16046D01*
X16360Y151745D01*
X17771Y148340D01*
X20015Y145415D01*
X20291Y143040D01*
X19935Y138237D01*
X18644Y136556D01*
X17335Y133394D01*
X16888Y130000D01*
X17335Y126606D01*
X18644Y123444D01*
X20576Y120927D01*
X20728Y120663D01*
Y113937D01*
X20576Y113673D01*
X18644Y111156D01*
X17335Y107994D01*
X16888Y104600D01*
X17335Y101206D01*
X18644Y98044D01*
X20576Y95527D01*
X20728Y95263D01*
Y88537D01*
X20576Y88273D01*
X18644Y85756D01*
X17335Y82594D01*
X16888Y79200D01*
X17335Y75806D01*
X18644Y72644D01*
X20576Y70127D01*
X20728Y69863D01*
Y63137D01*
X20576Y62873D01*
X18644Y60356D01*
X17335Y57194D01*
X16888Y53800D01*
X17335Y50406D01*
X18247Y48204D01*
X11921Y41878D01*
X10978Y40466D01*
X10646Y38800D01*
Y15000D01*
X10978Y13334D01*
X11921Y11921D01*
X15343Y8500D01*
X13111Y2500D01*
X2500D01*
Y619971D01*
X4820Y621101D01*
X8500Y621590D01*
X10015Y619615D01*
X12940Y617371D01*
X16345Y615960D01*
X18730Y615646D01*
Y629600D01*
X20000D01*
Y630870D01*
X33954D01*
X33640Y633255D01*
X32503Y636000D01*
X33000Y642000D01*
X33000Y642000D01*
Y668000D01*
X8500D01*
X7000Y668000D01*
X2500Y671621D01*
Y962500D01*
X589896D01*
X595441Y960000D01*
Y941000D01*
X595674Y939829D01*
X596337Y938837D01*
X597329Y938174D01*
X598500Y937941D01*
X611500D01*
X612671Y938174D01*
X613663Y938837D01*
X614326Y939829D01*
X614559Y941000D01*
Y960000D01*
X620104Y962500D01*
X726395D01*
X731941Y960000D01*
Y932000D01*
X732174Y930830D01*
X732837Y929837D01*
X733829Y929174D01*
X735000Y928941D01*
X745000D01*
X746171Y929174D01*
X747163Y929837D01*
X747826Y930830D01*
X748059Y932000D01*
Y960000D01*
X753605Y962500D01*
X997500D01*
Y599642D01*
D02*
G37*
G36*
X524304Y784539D02*
X523825Y780817D01*
X517609Y778548D01*
X393078Y903079D01*
X391666Y904022D01*
X390000Y904354D01*
X368752D01*
X367847Y906000D01*
X371395Y912000D01*
X393400D01*
Y912000D01*
X395835Y913008D01*
X524304Y784539D01*
D02*
G37*
G36*
X694646Y824616D02*
Y810000D01*
X691500D01*
Y809000D01*
X681588D01*
Y820783D01*
X683648Y821192D01*
X686741Y823259D01*
X688646Y826111D01*
X689097Y826199D01*
X694646Y824616D01*
D02*
G37*
G36*
X345925Y915577D02*
X345927Y915576D01*
X348444Y913644D01*
X350646Y912732D01*
Y910000D01*
X350978Y908334D01*
X351922Y906921D01*
X361922Y896921D01*
X363334Y895978D01*
X365000Y895646D01*
X388197D01*
X514304Y769539D01*
X513825Y765817D01*
X507609Y763548D01*
X383078Y888079D01*
X381666Y889022D01*
X380000Y889354D01*
X356803D01*
X338172Y907985D01*
X337876Y908816D01*
X338862Y915661D01*
X339013Y915728D01*
X345587D01*
X345925Y915577D01*
D02*
G37*
G36*
X951750Y766250D02*
Y759270D01*
X960000D01*
Y756730D01*
X951750D01*
Y749750D01*
X948732Y745000D01*
X935000D01*
Y745000D01*
X929500D01*
Y745000D01*
X922369D01*
X921666Y750978D01*
X923079Y751921D01*
X938803Y767646D01*
X946328D01*
X951750Y766250D01*
D02*
G37*
G36*
X681843Y785000D02*
X676131Y779287D01*
X672731Y780295D01*
X670354Y781996D01*
Y791000D01*
X679358D01*
X681843Y785000D01*
D02*
G37*
G36*
X691049Y780421D02*
X695117Y778899D01*
X695785Y778400D01*
X696192Y776352D01*
X698259Y773259D01*
X701352Y771192D01*
X702856Y764776D01*
X702603Y764354D01*
X681996D01*
X679511Y770354D01*
X689706Y780549D01*
X691049Y780421D01*
D02*
G37*
G36*
X563244Y522261D02*
X565000Y521912D01*
X566756Y522261D01*
X567500Y522758D01*
X568244Y522261D01*
X570000Y521912D01*
X571756Y522261D01*
X574525Y520620D01*
X576253Y513738D01*
X576193Y513648D01*
X575642Y510880D01*
X572394Y508974D01*
X569730Y508084D01*
X568648Y508807D01*
X565000Y509533D01*
X561352Y508807D01*
X558259Y506741D01*
X556193Y503648D01*
X555467Y500000D01*
X556193Y496352D01*
X558259Y493259D01*
X561352Y491193D01*
X563146Y490835D01*
Y463018D01*
X561684Y461649D01*
X557146Y459106D01*
X555000Y459533D01*
X551352Y458807D01*
X548259Y456741D01*
X547161Y455098D01*
X522112D01*
X515098Y462112D01*
Y465000D01*
Y512500D01*
X514710Y514451D01*
X513630Y516067D01*
X513844Y517101D01*
X514048Y517948D01*
X518244Y522261D01*
X520000Y521912D01*
X521756Y522261D01*
X522500Y522758D01*
X523244Y522261D01*
X525000Y521912D01*
X526756Y522261D01*
X527500Y522758D01*
X528244Y522261D01*
X530000Y521912D01*
X531756Y522261D01*
X532500Y522758D01*
X533244Y522261D01*
X535000Y521912D01*
X536756Y522261D01*
X537500Y522758D01*
X538244Y522261D01*
X540000Y521912D01*
X541756Y522261D01*
X542500Y522758D01*
X543244Y522261D01*
X545000Y521912D01*
X546756Y522261D01*
X547500Y522758D01*
X548244Y522261D01*
X550000Y521912D01*
X551756Y522261D01*
X552500Y522758D01*
X553244Y522261D01*
X555000Y521912D01*
X556756Y522261D01*
X557500Y522758D01*
X558244Y522261D01*
X560000Y521912D01*
X561756Y522261D01*
X562500Y522758D01*
X563244Y522261D01*
D02*
G37*
G36*
X655354Y551215D02*
X655645Y550819D01*
Y522884D01*
X655354Y522690D01*
X649354Y525897D01*
Y547816D01*
X654095Y551217D01*
X655354Y551215D01*
D02*
G37*
G36*
X688493Y550350D02*
X686518Y543840D01*
X686350Y543806D01*
X683258Y541740D01*
X681191Y538647D01*
X680465Y534999D01*
X680635Y534145D01*
X675853Y529362D01*
X674999Y529532D01*
X671350Y528806D01*
X670352Y528139D01*
X664352Y530873D01*
Y556663D01*
X666740Y558258D01*
X668806Y561351D01*
X668839Y561518D01*
X675350Y563493D01*
X688493Y550350D01*
D02*
G37*
G36*
X640646Y544760D02*
Y524977D01*
X638996Y522150D01*
X633756Y519779D01*
X632000Y520128D01*
X623371D01*
X621622Y522082D01*
X619596Y525382D01*
X619487Y525989D01*
X619588Y526500D01*
Y530431D01*
X628078Y538922D01*
X629022Y540334D01*
X629277Y541612D01*
X631741Y543259D01*
X633807Y546352D01*
X634646Y547208D01*
X640646Y544760D01*
D02*
G37*
G36*
X911600Y554400D02*
X911600Y554400D01*
X912176Y552354D01*
X907923Y546354D01*
X862000D01*
X860747Y546104D01*
X860386Y546368D01*
X858557Y552400D01*
X869203Y563046D01*
X911600D01*
Y554400D01*
D02*
G37*
G36*
X603244Y522261D02*
X605000Y521912D01*
X606756Y522261D01*
X612579Y520720D01*
X614484Y517152D01*
X614715Y516203D01*
X599105Y500593D01*
X598998Y500572D01*
X592767Y502741D01*
X592565Y504492D01*
X593807Y506352D01*
X594533Y510000D01*
X593807Y513648D01*
X593747Y513738D01*
X595475Y520620D01*
X598244Y522261D01*
X600000Y521912D01*
X601756Y522261D01*
X602500Y522758D01*
X603244Y522261D01*
D02*
G37*
%LPC*%
G36*
X527772Y433730D02*
X518770D01*
Y424728D01*
X520202Y424916D01*
X522720Y425959D01*
X524882Y427618D01*
X526541Y429780D01*
X527584Y432298D01*
X527772Y433730D01*
D02*
G37*
G36*
X516230D02*
X507228D01*
X507416Y432298D01*
X508459Y429780D01*
X510118Y427618D01*
X512280Y425959D01*
X514798Y424916D01*
X516230Y424728D01*
Y433730D01*
D02*
G37*
G36*
X322772Y73730D02*
X313770D01*
Y64728D01*
X315202Y64916D01*
X317720Y65959D01*
X319882Y67618D01*
X321541Y69780D01*
X322584Y72298D01*
X322772Y73730D01*
D02*
G37*
G36*
X201230Y128730D02*
X192228D01*
X192416Y127298D01*
X193459Y124780D01*
X195118Y122618D01*
X197280Y120959D01*
X199798Y119916D01*
X201230Y119728D01*
Y128730D01*
D02*
G37*
G36*
X203770Y140272D02*
Y131270D01*
X212772D01*
X212584Y132702D01*
X211541Y135220D01*
X209882Y137382D01*
X207720Y139041D01*
X205202Y140084D01*
X203770Y140272D01*
D02*
G37*
G36*
X201230D02*
X199798Y140084D01*
X197280Y139041D01*
X195118Y137382D01*
X193459Y135220D01*
X192416Y132702D01*
X192228Y131270D01*
X201230D01*
Y140272D01*
D02*
G37*
G36*
X212772Y128730D02*
X203770D01*
Y119728D01*
X205202Y119916D01*
X207720Y120959D01*
X209882Y122618D01*
X211541Y124780D01*
X212584Y127298D01*
X212772Y128730D01*
D02*
G37*
G36*
X313770Y85272D02*
Y76270D01*
X322772D01*
X322584Y77702D01*
X321541Y80220D01*
X319882Y82382D01*
X317720Y84041D01*
X315202Y85084D01*
X313770Y85272D01*
D02*
G37*
G36*
X311230D02*
X309798Y85084D01*
X307280Y84041D01*
X305118Y82382D01*
X303459Y80220D01*
X302416Y77702D01*
X302228Y76270D01*
X311230D01*
Y85272D01*
D02*
G37*
G36*
X261230Y201230D02*
X252228D01*
X252416Y199798D01*
X253459Y197280D01*
X255118Y195118D01*
X257280Y193459D01*
X259798Y192416D01*
X261230Y192228D01*
Y201230D01*
D02*
G37*
G36*
X280000Y279533D02*
X276352Y278808D01*
X273259Y276741D01*
X271192Y273648D01*
X270467Y270000D01*
X271192Y266352D01*
X273259Y263259D01*
X275646Y261664D01*
Y255000D01*
X275978Y253334D01*
X276922Y251922D01*
X286027Y242816D01*
X285467Y240000D01*
X286192Y236352D01*
X288259Y233259D01*
X291352Y231192D01*
X295000Y230467D01*
X298648Y231192D01*
X301741Y233259D01*
X303808Y236352D01*
X304533Y240000D01*
X303808Y243648D01*
X301741Y246741D01*
X298648Y248808D01*
X295000Y249533D01*
X292184Y248973D01*
X285014Y256143D01*
X285406Y262367D01*
X286741Y263259D01*
X288808Y266352D01*
X289533Y270000D01*
X288808Y273648D01*
X286741Y276741D01*
X283648Y278808D01*
X280000Y279533D01*
D02*
G37*
G36*
X261230Y212772D02*
X259798Y212584D01*
X257280Y211541D01*
X255118Y209882D01*
X253459Y207720D01*
X252416Y205202D01*
X252228Y203770D01*
X261230D01*
Y212772D01*
D02*
G37*
G36*
X272772Y201230D02*
X263770D01*
Y192228D01*
X265202Y192416D01*
X267720Y193459D01*
X269882Y195118D01*
X271541Y197280D01*
X272584Y199798D01*
X272772Y201230D01*
D02*
G37*
G36*
X263770Y212772D02*
Y203770D01*
X272772D01*
X272584Y205202D01*
X271541Y207720D01*
X269882Y209882D01*
X267720Y211541D01*
X265202Y212584D01*
X263770Y212772D01*
D02*
G37*
G36*
X347772Y298730D02*
X338770D01*
Y289728D01*
X340202Y289916D01*
X342720Y290959D01*
X344882Y292618D01*
X346541Y294780D01*
X347584Y297298D01*
X347772Y298730D01*
D02*
G37*
G36*
X336230D02*
X327228D01*
X327416Y297298D01*
X328459Y294780D01*
X330118Y292618D01*
X332280Y290959D01*
X334798Y289916D01*
X336230Y289728D01*
Y298730D01*
D02*
G37*
G36*
X426270Y225272D02*
Y216270D01*
X435272D01*
X435084Y217702D01*
X434041Y220220D01*
X432382Y222382D01*
X430220Y224041D01*
X427702Y225084D01*
X426270Y225272D01*
D02*
G37*
G36*
X423730D02*
X422298Y225084D01*
X419780Y224041D01*
X417618Y222382D01*
X415959Y220220D01*
X414916Y217702D01*
X414728Y216270D01*
X423730D01*
Y225272D01*
D02*
G37*
G36*
X308730Y375272D02*
X307298Y375084D01*
X304780Y374041D01*
X302618Y372382D01*
X300959Y370220D01*
X299916Y367702D01*
X299728Y366270D01*
X308730D01*
Y375272D01*
D02*
G37*
G36*
X326730Y348730D02*
X319750D01*
Y341750D01*
X326730D01*
Y348730D01*
D02*
G37*
G36*
X308730Y363730D02*
X299728D01*
X299916Y362298D01*
X300959Y359780D01*
X302618Y357618D01*
X304780Y355959D01*
X307298Y354916D01*
X308730Y354728D01*
Y363730D01*
D02*
G37*
G36*
X511230Y160272D02*
X509798Y160084D01*
X507280Y159041D01*
X505118Y157382D01*
X503459Y155220D01*
X502416Y152702D01*
X502228Y151270D01*
X511230D01*
Y160272D01*
D02*
G37*
G36*
Y148730D02*
X502228D01*
X502416Y147298D01*
X503459Y144780D01*
X505118Y142618D01*
X507280Y140959D01*
X509798Y139916D01*
X511230Y139728D01*
Y148730D01*
D02*
G37*
G36*
X586650Y194709D02*
X526650D01*
X525480Y194476D01*
X524487Y193813D01*
X523824Y192820D01*
X523591Y191650D01*
Y162043D01*
X517720Y159041D01*
X515202Y160084D01*
X513770Y160272D01*
Y150000D01*
Y139728D01*
X515202Y139916D01*
X517720Y140959D01*
X523591Y137957D01*
Y131650D01*
X523824Y130479D01*
X524487Y129487D01*
X525480Y128824D01*
X526650Y128591D01*
X586650D01*
X587821Y128824D01*
X588813Y129487D01*
X589476Y130479D01*
X589709Y131650D01*
Y191650D01*
X589476Y192820D01*
X588813Y193813D01*
X587821Y194476D01*
X586650Y194709D01*
D02*
G37*
G36*
X171030Y59000D02*
X158300D01*
Y46270D01*
X171030D01*
Y59000D01*
D02*
G37*
G36*
X938770Y40272D02*
Y31270D01*
X947772D01*
X947584Y32702D01*
X946541Y35220D01*
X944882Y37382D01*
X942720Y39041D01*
X940202Y40084D01*
X938770Y40272D01*
D02*
G37*
G36*
X936230D02*
X934798Y40084D01*
X932280Y39041D01*
X930118Y37382D01*
X928459Y35220D01*
X927416Y32702D01*
X927228Y31270D01*
X936230D01*
Y40272D01*
D02*
G37*
G36*
X715000Y259533D02*
X711352Y258808D01*
X708259Y256741D01*
X706192Y253648D01*
X705467Y250000D01*
X706192Y246352D01*
X708259Y243259D01*
X710646Y241664D01*
Y215000D01*
X710978Y213334D01*
X711921Y211922D01*
X855646Y68197D01*
Y49866D01*
X850146Y46636D01*
X845300Y48000D01*
Y48000D01*
X819300D01*
Y22000D01*
X845300D01*
X845300Y22000D01*
X851144Y23644D01*
X854306Y22335D01*
X857700Y21888D01*
X861094Y22335D01*
X864256Y23644D01*
X866972Y25728D01*
X869055Y28444D01*
X870365Y31606D01*
X870812Y35000D01*
X870365Y38394D01*
X869055Y41556D01*
X866972Y44272D01*
X864354Y46281D01*
Y70000D01*
X864022Y71666D01*
X863079Y73078D01*
X719354Y216803D01*
Y241664D01*
X721741Y243259D01*
X723808Y246352D01*
X724533Y250000D01*
X723808Y253648D01*
X721741Y256741D01*
X718648Y258808D01*
X715000Y259533D01*
D02*
G37*
G36*
X752700Y48112D02*
X749306Y47665D01*
X746144Y46356D01*
X740300Y48000D01*
Y48000D01*
X714300D01*
Y22000D01*
X740300D01*
X740300Y22000D01*
X746144Y23644D01*
X749306Y22335D01*
X752700Y21888D01*
X756094Y22335D01*
X759256Y23644D01*
X761972Y25728D01*
X764055Y28444D01*
X765365Y31606D01*
X765812Y35000D01*
X765365Y38394D01*
X764055Y41556D01*
X761972Y44272D01*
X759256Y46356D01*
X756094Y47665D01*
X752700Y48112D01*
D02*
G37*
G36*
X198970Y58954D02*
Y46270D01*
X211654D01*
X211340Y48655D01*
X209929Y52060D01*
X207685Y54985D01*
X204760Y57229D01*
X201355Y58640D01*
X198970Y58954D01*
D02*
G37*
G36*
X947772Y28730D02*
X938770D01*
Y19728D01*
X940202Y19916D01*
X942720Y20959D01*
X944882Y22618D01*
X946541Y24780D01*
X947584Y27298D01*
X947772Y28730D01*
D02*
G37*
G36*
X936230D02*
X927228D01*
X927416Y27298D01*
X928459Y24780D01*
X930118Y22618D01*
X932280Y20959D01*
X934798Y19916D01*
X936230Y19728D01*
Y28730D01*
D02*
G37*
G36*
X211654Y43730D02*
X198970D01*
Y31046D01*
X201355Y31360D01*
X204760Y32771D01*
X207685Y35015D01*
X209929Y37940D01*
X211340Y41345D01*
X211654Y43730D01*
D02*
G37*
G36*
X186300Y59000D02*
Y59000D01*
X173570D01*
Y45000D01*
Y31000D01*
X186300D01*
X186300Y31000D01*
X192300Y32083D01*
X194045Y31360D01*
X196430Y31046D01*
Y45000D01*
Y58954D01*
X194045Y58640D01*
X192300Y57917D01*
X186300Y59000D01*
D02*
G37*
G36*
X171030Y43730D02*
X158300D01*
Y31000D01*
X171030D01*
Y43730D01*
D02*
G37*
G36*
X913770Y100272D02*
Y91270D01*
X922772D01*
X922584Y92702D01*
X921541Y95220D01*
X919882Y97382D01*
X917720Y99041D01*
X915202Y100084D01*
X913770Y100272D01*
D02*
G37*
G36*
X911230D02*
X909798Y100084D01*
X907280Y99041D01*
X905118Y97382D01*
X903459Y95220D01*
X902416Y92702D01*
X902228Y91270D01*
X911230D01*
Y100272D01*
D02*
G37*
G36*
X922772Y88730D02*
X913770D01*
Y79728D01*
X915202Y79916D01*
X917720Y80959D01*
X919882Y82618D01*
X921541Y84780D01*
X922584Y87298D01*
X922772Y88730D01*
D02*
G37*
G36*
X911230D02*
X902228D01*
X902416Y87298D01*
X903459Y84780D01*
X905118Y82618D01*
X907280Y80959D01*
X909798Y79916D01*
X911230Y79728D01*
Y88730D01*
D02*
G37*
G36*
X868730Y735272D02*
X867298Y735084D01*
X864780Y734041D01*
X862618Y732382D01*
X860959Y730220D01*
X859916Y727702D01*
X859728Y726270D01*
X868730D01*
Y735272D01*
D02*
G37*
G36*
Y723730D02*
X859728D01*
X859916Y722298D01*
X860959Y719780D01*
X862618Y717618D01*
X864780Y715959D01*
X867298Y714916D01*
X868730Y714728D01*
Y723730D01*
D02*
G37*
G36*
X716270Y870272D02*
Y861270D01*
X725272D01*
X725084Y862702D01*
X724041Y865220D01*
X722382Y867382D01*
X720220Y869041D01*
X717702Y870084D01*
X716270Y870272D01*
D02*
G37*
G36*
X745000Y851059D02*
X735000D01*
X733829Y850826D01*
X732837Y850163D01*
X732174Y849171D01*
X731941Y848000D01*
Y836000D01*
X732174Y834829D01*
X732837Y833837D01*
X733829Y833174D01*
X735000Y832941D01*
X745000D01*
X746171Y833174D01*
X747163Y833837D01*
X747826Y834829D01*
X748059Y836000D01*
Y848000D01*
X747826Y849171D01*
X747163Y850163D01*
X746171Y850826D01*
X745000Y851059D01*
D02*
G37*
G36*
X713730Y870272D02*
X712298Y870084D01*
X709780Y869041D01*
X707618Y867382D01*
X705959Y865220D01*
X704916Y862702D01*
X704728Y861270D01*
X713730D01*
Y870272D01*
D02*
G37*
G36*
X725272Y858730D02*
X716270D01*
Y849728D01*
X717702Y849916D01*
X720220Y850959D01*
X722382Y852618D01*
X724041Y854780D01*
X725084Y857298D01*
X725272Y858730D01*
D02*
G37*
G36*
X383730Y723730D02*
X372055D01*
X372335Y721606D01*
X373644Y718444D01*
X375728Y715728D01*
X378444Y713644D01*
X381606Y712335D01*
X383730Y712055D01*
Y723730D01*
D02*
G37*
G36*
Y737945D02*
X381606Y737665D01*
X378444Y736355D01*
X375728Y734272D01*
X373644Y731556D01*
X372335Y728394D01*
X372055Y726270D01*
X383730D01*
Y737945D01*
D02*
G37*
G36*
X386270Y737945D02*
Y726270D01*
X397945D01*
X397665Y728394D01*
X396355Y731556D01*
X394272Y734272D01*
X391556Y736355D01*
X388394Y737665D01*
X386270Y737945D01*
D02*
G37*
G36*
X510272Y873730D02*
X501270D01*
Y864728D01*
X502702Y864916D01*
X505220Y865959D01*
X507382Y867618D01*
X509041Y869780D01*
X510084Y872298D01*
X510272Y873730D01*
D02*
G37*
G36*
X745000Y911559D02*
X735000D01*
X733829Y911326D01*
X732837Y910663D01*
X732174Y909670D01*
X731941Y908500D01*
Y900500D01*
X732174Y899330D01*
X732837Y898337D01*
X733829Y897674D01*
X735000Y897441D01*
X745000D01*
X746171Y897674D01*
X747163Y898337D01*
X747826Y899330D01*
X748059Y900500D01*
Y908500D01*
X747826Y909670D01*
X747163Y910663D01*
X746171Y911326D01*
X745000Y911559D01*
D02*
G37*
G36*
X501270Y885272D02*
Y876270D01*
X510272D01*
X510084Y877702D01*
X509041Y880220D01*
X507382Y882382D01*
X505220Y884041D01*
X502702Y885084D01*
X501270Y885272D01*
D02*
G37*
G36*
X111000Y950147D02*
X99000D01*
X94562Y949562D01*
X90427Y947849D01*
X86875Y945125D01*
X84151Y941573D01*
X82438Y937438D01*
X81853Y933000D01*
Y911000D01*
X82438Y906562D01*
X84151Y902427D01*
X86875Y898875D01*
X90427Y896151D01*
X94562Y894438D01*
X99000Y893853D01*
X111000D01*
X115438Y894438D01*
X119573Y896151D01*
X123125Y898875D01*
X125849Y902427D01*
X127562Y906562D01*
X128147Y911000D01*
Y933000D01*
X127562Y937438D01*
X125849Y941573D01*
X123125Y945125D01*
X119573Y947849D01*
X115438Y949562D01*
X111000Y950147D01*
D02*
G37*
G36*
X883025Y953647D02*
X871025D01*
X866587Y953062D01*
X862452Y951349D01*
X858901Y948624D01*
X856176Y945073D01*
X854463Y940938D01*
X853878Y936500D01*
Y914500D01*
X854463Y910062D01*
X856176Y905927D01*
X858901Y902375D01*
X862452Y899651D01*
X866587Y897938D01*
X871025Y897353D01*
X883025D01*
X887463Y897938D01*
X891598Y899651D01*
X895150Y902375D01*
X897875Y905927D01*
X899587Y910062D01*
X900172Y914500D01*
Y936500D01*
X899587Y940938D01*
X897875Y945073D01*
X895150Y948624D01*
X891598Y951349D01*
X887463Y953062D01*
X883025Y953647D01*
D02*
G37*
G36*
X366730Y523250D02*
X359750D01*
Y516270D01*
X366730D01*
Y523250D01*
D02*
G37*
G36*
X948730Y848154D02*
X946345Y847840D01*
X942940Y846429D01*
X940015Y844185D01*
X937771Y841260D01*
X936360Y837855D01*
X936046Y835470D01*
X948730D01*
Y848154D01*
D02*
G37*
G36*
X951270Y848154D02*
Y835470D01*
X963954D01*
X963640Y837855D01*
X962229Y841260D01*
X959985Y844185D01*
X957060Y846429D01*
X953655Y847840D01*
X951270Y848154D01*
D02*
G37*
G36*
X478600Y939000D02*
Y939000D01*
X465870D01*
Y925000D01*
X464600D01*
Y923730D01*
X450600D01*
Y911000D01*
X460246D01*
Y905400D01*
X460578Y903734D01*
X461521Y902321D01*
X489669Y874174D01*
X489916Y872298D01*
X490959Y869780D01*
X492618Y867618D01*
X494780Y865959D01*
X497298Y864916D01*
X498730Y864728D01*
Y875000D01*
Y885272D01*
X497298Y885084D01*
X494780Y884041D01*
X493273Y882884D01*
X471817Y904340D01*
X473811Y909900D01*
X478600Y911000D01*
D01*
X484600Y913166D01*
X486606Y912335D01*
X490000Y911888D01*
X493394Y912335D01*
X496556Y913644D01*
X499073Y915576D01*
X499337Y915728D01*
X506063D01*
X506327Y915576D01*
X508844Y913644D01*
X512006Y912335D01*
X515400Y911888D01*
X518794Y912335D01*
X521956Y913644D01*
X524473Y915576D01*
X524737Y915728D01*
X531463D01*
X531727Y915576D01*
X534244Y913644D01*
X537406Y912335D01*
X540800Y911888D01*
X544194Y912335D01*
X547356Y913644D01*
X550072Y915728D01*
X552155Y918444D01*
X553465Y921606D01*
X553912Y925000D01*
X553465Y928394D01*
X552155Y931556D01*
X550072Y934272D01*
X547356Y936356D01*
X544194Y937665D01*
X540800Y938112D01*
X537406Y937665D01*
X534244Y936356D01*
X531727Y934424D01*
X531463Y934272D01*
X524737D01*
X524473Y934424D01*
X521956Y936356D01*
X518794Y937665D01*
X515400Y938112D01*
X512006Y937665D01*
X508844Y936356D01*
X506327Y934424D01*
X506063Y934272D01*
X499337D01*
X499073Y934424D01*
X496556Y936356D01*
X493394Y937665D01*
X490000Y938112D01*
X486606Y937665D01*
X484600Y936834D01*
X478600Y939000D01*
D02*
G37*
G36*
X222750Y938250D02*
X215770D01*
Y931270D01*
X222750D01*
Y938250D01*
D02*
G37*
G36*
X463330Y939000D02*
X450600D01*
Y926270D01*
X463330D01*
Y939000D01*
D02*
G37*
G36*
X36230Y511454D02*
X33845Y511140D01*
X30440Y509729D01*
X27515Y507485D01*
X25271Y504560D01*
X23860Y501155D01*
X23546Y498770D01*
X36230D01*
Y511454D01*
D02*
G37*
G36*
X179245Y844654D02*
Y831970D01*
X191929D01*
X191615Y834355D01*
X190204Y837760D01*
X187960Y840685D01*
X185035Y842929D01*
X181630Y844340D01*
X179245Y844654D01*
D02*
G37*
G36*
X81230Y412772D02*
X79798Y412584D01*
X77280Y411541D01*
X75118Y409882D01*
X73459Y407720D01*
X72585Y405608D01*
X43743D01*
X42382Y407382D01*
X40220Y409041D01*
X37702Y410084D01*
X36270Y410272D01*
Y400000D01*
Y389728D01*
X37702Y389916D01*
X40220Y390959D01*
X42382Y392618D01*
X43743Y394392D01*
X76065D01*
X77280Y393459D01*
X79798Y392416D01*
X81230Y392228D01*
Y402500D01*
Y412772D01*
D02*
G37*
G36*
X83770D02*
Y403770D01*
X92772D01*
X92584Y405202D01*
X91541Y407720D01*
X89882Y409882D01*
X87720Y411541D01*
X85202Y412584D01*
X83770Y412772D01*
D02*
G37*
G36*
X33730Y410272D02*
X32298Y410084D01*
X29780Y409041D01*
X27618Y407382D01*
X25959Y405220D01*
X24916Y402702D01*
X24728Y401270D01*
X33730D01*
Y410272D01*
D02*
G37*
G36*
X33954Y628330D02*
X21270D01*
Y615646D01*
X23655Y615960D01*
X27060Y617371D01*
X29985Y619615D01*
X32229Y622540D01*
X33640Y625945D01*
X33954Y628330D01*
D02*
G37*
G36*
X983000Y631730D02*
X960270D01*
Y619000D01*
X983000D01*
Y631730D01*
D02*
G37*
G36*
X301230Y477772D02*
X299798Y477584D01*
X297280Y476541D01*
X295118Y474882D01*
X293459Y472720D01*
X292416Y470202D01*
X292228Y468770D01*
X301230D01*
Y477772D01*
D02*
G37*
G36*
X200272Y396230D02*
X191270D01*
Y387228D01*
X192702Y387416D01*
X195220Y388459D01*
X197382Y390118D01*
X199041Y392280D01*
X200084Y394798D01*
X200272Y396230D01*
D02*
G37*
G36*
X188730D02*
X179728D01*
X179916Y394798D01*
X180959Y392280D01*
X182618Y390118D01*
X184780Y388459D01*
X187298Y387416D01*
X188730Y387228D01*
Y396230D01*
D02*
G37*
G36*
X200272Y428730D02*
X179728D01*
X179916Y427298D01*
X180959Y424780D01*
X182618Y422618D01*
X184392Y421257D01*
Y406243D01*
X182618Y404882D01*
X180959Y402720D01*
X179916Y400202D01*
X179728Y398770D01*
X200272D01*
X200084Y400202D01*
X199041Y402720D01*
X197382Y404882D01*
X195608Y406243D01*
Y421257D01*
X197382Y422618D01*
X199041Y424780D01*
X200084Y427298D01*
X200272Y428730D01*
D02*
G37*
G36*
X92772Y401230D02*
X83770D01*
Y392228D01*
X85202Y392416D01*
X87720Y393459D01*
X89882Y395118D01*
X91541Y397280D01*
X92584Y399798D01*
X92772Y401230D01*
D02*
G37*
G36*
X33730Y398730D02*
X24728D01*
X24916Y397298D01*
X25959Y394780D01*
X27618Y392618D01*
X29780Y390959D01*
X32298Y389916D01*
X33730Y389728D01*
Y398730D01*
D02*
G37*
G36*
X215272Y463730D02*
X206270D01*
Y454728D01*
X207702Y454916D01*
X210220Y455959D01*
X212382Y457618D01*
X214041Y459780D01*
X215084Y462298D01*
X215272Y463730D01*
D02*
G37*
G36*
X203730D02*
X194728D01*
X194916Y462298D01*
X195959Y459780D01*
X197618Y457618D01*
X199780Y455959D01*
X202298Y454916D01*
X203730Y454728D01*
Y463730D01*
D02*
G37*
G36*
X42704Y854830D02*
X28750D01*
X14796D01*
X15110Y852445D01*
X16521Y849040D01*
X18344Y846664D01*
X18846Y845417D01*
X19453Y840188D01*
X18728Y838994D01*
X17394Y837256D01*
X16085Y834094D01*
X15638Y830700D01*
X16085Y827306D01*
X17394Y824144D01*
X19478Y821428D01*
X22194Y819344D01*
X24396Y818432D01*
Y757250D01*
X23750D01*
Y742750D01*
X40412D01*
Y742500D01*
X40761Y740744D01*
X41756Y739256D01*
X83472Y697539D01*
X82967Y695000D01*
X83693Y691352D01*
X85759Y688259D01*
X87912Y686821D01*
Y641900D01*
X56756Y610744D01*
X55761Y609256D01*
X55412Y607500D01*
Y573395D01*
X50061Y569952D01*
X49412Y569974D01*
X47485Y572485D01*
X44560Y574729D01*
X41155Y576140D01*
X38770Y576454D01*
Y562500D01*
Y548546D01*
X41155Y548860D01*
X44560Y550271D01*
X47485Y552515D01*
X49412Y555026D01*
X50061Y555048D01*
X55412Y551605D01*
Y508395D01*
X50061Y504952D01*
X49412Y504974D01*
X47485Y507485D01*
X44560Y509729D01*
X41155Y511140D01*
X38770Y511454D01*
Y497500D01*
Y483546D01*
X41155Y483860D01*
X44560Y485271D01*
X44762Y485425D01*
X50559Y484006D01*
X51502Y483387D01*
X53259Y480758D01*
X56352Y478691D01*
X60000Y477966D01*
X63648Y478691D01*
X66741Y480758D01*
X68807Y483851D01*
X68902Y484325D01*
X69271Y484658D01*
X75366Y486588D01*
X75944Y486144D01*
X79106Y484835D01*
X82500Y484388D01*
X85894Y484835D01*
X89056Y486144D01*
X91772Y488228D01*
X93855Y490944D01*
X95165Y494106D01*
X95612Y497500D01*
X95165Y500894D01*
X93855Y504056D01*
X91772Y506772D01*
X89056Y508856D01*
X86854Y509768D01*
Y550232D01*
X89056Y551144D01*
X91772Y553228D01*
X93855Y555944D01*
X95165Y559106D01*
X95612Y562500D01*
X95165Y565894D01*
X93855Y569056D01*
X91772Y571772D01*
X89056Y573856D01*
X85894Y575165D01*
X82500Y575612D01*
X79106Y575165D01*
X75944Y573856D01*
X73228Y571772D01*
X71144Y569056D01*
X70588Y567713D01*
X64588Y568906D01*
Y605599D01*
X95744Y636756D01*
X96739Y638244D01*
X97088Y640000D01*
Y686821D01*
X99241Y688259D01*
X101307Y691352D01*
X102033Y695000D01*
X101307Y698648D01*
X99241Y701741D01*
X96148Y703808D01*
X92500Y704533D01*
X89961Y704028D01*
X51954Y742035D01*
X52250Y742750D01*
X52250D01*
Y757250D01*
X33104D01*
Y818432D01*
X35306Y819344D01*
X38022Y821428D01*
X40106Y824144D01*
X41415Y827306D01*
X41862Y830700D01*
X41415Y834094D01*
X40106Y837256D01*
X38772Y838994D01*
X38047Y840188D01*
X38654Y845417D01*
X39156Y846664D01*
X40979Y849040D01*
X42390Y852445D01*
X42704Y854830D01*
D02*
G37*
G36*
X301230Y466230D02*
X292228D01*
X292416Y464798D01*
X293459Y462280D01*
X295118Y460118D01*
X297280Y458459D01*
X299798Y457416D01*
X301230Y457228D01*
Y466230D01*
D02*
G37*
G36*
X36230Y576454D02*
X33845Y576140D01*
X30440Y574729D01*
X27515Y572485D01*
X25271Y569560D01*
X23860Y566155D01*
X23546Y563770D01*
X36230D01*
Y576454D01*
D02*
G37*
G36*
Y561230D02*
X23546D01*
X23860Y558845D01*
X25271Y555440D01*
X27515Y552515D01*
X30440Y550271D01*
X33845Y548860D01*
X36230Y548546D01*
Y561230D01*
D02*
G37*
G36*
X206270Y475272D02*
Y466270D01*
X215272D01*
X215084Y467702D01*
X214041Y470220D01*
X212382Y472382D01*
X210220Y474041D01*
X207702Y475084D01*
X206270Y475272D01*
D02*
G37*
G36*
X203730D02*
X202298Y475084D01*
X199780Y474041D01*
X197618Y472382D01*
X195959Y470220D01*
X194916Y467702D01*
X194728Y466270D01*
X203730D01*
Y475272D01*
D02*
G37*
G36*
X191270Y440272D02*
Y431270D01*
X200272D01*
X200084Y432702D01*
X199041Y435220D01*
X197382Y437382D01*
X195220Y439041D01*
X192702Y440084D01*
X191270Y440272D01*
D02*
G37*
G36*
X188730D02*
X187298Y440084D01*
X184780Y439041D01*
X182618Y437382D01*
X180959Y435220D01*
X179916Y432702D01*
X179728Y431270D01*
X188730D01*
Y440272D01*
D02*
G37*
G36*
X29930Y348730D02*
X18088D01*
Y347000D01*
X18535Y343606D01*
X19844Y340444D01*
X21928Y337728D01*
X24644Y335645D01*
X27806Y334335D01*
X29930Y334055D01*
Y348730D01*
D02*
G37*
G36*
X176705Y829430D02*
X164021D01*
X164335Y827045D01*
X165746Y823640D01*
X167990Y820715D01*
X170915Y818471D01*
X174320Y817060D01*
X176705Y816746D01*
Y829430D01*
D02*
G37*
G36*
Y844654D02*
X174320Y844340D01*
X170915Y842929D01*
X167990Y840685D01*
X165746Y837760D01*
X164335Y834355D01*
X164021Y831970D01*
X176705D01*
Y844654D01*
D02*
G37*
G36*
X44312Y348730D02*
X32470D01*
Y334055D01*
X34594Y334335D01*
X37756Y335645D01*
X40472Y337728D01*
X42555Y340444D01*
X43865Y343606D01*
X44312Y347000D01*
Y348730D01*
D02*
G37*
G36*
X28750Y894612D02*
X25356Y894165D01*
X22194Y892856D01*
X19478Y890772D01*
X17394Y888056D01*
X16085Y884894D01*
X15638Y881500D01*
X16085Y878106D01*
X17394Y874944D01*
X18728Y873206D01*
X19453Y872012D01*
X18846Y866783D01*
X18344Y865536D01*
X16521Y863160D01*
X15110Y859755D01*
X14796Y857370D01*
X28750D01*
X42704D01*
X42390Y859755D01*
X40979Y863160D01*
X39156Y865536D01*
X38654Y866783D01*
X38641Y866894D01*
X41084Y869956D01*
X48608Y870235D01*
X60646Y858197D01*
Y755000D01*
X60978Y753334D01*
X61922Y751921D01*
X110646Y703197D01*
Y400000D01*
X110978Y398334D01*
X111922Y396922D01*
X191027Y317816D01*
X190467Y315000D01*
X191192Y311352D01*
X193259Y308259D01*
X196352Y306192D01*
X200000Y305467D01*
X203648Y306192D01*
X206741Y308259D01*
X208808Y311352D01*
X209533Y315000D01*
X208808Y318648D01*
X206741Y321741D01*
X203648Y323807D01*
X200000Y324533D01*
X197184Y323973D01*
X119354Y401803D01*
Y705000D01*
X119022Y706666D01*
X118078Y708079D01*
X69354Y756803D01*
Y860000D01*
X69022Y861666D01*
X68078Y863079D01*
X48078Y883079D01*
X46666Y884022D01*
X45000Y884354D01*
X41487D01*
X41415Y884894D01*
X40106Y888056D01*
X38022Y890772D01*
X35306Y892856D01*
X32144Y894165D01*
X28750Y894612D01*
D02*
G37*
G36*
X191929Y829430D02*
X179245D01*
Y816746D01*
X181630Y817060D01*
X185035Y818471D01*
X187960Y820715D01*
X190204Y823640D01*
X191615Y827045D01*
X191929Y829430D01*
D02*
G37*
G36*
X948730Y832930D02*
X936046D01*
X936360Y830545D01*
X937771Y827140D01*
X940015Y824215D01*
X942940Y821971D01*
X946345Y820560D01*
X948730Y820246D01*
Y832930D01*
D02*
G37*
G36*
X814729Y858330D02*
X800775D01*
X786821D01*
X787135Y855945D01*
X788546Y852540D01*
X790369Y850164D01*
X790871Y848917D01*
X791478Y843688D01*
X790753Y842494D01*
X789419Y840756D01*
X788110Y837594D01*
X787663Y834200D01*
X788110Y830806D01*
X789419Y827644D01*
X791503Y824928D01*
X794219Y822844D01*
X797381Y821535D01*
X800775Y821088D01*
X804169Y821535D01*
X807331Y822844D01*
X810047Y824928D01*
X812131Y827644D01*
X813440Y830806D01*
X813887Y834200D01*
X813440Y837594D01*
X812131Y840756D01*
X810797Y842494D01*
X810072Y843688D01*
X810679Y848917D01*
X811181Y850164D01*
X813004Y852540D01*
X814415Y855945D01*
X814729Y858330D01*
D02*
G37*
G36*
X29930Y365945D02*
X27806Y365665D01*
X24644Y364356D01*
X21928Y362272D01*
X19844Y359556D01*
X18535Y356394D01*
X18088Y353000D01*
Y351270D01*
X29930D01*
Y365945D01*
D02*
G37*
G36*
X111000Y818147D02*
X99000D01*
X94562Y817562D01*
X90427Y815849D01*
X86875Y813124D01*
X84151Y809573D01*
X82438Y805438D01*
X81853Y801000D01*
Y779000D01*
X82438Y774562D01*
X84151Y770427D01*
X86875Y766876D01*
X90427Y764150D01*
X94562Y762438D01*
X99000Y761853D01*
X111000D01*
X115438Y762438D01*
X119573Y764150D01*
X123125Y766876D01*
X125849Y770427D01*
X127562Y774562D01*
X128147Y779000D01*
Y801000D01*
X127562Y805438D01*
X125849Y809573D01*
X123125Y813124D01*
X119573Y815849D01*
X115438Y817562D01*
X111000Y818147D01*
D02*
G37*
G36*
X36230Y496230D02*
X23546D01*
X23860Y493845D01*
X25271Y490440D01*
X27515Y487515D01*
X30440Y485271D01*
X33845Y483860D01*
X36230Y483546D01*
Y496230D01*
D02*
G37*
G36*
X32470Y365945D02*
Y351270D01*
X44312D01*
Y353000D01*
X43865Y356394D01*
X42555Y359556D01*
X40472Y362272D01*
X37756Y364356D01*
X34594Y365665D01*
X32470Y365945D01*
D02*
G37*
%LPD*%
G36*
X71144Y555944D02*
X73228Y553228D01*
X75944Y551144D01*
X78146Y550232D01*
Y509768D01*
X75944Y508856D01*
X73228Y506772D01*
X71144Y504056D01*
X70588Y502713D01*
X64588Y503906D01*
Y556094D01*
X70588Y557287D01*
X71144Y555944D01*
D02*
G37*
%LPC*%
G36*
X533730Y491230D02*
X524728D01*
X524916Y489798D01*
X525959Y487280D01*
X527618Y485118D01*
X529780Y483459D01*
X532298Y482416D01*
X533730Y482228D01*
Y491230D01*
D02*
G37*
G36*
X536270Y502772D02*
Y493770D01*
X545272D01*
X545084Y495202D01*
X544041Y497720D01*
X542382Y499882D01*
X540220Y501541D01*
X537702Y502584D01*
X536270Y502772D01*
D02*
G37*
G36*
X533730D02*
X532298Y502584D01*
X529780Y501541D01*
X527618Y499882D01*
X525959Y497720D01*
X524916Y495202D01*
X524728Y493770D01*
X533730D01*
Y502772D01*
D02*
G37*
G36*
X545272Y491230D02*
X536270D01*
Y482228D01*
X537702Y482416D01*
X540220Y483459D01*
X542382Y485118D01*
X544041Y487280D01*
X545084Y489798D01*
X545272Y491230D01*
D02*
G37*
%LPD*%
D10*
X960000Y772000D02*
D03*
Y758000D02*
D03*
X470000Y747000D02*
D03*
Y733000D02*
D03*
X385000Y390000D02*
D03*
Y376000D02*
D03*
X820000Y750000D02*
D03*
Y764000D02*
D03*
D11*
X214500Y930000D02*
D03*
X200500D02*
D03*
X774000Y885000D02*
D03*
X760000D02*
D03*
X396999Y339999D02*
D03*
X382999D02*
D03*
X342000Y350000D02*
D03*
X328000D02*
D03*
Y375000D02*
D03*
X342000D02*
D03*
X307000Y395000D02*
D03*
X293000D02*
D03*
X347000Y435000D02*
D03*
X333000D02*
D03*
X347000Y465000D02*
D03*
X333000D02*
D03*
X478000Y340000D02*
D03*
X492000D02*
D03*
X382000Y515000D02*
D03*
X368000D02*
D03*
X382000Y490000D02*
D03*
X368000D02*
D03*
X408000Y465000D02*
D03*
X422000D02*
D03*
X408000Y445000D02*
D03*
X422000D02*
D03*
X31000Y750000D02*
D03*
X45000D02*
D03*
D12*
X959000Y633000D02*
D03*
Y731000D02*
D03*
D13*
X908000Y633000D02*
D03*
Y731000D02*
D03*
D14*
Y698000D02*
D03*
Y690000D02*
D03*
Y682000D02*
D03*
Y674000D02*
D03*
Y666000D02*
D03*
D15*
X495000Y532000D02*
D03*
X500000D02*
D03*
X505000D02*
D03*
X510000D02*
D03*
X515000D02*
D03*
X520000D02*
D03*
X525000D02*
D03*
X530000D02*
D03*
X535000D02*
D03*
X540000D02*
D03*
X545000D02*
D03*
X550000D02*
D03*
X555000D02*
D03*
X560000D02*
D03*
X565000D02*
D03*
X570000D02*
D03*
X575000D02*
D03*
X580000D02*
D03*
X585000D02*
D03*
X590000D02*
D03*
X595000D02*
D03*
X600000D02*
D03*
X605000D02*
D03*
X610000D02*
D03*
X615000D02*
D03*
Y378000D02*
D03*
X610000D02*
D03*
X605000D02*
D03*
X600000D02*
D03*
X595000D02*
D03*
X590000D02*
D03*
X585000D02*
D03*
X580000D02*
D03*
X575000D02*
D03*
X570000D02*
D03*
X565000D02*
D03*
X560000D02*
D03*
X555000D02*
D03*
X550000D02*
D03*
X545000D02*
D03*
X540000D02*
D03*
X535000D02*
D03*
X530000D02*
D03*
X525000D02*
D03*
X520000D02*
D03*
X515000D02*
D03*
X510000D02*
D03*
X505000D02*
D03*
X500000D02*
D03*
X495000D02*
D03*
D16*
X632000Y515000D02*
D03*
Y510000D02*
D03*
Y505000D02*
D03*
Y500000D02*
D03*
Y495000D02*
D03*
Y490000D02*
D03*
Y485000D02*
D03*
Y480000D02*
D03*
Y475000D02*
D03*
Y470000D02*
D03*
Y465000D02*
D03*
Y460000D02*
D03*
Y455000D02*
D03*
Y450000D02*
D03*
Y445000D02*
D03*
Y440000D02*
D03*
Y435000D02*
D03*
Y430000D02*
D03*
Y425000D02*
D03*
Y420000D02*
D03*
Y415000D02*
D03*
Y410000D02*
D03*
Y405000D02*
D03*
Y400000D02*
D03*
Y395000D02*
D03*
X478000D02*
D03*
Y400000D02*
D03*
Y405000D02*
D03*
Y410000D02*
D03*
Y415000D02*
D03*
Y420000D02*
D03*
Y425000D02*
D03*
Y430000D02*
D03*
Y435000D02*
D03*
Y440000D02*
D03*
Y445000D02*
D03*
Y450000D02*
D03*
Y455000D02*
D03*
Y460000D02*
D03*
Y465000D02*
D03*
Y470000D02*
D03*
Y475000D02*
D03*
Y480000D02*
D03*
Y485000D02*
D03*
Y490000D02*
D03*
Y495000D02*
D03*
Y500000D02*
D03*
Y505000D02*
D03*
Y510000D02*
D03*
Y515000D02*
D03*
D17*
X730500Y800000D02*
D03*
X721000D02*
D03*
X644000D02*
D03*
X655000D02*
D03*
X666000D02*
D03*
X677000D02*
D03*
X688000D02*
D03*
X699000D02*
D03*
X710000D02*
D03*
D18*
X419998Y512502D02*
D03*
Y487502D02*
D03*
D19*
X827400Y162600D02*
X925000D01*
X757500Y232500D02*
X827400Y162600D01*
X884500Y188000D02*
X925000D01*
X830000Y242500D02*
X884500Y188000D01*
X777500Y242500D02*
X830000D01*
X879100Y213400D02*
X925000D01*
X832500Y260000D02*
X879100Y213400D01*
X792500Y260000D02*
X832500D01*
X923300Y262500D02*
X925000Y264200D01*
X875000Y262500D02*
X923300D01*
X822500Y337500D02*
X830000Y330000D01*
X822500Y337500D02*
Y372500D01*
X805000Y332500D02*
X810000Y327500D01*
X805000Y332500D02*
Y367500D01*
X793125Y390000D02*
X815000D01*
X777500Y395000D02*
X788125D01*
X793125Y390000D01*
X815000D02*
X825000Y400000D01*
X772500D02*
X777500Y395000D01*
X700000Y400000D02*
X772500D01*
X825000D02*
X847500D01*
X782500Y327500D02*
Y337500D01*
X787500Y342500D01*
Y367500D01*
X755000Y335000D02*
X762500Y327500D01*
X755000Y335000D02*
Y375000D01*
X742500Y327500D02*
Y350000D01*
X735000Y357500D02*
X742500Y350000D01*
X735000Y357500D02*
Y380000D01*
X865000Y330000D02*
X877500D01*
X835000Y360000D02*
X865000Y330000D01*
X835000Y360000D02*
Y387500D01*
X847500Y362500D02*
X867500Y342500D01*
X847500Y362500D02*
Y375000D01*
X872500Y415000D02*
X885000Y427500D01*
X892500D01*
X857500Y430000D02*
X875000Y447500D01*
X890000D01*
X875000Y352500D02*
X910900D01*
X862500Y365000D02*
X875000Y352500D01*
X705000Y455000D02*
X837500D01*
X857500Y475000D01*
X887500D01*
X905000Y457500D01*
Y432500D02*
Y457500D01*
Y432500D02*
X910000Y427500D01*
Y427500D02*
X960000D01*
X875000Y397500D02*
X880000D01*
X830000Y442500D02*
X875000Y397500D01*
X702500Y442500D02*
X830000D01*
X722500Y350000D02*
X730000Y342500D01*
X722500Y350000D02*
Y357500D01*
X650000Y430000D02*
X722500Y357500D01*
X910900Y352500D02*
X924600Y338800D01*
X883300Y364200D02*
X924600D01*
X847500Y400000D02*
X883300Y364200D01*
X762500Y392500D02*
X772500Y382500D01*
X697500Y392500D02*
X762500D01*
X655000Y435000D02*
X697500Y392500D01*
X937100Y277500D02*
X950400Y264200D01*
X887500Y277500D02*
X937100D01*
X875000Y290000D02*
X887500Y277500D01*
X710000Y290000D02*
X875000D01*
X890400Y289600D02*
X925000D01*
X880000Y300000D02*
X890400Y289600D01*
X710000Y300000D02*
X880000D01*
X950400Y188000D02*
X980500D01*
X992500Y200000D01*
Y590000D01*
X977500Y605000D02*
X992500Y590000D01*
X925000Y605000D02*
X977500D01*
X937969Y302031D02*
X950400Y289600D01*
X895469Y302031D02*
X937969D01*
X890000Y307500D02*
X895469Y302031D01*
X712500Y307500D02*
X890000D01*
X695000Y465000D02*
X705000Y455000D01*
X832500Y462500D02*
X860000Y490000D01*
X812500Y462500D02*
X832500D01*
X795000Y480000D02*
X812500Y462500D01*
X860000Y490000D02*
Y510000D01*
X850000Y490000D02*
Y510000D01*
X830000Y470000D02*
X850000Y490000D01*
X820000Y470000D02*
X830000D01*
X850000Y510000D02*
X870000Y530000D01*
X936600D01*
X866600Y516600D02*
X924600D01*
X860000Y510000D02*
X866600Y516600D01*
X700000Y420000D02*
X812500D01*
X950000Y338800D02*
X967500Y356300D01*
Y420000D01*
X960000Y427500D02*
X967500Y420000D01*
X700000Y430000D02*
X830000D01*
X785000Y480000D02*
X795000D01*
X755000Y510000D02*
X785000Y480000D01*
X936600Y530000D02*
X950000Y516600D01*
X800000Y490000D02*
X820000Y470000D01*
X785000Y490000D02*
X800000D01*
X860000Y605000D02*
X875000D01*
X880000Y585000D02*
X900000Y605000D01*
X910000Y590000D02*
X925000Y605000D01*
X900000Y590000D02*
X910000D01*
X855000Y585000D02*
X880000D01*
X885000Y575000D02*
X900000Y590000D01*
X860000Y575000D02*
X885000D01*
X685000Y460000D02*
X702500Y442500D01*
X675000Y455000D02*
X700000Y430000D01*
X670000Y450000D02*
X700000Y420000D01*
X665000Y445000D02*
X700000Y410000D01*
X660000Y440000D02*
X700000Y400000D01*
X632000Y430000D02*
X650000D01*
X632000Y435000D02*
X655000D01*
X632000Y440000D02*
X660000D01*
X632000Y445000D02*
X665000D01*
X632000Y450000D02*
X670000D01*
X632000Y455000D02*
X675000D01*
X632000Y460000D02*
X685000D01*
X632000Y465000D02*
X695000D01*
X755000Y510000D02*
Y510000D01*
X785000Y500000D02*
X805000D01*
X785000Y510000D02*
X825000D01*
X464600Y905400D02*
Y925000D01*
Y905400D02*
X495000Y875000D01*
X500000D01*
X902000Y725000D02*
X908000Y731000D01*
X805000Y725000D02*
X820000Y740000D01*
X820000D01*
Y750000D01*
X755000Y725000D02*
X805000D01*
X725000Y695000D02*
X755000Y725000D01*
X725000Y645000D02*
Y695000D01*
X862000Y542000D02*
X924600D01*
X840000Y520000D02*
X862000Y542000D01*
X785000Y520000D02*
X840000D01*
X867400Y567400D02*
X924600D01*
X830000Y530000D02*
X867400Y567400D01*
X825000Y540000D02*
X860000Y575000D01*
X785000Y530000D02*
X830000D01*
X785000Y540000D02*
X825000D01*
X745000Y475000D02*
Y510000D01*
X735000Y485000D02*
Y510000D01*
X820000Y550000D02*
X855000Y585000D01*
X785000Y550000D02*
X820000D01*
X815000Y560000D02*
X860000Y605000D01*
X785000Y560000D02*
X815000D01*
X660000Y685000D02*
X785000Y560000D01*
X645000Y685000D02*
X660000D01*
X785000Y575000D02*
X795000D01*
X710000Y650000D02*
X785000Y575000D01*
X710000Y650000D02*
Y700000D01*
X780000Y590000D02*
X800000D01*
X805000Y585000D01*
X645000Y350000D02*
X670000Y375000D01*
X630000Y350000D02*
X645000D01*
X610000Y370000D02*
X630000Y350000D01*
X610000Y370000D02*
Y378000D01*
X960000Y758000D02*
X978000D01*
X985000Y765000D01*
Y805000D01*
X955800Y834200D02*
X985000Y805000D01*
X950000Y834200D02*
X955800D01*
X925000Y860000D02*
X950000Y885000D01*
X925000Y815000D02*
Y860000D01*
Y815000D02*
X940000Y800000D01*
X955000D01*
X960000Y795000D01*
Y772000D02*
Y795000D01*
X699000Y844000D02*
X715000Y860000D01*
X699000Y800000D02*
Y844000D01*
X774000Y885000D02*
X800775D01*
X774000Y821000D02*
Y885000D01*
Y821000D02*
X780000Y815000D01*
Y805000D02*
Y815000D01*
X750000Y740000D02*
Y775000D01*
X710000Y700000D02*
X750000Y740000D01*
X725000Y645000D02*
X780000Y590000D01*
X960000Y735000D02*
Y758000D01*
X937000Y772000D02*
X960000D01*
X920000Y755000D02*
X937000Y772000D01*
X860000Y755000D02*
X920000D01*
X855000Y750000D02*
X860000Y755000D01*
X820000Y750000D02*
X855000D01*
X805000Y585000D02*
X815000D01*
X700000Y470000D02*
X720000Y490000D01*
X632000Y470000D02*
X700000D01*
X632000Y475000D02*
X690000D01*
X30000Y880000D02*
X45000D01*
X65000Y860000D01*
Y755000D02*
Y860000D01*
Y755000D02*
X115000Y705000D01*
Y400000D02*
Y705000D01*
Y400000D02*
X200000Y315000D01*
X177975Y881500D02*
X210000Y849475D01*
Y825000D02*
Y849475D01*
Y825000D02*
X250000Y785000D01*
Y395000D02*
Y785000D01*
X265000Y405000D02*
X280000Y420000D01*
X265000Y340000D02*
Y405000D01*
X80000Y155000D02*
X265000Y340000D01*
X317000Y405000D02*
X412000D01*
X280000Y255000D02*
Y270000D01*
Y255000D02*
X295000Y240000D01*
X452000Y340000D02*
X465000Y353000D01*
X450000Y340000D02*
X452000D01*
X420000Y315000D02*
X490000D01*
X261900Y156900D02*
X420000Y315000D01*
X490000D02*
X505000Y330000D01*
X775632Y660000D02*
X795632Y680000D01*
X765000Y660000D02*
X775632D01*
X585000Y625000D02*
X645000Y685000D01*
X575000Y625000D02*
X585000D01*
X675000Y760000D02*
X710000D01*
X580000Y665000D02*
X675000Y760000D01*
X580000Y660000D02*
Y665000D01*
X670000Y735000D02*
X695000D01*
X602500Y667500D02*
X670000Y735000D01*
X560000Y657000D02*
X688000Y785000D01*
X560000Y532000D02*
Y657000D01*
X550000Y650000D02*
Y670000D01*
Y650000D02*
X555000Y645000D01*
Y532000D02*
Y645000D01*
X688000Y785000D02*
Y800000D01*
X605000Y740000D02*
X625000Y760000D01*
X590000Y740000D02*
X605000D01*
X550000Y700000D02*
X590000Y740000D01*
X550000Y695000D02*
Y700000D01*
X625000Y760000D02*
X635000D01*
X645000Y770000D01*
X655000D01*
X666000Y781000D01*
Y800000D01*
X655000Y785000D02*
Y800000D01*
X650000Y780000D02*
X655000Y785000D01*
X640000Y780000D02*
X650000D01*
X630000Y770000D02*
X640000Y780000D01*
X590000Y770000D02*
X630000D01*
X530000Y695000D02*
X590000Y755000D01*
X530000Y660000D02*
Y695000D01*
X590000Y755000D02*
X600000D01*
X520000Y700000D02*
X590000Y770000D01*
X545000Y532000D02*
Y630000D01*
X520000Y655000D02*
X545000Y630000D01*
X520000Y655000D02*
Y700000D01*
X660000Y675000D02*
X785000Y550000D01*
X660000Y665000D02*
X785000Y540000D01*
X660000Y655000D02*
X785000Y530000D01*
X660000Y645000D02*
X785000Y520000D01*
X660000Y635000D02*
X785000Y510000D01*
X660000Y625000D02*
X785000Y500000D01*
X660000Y615000D02*
X785000Y490000D01*
X660000Y605000D02*
X755000Y510000D01*
X660000Y595000D02*
X745000Y510000D01*
X660000Y585000D02*
X735000Y510000D01*
X800000Y670000D02*
X850000D01*
X782500Y652500D02*
X800000Y670000D01*
X782500Y652500D02*
Y652500D01*
X795632Y680000D02*
X845000D01*
X645000Y585000D02*
X660000D01*
X610000Y550000D02*
X645000Y585000D01*
X665000Y490000D02*
X689999Y514999D01*
X655000Y495000D02*
X674999Y514999D01*
X645000Y500000D02*
X659999Y514999D01*
X689999Y514999D02*
Y534999D01*
X674999Y514999D02*
Y519999D01*
X659999Y514999D02*
Y564999D01*
X645000Y595000D02*
X660000D01*
X645000Y605000D02*
X660000D01*
X645000Y615000D02*
X660000D01*
X645000Y625000D02*
X660000D01*
X645000Y635000D02*
X660000D01*
X645000Y645000D02*
X660000D01*
X645000Y655000D02*
X660000D01*
X645000Y675000D02*
X660000D01*
X645000Y665000D02*
X660000D01*
X570000Y590000D02*
X645000Y665000D01*
X565000Y595000D02*
X645000Y675000D01*
X565000Y532000D02*
Y595000D01*
X570000Y532000D02*
Y590000D01*
X575000Y585000D02*
X645000Y655000D01*
X575000Y532000D02*
Y585000D01*
X710000Y760000D02*
X720000Y770000D01*
X705000Y780000D02*
Y784997D01*
X704998Y784998D02*
X705000Y784997D01*
X704998Y784998D02*
X710000Y790000D01*
X720000Y770000D02*
Y799000D01*
X710000Y790000D02*
Y800000D01*
X615000Y785000D02*
X631000D01*
X580000Y580000D02*
X645000Y645000D01*
X580000Y532000D02*
Y580000D01*
X585000Y575000D02*
X645000Y635000D01*
X585000Y532000D02*
Y575000D01*
X590000Y570000D02*
X645000Y625000D01*
X590000Y532000D02*
Y570000D01*
X595000Y565000D02*
X645000Y615000D01*
X595000Y532000D02*
Y565000D01*
X600000Y560000D02*
X645000Y605000D01*
X600000Y532000D02*
Y560000D01*
X605000Y555000D02*
X645000Y595000D01*
X605000Y532000D02*
Y555000D01*
X610000Y532000D02*
Y550000D01*
X625000Y542000D02*
Y550000D01*
X615000Y532000D02*
X625000Y542000D01*
X640000Y560000D02*
X645000Y555000D01*
X632000Y490000D02*
X665000D01*
X695000Y505000D02*
X700000D01*
X705000Y510000D01*
Y520000D01*
X632000Y500000D02*
X645000D01*
Y515000D02*
Y555000D01*
X640000Y510000D02*
X645000Y515000D01*
X632000Y510000D02*
X640000D01*
X720000Y799000D02*
X721000Y800000D01*
X610000Y480000D02*
X615000Y485000D01*
X710000Y325000D02*
X715000Y330000D01*
X685000Y325000D02*
X710000D01*
X680080Y320080D02*
X685000Y325000D01*
X619920Y320080D02*
X680080D01*
X710000Y310000D02*
X712500Y307500D01*
X705000Y305000D02*
X710000Y300000D01*
X700000D02*
X710000Y290000D01*
X857700Y35000D02*
X860000Y37300D01*
Y70000D01*
X715000Y215000D02*
X860000Y70000D01*
X715000Y215000D02*
Y250000D01*
X700000Y360000D02*
Y370000D01*
X650000Y420000D02*
X700000Y370000D01*
X632000Y420000D02*
X650000D01*
X645000Y405000D02*
X655000Y395000D01*
X632000Y405000D02*
X645000D01*
X615000Y420000D02*
Y425000D01*
Y420000D02*
X625000Y410000D01*
X632000D01*
X425000Y725000D02*
X470000Y680000D01*
Y630000D02*
Y680000D01*
X515000Y545000D02*
X520000Y550000D01*
X515000Y532000D02*
Y545000D01*
X267700Y862300D02*
Y887700D01*
Y862300D02*
X322700D01*
X330000Y855000D01*
X380000D01*
X470000Y765000D01*
Y747000D02*
Y765000D01*
Y720000D02*
Y733000D01*
Y720000D02*
X480000Y710000D01*
Y635000D02*
Y710000D01*
Y635000D02*
X525000Y590000D01*
X329600Y910400D02*
Y925000D01*
Y910400D02*
X355000Y885000D01*
X380000D01*
X510000Y755000D01*
Y730000D02*
Y755000D01*
X490000Y710000D02*
X510000Y730000D01*
X490000Y640000D02*
Y710000D01*
Y640000D02*
X530000Y600000D01*
Y532000D02*
Y600000D01*
X355000Y910000D02*
Y925000D01*
Y910000D02*
X365000Y900000D01*
X390000D01*
X520000Y770000D01*
Y725000D02*
Y770000D01*
X500000Y705000D02*
X520000Y725000D01*
X500000Y645000D02*
Y705000D01*
Y645000D02*
X535000Y610000D01*
Y532000D02*
Y610000D01*
X385000Y930000D02*
X530000Y785000D01*
Y720000D02*
Y785000D01*
X510000Y700000D02*
X530000Y720000D01*
X510000Y650000D02*
Y700000D01*
Y650000D02*
X540000Y620000D01*
Y532000D02*
Y620000D01*
X670000Y480000D02*
X695000Y505000D01*
X632000Y394690D02*
X635000Y391690D01*
Y385000D02*
Y391690D01*
X615000Y405000D02*
X620000Y400000D01*
X632000D01*
X644000Y800000D02*
X645000Y799000D01*
X530000Y660000D02*
X550000Y640000D01*
Y570000D02*
Y640000D01*
Y570000D02*
X550000Y570000D01*
Y532000D02*
Y570000D01*
X495000Y425000D02*
X495000Y425000D01*
X478000Y450000D02*
X495000D01*
X495000Y450000D01*
X881000Y674000D02*
X908000D01*
X875000Y680000D02*
X881000Y674000D01*
X860000Y680000D02*
X875000D01*
X850000Y670000D02*
X860000Y680000D01*
X632000Y495000D02*
X655000D01*
X880000Y690000D02*
X888000Y682000D01*
X908000D01*
X845000Y680000D02*
X855000Y690000D01*
X880000D01*
X615000Y485000D02*
X632000D01*
Y480000D02*
X670000D01*
X810000Y660000D02*
X865000D01*
X870000Y665000D01*
X478000Y490000D02*
X490000D01*
X232800Y350000D02*
Y437640D01*
X235000Y439840D01*
X470000Y455000D02*
X478000D01*
X380000Y465500D02*
X407500D01*
X347000Y465000D02*
X379500D01*
X380000Y465500D01*
X347000Y435000D02*
X379500D01*
X380000Y434500D01*
X235000Y439840D02*
Y450000D01*
X470000Y480000D02*
X478000D01*
X419998Y512502D02*
X422500Y510000D01*
X465000Y475000D02*
X478000D01*
X462500Y487500D02*
X470000Y480000D01*
X422500Y510000D02*
X430000D01*
X382000Y515000D02*
X417500D01*
X419998Y512502D01*
X382000Y490000D02*
X417500D01*
X419998Y487502D01*
X380000Y434500D02*
X389500D01*
X395000Y440000D01*
X400000D01*
X60000Y130000D02*
X80000Y150000D01*
Y155000D01*
X55400Y130000D02*
X60000D01*
X280000Y420000D02*
X390000D01*
X495000Y378000D02*
Y425000D01*
X430000Y510000D02*
X435000Y505000D01*
X445000Y505000D01*
X462500Y487500D01*
X419998Y487502D02*
X422497Y490000D01*
X450000D01*
X465000Y475000D01*
Y450000D02*
X470000Y455000D01*
X430000Y450000D02*
X465000D01*
X390000Y420000D02*
X400000Y430000D01*
X430000Y465000D02*
X435000Y460000D01*
X422000Y465000D02*
X430000D01*
X400000Y440000D02*
X405000Y445000D01*
X435000Y440000D02*
X478000D01*
X400000Y430000D02*
X425000D01*
X435000Y440000D01*
X445000Y420000D02*
X478000D01*
X412000Y405000D02*
X437000Y430000D01*
X420000Y395000D02*
X445000Y420000D01*
X390000Y395000D02*
X420000D01*
X385000Y390000D02*
X390000Y395000D01*
X450000Y415000D02*
X478000D01*
X411000Y376000D02*
X450000Y415000D01*
X385000Y376000D02*
X411000D01*
X465000Y353000D02*
X478000Y340000D01*
X465000Y353000D02*
Y385000D01*
X474690Y394690D01*
X455000Y410000D02*
X478000D01*
X410000Y365000D02*
X455000Y410000D01*
X410000Y360000D02*
Y365000D01*
X460000Y405000D02*
X478000D01*
X430000Y375000D02*
X460000Y405000D01*
X430000Y360000D02*
Y375000D01*
X465000Y400000D02*
X478000D01*
X450000Y385000D02*
X465000Y400000D01*
X450000Y360000D02*
Y385000D01*
X382999Y339999D02*
Y373999D01*
X385000Y376000D01*
X342000Y375000D02*
X357000Y390000D01*
X385000D01*
X342000Y350000D02*
Y375000D01*
X491690D02*
X494690Y378000D01*
X485000Y375000D02*
X491690D01*
X480000Y370000D02*
X485000Y375000D01*
X480000Y370000D02*
Y370000D01*
X505000Y330000D02*
Y378000D01*
X261900Y125000D02*
Y156900D01*
X510000Y325000D02*
Y378000D01*
X490000Y305000D02*
X510000Y325000D01*
X425000Y305000D02*
X490000D01*
X287300Y167300D02*
X425000Y305000D01*
X287300Y125000D02*
Y167300D01*
X515000Y320000D02*
Y378000D01*
X490000Y295000D02*
X515000Y320000D01*
X430000Y295000D02*
X490000D01*
X312700Y177700D02*
X430000Y295000D01*
X312700Y125000D02*
Y177700D01*
X520000Y315000D02*
Y378000D01*
X490000Y285000D02*
X520000Y315000D01*
X435000Y285000D02*
X490000D01*
X345000Y195000D02*
X435000Y285000D01*
X345000Y175000D02*
Y195000D01*
X490000Y275000D02*
X525000Y310000D01*
X440000Y275000D02*
X490000D01*
X365000Y200000D02*
X440000Y275000D01*
X495000Y265000D02*
X530000Y300000D01*
X445000Y265000D02*
X495000D01*
X390000Y210000D02*
X445000Y265000D01*
X390000Y175000D02*
Y210000D01*
X430000Y190000D02*
X535000Y295000D01*
X375000Y120000D02*
Y125000D01*
X437500Y187500D02*
X540000Y290000D01*
X349600Y94600D02*
X375000Y120000D01*
X349600Y70000D02*
Y94600D01*
X375000Y70000D02*
Y105000D01*
X445000Y185000D02*
X545000Y285000D01*
X400400Y105400D02*
X445000Y150000D01*
X400400Y70000D02*
Y105400D01*
X245000Y155000D02*
X415000Y325000D01*
X100000Y155000D02*
X245000D01*
X365000Y175000D02*
Y200000D01*
X575000Y378000D02*
Y385000D01*
X570000Y390000D02*
X575000Y385000D01*
X570000Y390000D02*
Y400000D01*
X585000Y378000D02*
Y395000D01*
X590000Y360000D02*
Y378000D01*
X600000Y370000D02*
Y378000D01*
Y370000D02*
X630000Y340000D01*
X595000Y365000D02*
Y378000D01*
Y345000D02*
Y355000D01*
X540000Y290000D02*
Y378000D01*
X530000Y300000D02*
Y378000D01*
X525000Y310000D02*
Y378000D01*
X535000Y295000D02*
Y378000D01*
X545000Y285000D02*
Y378000D01*
X580000Y360000D02*
Y378000D01*
X590000Y360000D02*
X595000Y355000D01*
Y365000D02*
X610000Y350000D01*
Y330000D02*
Y350000D01*
X550000Y340000D02*
Y378000D01*
X560000Y350000D02*
Y378000D01*
X555000Y345000D02*
Y378000D01*
X565000Y355000D02*
Y378000D01*
Y355000D02*
X605000Y315000D01*
X925000D01*
X560000Y350000D02*
X600000Y310000D01*
X710000D01*
X555000Y345000D02*
X595000Y305000D01*
X705000D01*
X565000Y285000D02*
X615000D01*
X560000Y280000D02*
X565000Y285000D01*
X550000Y340000D02*
X590000Y300000D01*
X700000D01*
X630000Y335000D02*
X675000D01*
X610000Y330000D02*
X619920Y320080D01*
X605000Y235000D02*
X640000Y270000D01*
X535000Y235000D02*
X605000D01*
X465000Y165000D02*
X535000Y235000D01*
X465000Y75000D02*
Y165000D01*
X30000Y53800D02*
X33800D01*
X35000Y55000D01*
X145000Y75000D02*
X270000D01*
X80000Y10000D02*
X145000Y75000D01*
X20000Y10000D02*
X80000D01*
X15000Y15000D02*
X20000Y10000D01*
X15000Y15000D02*
Y38800D01*
X30000Y53800D01*
X640000Y270000D02*
X685000D01*
X640000Y285000D02*
X695000D01*
X600000Y245000D02*
X640000Y285000D01*
X525000Y245000D02*
X600000D01*
X455000Y175000D02*
X525000Y245000D01*
X455000Y135000D02*
Y175000D01*
X430000Y110000D02*
X455000Y135000D01*
X430000Y60000D02*
Y110000D01*
X270000Y75000D02*
X310000Y35000D01*
X425000D01*
X465000Y75000D01*
X415000Y45000D02*
X430000Y60000D01*
X315000Y45000D02*
X415000D01*
X275000Y85000D02*
X315000Y45000D01*
X120000Y85000D02*
X275000D01*
X88800Y53800D02*
X120000Y85000D01*
X55400Y53800D02*
X88800D01*
X510000Y532000D02*
Y570000D01*
X505000Y575000D02*
X510000Y570000D01*
X505000Y532000D02*
Y557500D01*
X450000Y470000D02*
X478000D01*
X447501Y472499D02*
X450000Y470000D01*
X435000Y460000D02*
X478000D01*
X447499Y472499D02*
X447501D01*
X478000Y495000D02*
X490000D01*
Y490000D02*
X495000Y485000D01*
X490000Y495000D02*
X497500Y502500D01*
X467500Y510000D02*
X478000D01*
X462500Y515000D02*
X467500Y510000D01*
X462500Y515000D02*
Y545000D01*
Y505000D02*
X478000D01*
X455000Y512500D02*
X462500Y505000D01*
X455000Y512500D02*
Y532500D01*
X460000Y500000D02*
X478000D01*
X445000Y515000D02*
X460000Y500000D01*
X445000Y515000D02*
Y527500D01*
X585000Y460000D02*
Y510000D01*
X567500Y457500D02*
X585000Y440000D01*
X567500Y457500D02*
Y497500D01*
X565000Y500000D02*
X567500Y497500D01*
X460000Y547500D02*
X462500Y545000D01*
X442500D02*
X455000Y532500D01*
X442500Y545000D02*
Y555000D01*
X430000Y542500D02*
X445000Y527500D01*
X520000Y550000D02*
Y580000D01*
X470000Y630000D02*
X520000Y580000D01*
X525000Y532000D02*
Y590000D01*
X214500Y930000D02*
X242300Y902200D01*
Y887700D02*
Y902200D01*
X177975Y881500D02*
Y907475D01*
X200500Y930000D01*
X392500Y530000D02*
Y557500D01*
X385000Y565000D02*
X392500Y557500D01*
X485000Y577500D02*
Y585000D01*
Y577500D02*
X505000Y557500D01*
X313000Y365000D02*
X328000Y350000D01*
X310000Y365000D02*
X313000D01*
Y368000D02*
X317500Y372500D01*
X325500D01*
X328000Y375000D01*
X82500Y497500D02*
Y562500D01*
X28750Y752250D02*
Y830700D01*
Y752250D02*
X31000Y750000D01*
X770000Y640000D02*
X782500Y652500D01*
X770000Y625000D02*
Y640000D01*
X790000D02*
X810000Y660000D01*
X790000Y612500D02*
Y640000D01*
X750000Y645000D02*
X765000Y660000D01*
X750000Y640000D02*
Y645000D01*
X974200Y465800D02*
X975000Y465000D01*
X500000Y532000D02*
Y552500D01*
X447500Y605000D02*
X500000Y552500D01*
X447500Y605000D02*
Y662500D01*
X385000Y725000D02*
X447500Y662500D01*
X375000Y105000D02*
X437500Y167500D01*
X375000Y125000D02*
X430000Y180000D01*
X445000Y150000D02*
Y185000D01*
X437500Y167500D02*
Y187500D01*
X430000Y180000D02*
Y190000D01*
X425000Y202500D02*
Y215000D01*
X410000Y187500D02*
X425000Y202500D01*
X410000Y172500D02*
Y187500D01*
X362500Y125000D02*
X410000Y172500D01*
X338100Y125000D02*
X362500D01*
X80000Y400000D02*
X82500Y402500D01*
X333000Y435000D02*
Y465000D01*
X368000Y490000D02*
Y515000D01*
X333000Y465000D02*
Y479500D01*
X341000Y487500D01*
X365500D01*
X368000Y490000D01*
X330500Y467500D02*
X333000Y465000D01*
X936973Y377227D02*
X950000Y364200D01*
X830000Y430000D02*
X882773Y377227D01*
X936973D01*
X631000Y785000D02*
X645000Y799000D01*
X602500Y662500D02*
Y667500D01*
X690000Y475000D02*
X702500Y487500D01*
X474690Y394690D02*
X478000D01*
X423500Y443500D02*
X430000Y450000D01*
X805000Y500000D02*
X822500Y482500D01*
X867500Y342500D02*
X895000D01*
X700000Y410000D02*
X795000D01*
X825000Y510000D02*
X832500Y502500D01*
X721250Y471250D02*
X735000Y485000D01*
X477500Y515000D02*
Y545000D01*
X478000Y425000D02*
X495000D01*
X437000Y430000D02*
X478000D01*
X307000Y395000D02*
X317000Y405000D01*
X440000Y425000D02*
X478000D01*
X360000Y400000D02*
X415000D01*
X440000Y425000D01*
X357500Y397500D02*
X360000Y400000D01*
X313000Y365000D02*
Y368000D01*
D20*
X870000Y725000D02*
X902000D01*
X908000Y731000D02*
X959000D01*
X908000Y690000D02*
Y731000D01*
X871000Y666000D02*
X908000D01*
X870000Y665000D02*
X871000Y666000D01*
X510000Y460000D02*
Y465000D01*
Y512500D01*
X502500Y515000D02*
X507500D01*
X510000Y512500D01*
X510000D01*
X242300Y835200D02*
X312500Y765000D01*
X242300Y835200D02*
Y862300D01*
X959000Y633000D02*
Y731000D01*
X908000Y633000D02*
X959000D01*
X493960Y523540D02*
X502500Y515000D01*
X312500Y727500D02*
X493960Y546040D01*
X312500Y727500D02*
Y765000D01*
X510000Y460000D02*
X520000Y450000D01*
X555000D01*
X493960Y523540D02*
Y546040D01*
D21*
X760000Y800000D02*
Y885000D01*
Y800000D02*
X796000Y764000D01*
X820000D01*
X595306Y475000D02*
Y490306D01*
X705000Y885000D02*
X760000D01*
X680000Y860000D02*
X705000Y885000D01*
X680000Y830000D02*
Y860000D01*
X440000Y325000D02*
X485000D01*
X427500Y337500D02*
X440000Y325000D01*
X399498Y337500D02*
X427500D01*
X595306Y475000D02*
X600000Y470306D01*
Y405000D02*
Y470306D01*
X595306Y490306D02*
X620540Y515540D01*
X555000Y445000D02*
X595000Y405000D01*
X600000D01*
X500000Y378000D02*
Y393500D01*
X677000Y800000D02*
Y827000D01*
X680000Y830000D01*
X500000Y365000D02*
Y378000D01*
X492000Y357000D02*
X500000Y365000D01*
X492000Y340000D02*
Y357000D01*
Y332000D02*
Y340000D01*
X485000Y325000D02*
X492000Y332000D01*
X396999Y339999D02*
X399498Y337500D01*
X285000Y335000D02*
Y385000D01*
Y335000D02*
X300000Y320000D01*
X395000D01*
X396999Y321999D01*
Y339999D01*
X615000Y378000D02*
Y390000D01*
X600000Y405000D02*
X615000Y390000D01*
X480000Y465000D02*
X510000D01*
X45000Y742500D02*
Y750000D01*
Y742500D02*
X92500Y695000D01*
X500000Y393500D02*
X506500Y400000D01*
X537500D01*
X555000Y417500D02*
Y445000D01*
Y450000D01*
X92500Y640000D02*
Y695000D01*
X60000Y607500D02*
X92500Y640000D01*
X60000Y487499D02*
Y607500D01*
X285000Y385000D02*
X294000Y394000D01*
X537500Y400000D02*
X555000Y417500D01*
X620540Y515540D02*
X632000D01*
D22*
X924600Y491200D02*
X950000D01*
Y465800D02*
Y491200D01*
Y465800D02*
X974200D01*
X35000Y400000D02*
X80000D01*
X190000Y397500D02*
Y430000D01*
X302500Y467500D02*
X330500D01*
D23*
X556650Y161650D02*
D03*
D24*
X740000Y904500D02*
D03*
D25*
X740000Y946000D02*
D03*
D26*
X605000Y950500D02*
D03*
D27*
X740000Y842000D02*
D03*
X628500Y800000D02*
D03*
D28*
X31200Y350000D02*
D03*
X232800D02*
D03*
D29*
X267700Y887700D02*
D03*
X242300D02*
D03*
Y862300D02*
D03*
X82500Y562500D02*
D03*
X37500D02*
D03*
X82500Y497500D02*
D03*
X37500D02*
D03*
X540800Y925000D02*
D03*
X490000D02*
D03*
X515400D02*
D03*
X338100Y125000D02*
D03*
X287300D02*
D03*
X312700D02*
D03*
X20000Y629600D02*
D03*
X329600Y925000D02*
D03*
X355000D02*
D03*
X950000Y491200D02*
D03*
X924600D02*
D03*
X950000Y516600D02*
D03*
X924600D02*
D03*
X950000Y542000D02*
D03*
X924600D02*
D03*
X950000Y567400D02*
D03*
X924600Y465800D02*
D03*
X950000D02*
D03*
X924600Y440400D02*
D03*
X950000D02*
D03*
X924600Y415000D02*
D03*
X950000D02*
D03*
X924600Y389600D02*
D03*
X950000D02*
D03*
Y364200D02*
D03*
X924600D02*
D03*
Y338800D02*
D03*
X950000D02*
D03*
X177975Y881500D02*
D03*
Y830700D02*
D03*
X28750D02*
D03*
Y856100D02*
D03*
Y881500D02*
D03*
X950000Y885000D02*
D03*
Y834200D02*
D03*
X800775D02*
D03*
Y859600D02*
D03*
Y885000D02*
D03*
X925000Y315000D02*
D03*
X950400Y162600D02*
D03*
X925000D02*
D03*
X950400Y188000D02*
D03*
X925000D02*
D03*
X950400Y213400D02*
D03*
X925000D02*
D03*
X950400Y315000D02*
D03*
X925000Y289600D02*
D03*
X950400D02*
D03*
X925000Y264200D02*
D03*
X950400D02*
D03*
X925000Y238800D02*
D03*
X950400D02*
D03*
X752700Y35000D02*
D03*
X857700D02*
D03*
X30000Y180800D02*
D03*
X55400D02*
D03*
X30000Y155400D02*
D03*
X55400D02*
D03*
X30000Y130000D02*
D03*
X55400D02*
D03*
X30000Y28400D02*
D03*
X55400Y53800D02*
D03*
X30000D02*
D03*
X55400Y79200D02*
D03*
X30000D02*
D03*
X55400Y104600D02*
D03*
X30000D02*
D03*
X197700Y45000D02*
D03*
X400400Y70000D02*
D03*
X375000D02*
D03*
D30*
X267700Y862300D02*
D03*
X20000Y655000D02*
D03*
X924600Y567400D02*
D03*
X55400Y28400D02*
D03*
D31*
X464600Y925000D02*
D03*
X261900Y125000D02*
D03*
X380400Y925000D02*
D03*
X727300Y35000D02*
D03*
X832300D02*
D03*
X172300Y45000D02*
D03*
X349600Y70000D02*
D03*
D32*
X425000Y725000D02*
D03*
X385000D02*
D03*
D33*
X105000Y922000D02*
D03*
Y790000D02*
D03*
X877025Y925500D02*
D03*
Y793500D02*
D03*
D34*
X380000Y434500D02*
D03*
Y465500D02*
D03*
D35*
X875000Y262500D02*
D03*
X832500Y330000D02*
D03*
X810000Y327500D02*
D03*
X822500Y372500D02*
D03*
X805000Y367500D02*
D03*
X815000Y417500D02*
D03*
X795000Y407500D02*
D03*
X792500Y260000D02*
D03*
X777500Y242500D02*
D03*
X757500Y232500D02*
D03*
X782500Y327500D02*
D03*
X762500D02*
D03*
X742500D02*
D03*
X877500Y330000D02*
D03*
X895000Y340000D02*
D03*
X835000Y387500D02*
D03*
X847500Y375000D02*
D03*
X787500Y367500D02*
D03*
X872500Y415000D02*
D03*
X857500Y430000D02*
D03*
X892500Y427500D02*
D03*
X890000Y447500D02*
D03*
X880000Y397500D02*
D03*
X730000Y342500D02*
D03*
X722500Y470000D02*
D03*
X862500Y365000D02*
D03*
X755000Y375000D02*
D03*
X735000Y380000D02*
D03*
X772500Y382500D02*
D03*
X825000Y485000D02*
D03*
X835000Y505000D02*
D03*
X900000Y605000D02*
D03*
X880000D02*
D03*
X745000Y475000D02*
D03*
X500000Y875000D02*
D03*
X870000Y725000D02*
D03*
X795000Y575000D02*
D03*
X670000Y375000D02*
D03*
X715000Y860000D02*
D03*
X780000Y805000D02*
D03*
X750000Y775000D02*
D03*
X815000Y585000D02*
D03*
X720000Y490000D02*
D03*
X700000D02*
D03*
X200000Y315000D02*
D03*
X250000Y395000D02*
D03*
X315000D02*
D03*
X280000Y270000D02*
D03*
X295000Y240000D02*
D03*
X450000Y340000D02*
D03*
X600000Y665000D02*
D03*
X580000Y660000D02*
D03*
X550000Y670000D02*
D03*
X575000Y625000D02*
D03*
X550000Y695000D02*
D03*
X600000Y755000D02*
D03*
X689999Y534999D02*
D03*
X674999Y519999D02*
D03*
X659999Y564999D02*
D03*
X695000Y735000D02*
D03*
X705000Y780000D02*
D03*
X615000Y785000D02*
D03*
X625000Y550000D02*
D03*
X640000Y560000D02*
D03*
X705000Y520000D02*
D03*
X610000Y480000D02*
D03*
X555000Y450000D02*
D03*
X565000Y500000D02*
D03*
X585000Y510000D02*
D03*
X715000Y330000D02*
D03*
Y250000D02*
D03*
X700000Y360000D02*
D03*
X585000Y440000D02*
D03*
X655000Y395000D02*
D03*
X585000Y460000D02*
D03*
X615000Y425000D02*
D03*
X505000Y575000D02*
D03*
X565825Y143300D02*
D03*
X547475D02*
D03*
X538300Y152475D02*
D03*
X547475Y161650D02*
D03*
X556650Y152475D02*
D03*
X575000D02*
D03*
X565825Y161650D02*
D03*
X575000Y170825D02*
D03*
X556650D02*
D03*
X547475Y180000D02*
D03*
X565825D02*
D03*
X538300Y170825D02*
D03*
X870000Y665000D02*
D03*
X495000Y450000D02*
D03*
X680000Y830000D02*
D03*
X235000Y450000D02*
D03*
X480000Y370000D02*
D03*
X410000Y360000D02*
D03*
X430000D02*
D03*
X450000D02*
D03*
X615000Y405000D02*
D03*
X635000Y385000D02*
D03*
X415000Y325000D02*
D03*
X100000Y155000D02*
D03*
X345000Y175000D02*
D03*
X365000D02*
D03*
X390000D02*
D03*
X570000Y400000D02*
D03*
X585000Y395000D02*
D03*
X610000Y330000D02*
D03*
X595000Y345000D02*
D03*
X580000Y355000D02*
D03*
X560000Y280000D02*
D03*
X615000Y285000D02*
D03*
X630000Y335000D02*
D03*
X675000D02*
D03*
X695000Y285000D02*
D03*
X685000Y270000D02*
D03*
X447499Y472499D02*
D03*
X497500Y502500D02*
D03*
X495000Y485000D02*
D03*
X460000Y547500D02*
D03*
X442500Y555000D02*
D03*
X430000Y542500D02*
D03*
X485000Y587500D02*
D03*
X385000Y565000D02*
D03*
X392500Y530000D02*
D03*
X310000Y365000D02*
D03*
X92500Y695000D02*
D03*
X547500Y402500D02*
D03*
X885000Y635000D02*
D03*
X770000Y625000D02*
D03*
X790000Y612500D02*
D03*
X750000Y640000D02*
D03*
X60000Y487499D02*
D03*
X512500Y150000D02*
D03*
X975000Y465000D02*
D03*
X477500Y545000D02*
D03*
X425000Y215000D02*
D03*
X82500Y402500D02*
D03*
X35000Y400000D02*
D03*
X190000Y430000D02*
D03*
Y397500D02*
D03*
X302500Y467500D02*
D03*
X205000Y465000D02*
D03*
X312500Y75000D02*
D03*
X517500Y435000D02*
D03*
X337500Y300000D02*
D03*
X262500Y202500D02*
D03*
X202500Y130000D02*
D03*
X535000Y492500D02*
D03*
X125000Y175000D02*
D03*
X912500Y90000D02*
D03*
X937500Y30000D02*
D03*
D36*
X575000Y152475D02*
D03*
Y170825D02*
D03*
X556650Y152475D02*
D03*
Y170825D02*
D03*
X538300Y152475D02*
D03*
Y170825D02*
D03*
X565825Y180000D02*
D03*
X547475D02*
D03*
X565825Y161650D02*
D03*
X565825Y143300D02*
D03*
X547475D02*
D03*
Y161650D02*
D03*
M02*
