G04 Layer_Color=32896*
%FSLAX44Y44*%
%MOMM*%
G71*
G01*
G75*
%ADD19C,0.2540*%
%ADD45C,0.2000*%
%ADD47C,0.2500*%
%ADD76C,0.7500*%
D19*
X661444Y296695D02*
Y283999D01*
X658905Y281460D01*
X653827D01*
X651287Y283999D01*
Y296695D01*
X646209Y294156D02*
X643670Y296695D01*
X638591D01*
X636052Y294156D01*
Y291617D01*
X641131Y286538D01*
Y283999D02*
Y281460D01*
X140142Y697921D02*
Y685225D01*
X137603Y682686D01*
X132524D01*
X129985Y685225D01*
Y697921D01*
X124907Y682686D02*
X119829D01*
X122368D01*
Y697921D01*
X124907Y695382D01*
X806090Y744009D02*
Y731313D01*
X803551Y728774D01*
X798473D01*
X795933Y731313D01*
Y744009D01*
X780698Y728774D02*
X790855D01*
X780698Y738931D01*
Y741470D01*
X783237Y744009D01*
X788316D01*
X790855Y741470D01*
X199843Y642696D02*
X202383Y645235D01*
X207461D01*
X210000Y642696D01*
Y632539D01*
X207461Y630000D01*
X202383D01*
X199843Y632539D01*
X194765Y642696D02*
X192226Y645235D01*
X187147D01*
X184608Y642696D01*
Y640157D01*
X187147Y637617D01*
X189687D01*
X187147D01*
X184608Y635078D01*
Y632539D01*
X187147Y630000D01*
X192226D01*
X194765Y632539D01*
X119843Y472696D02*
X122382Y475235D01*
X127461D01*
X130000Y472696D01*
Y462539D01*
X127461Y460000D01*
X122382D01*
X119843Y462539D01*
X107147Y460000D02*
Y475235D01*
X114765Y467617D01*
X104608D01*
X889843Y630196D02*
X892383Y632735D01*
X897461D01*
X900000Y630196D01*
Y620039D01*
X897461Y617500D01*
X892383D01*
X889843Y620039D01*
X884765Y617500D02*
X879687D01*
X882226D01*
Y632735D01*
X884765Y630196D01*
X872069Y617500D02*
X866991D01*
X869530D01*
Y632735D01*
X872069Y630196D01*
X792343D02*
X794883Y632735D01*
X799961D01*
X802500Y630196D01*
Y620039D01*
X799961Y617500D01*
X794883D01*
X792343Y620039D01*
X787265Y617500D02*
X782187D01*
X784726D01*
Y632735D01*
X787265Y630196D01*
X764412Y617500D02*
X774569D01*
X764412Y627657D01*
Y630196D01*
X766952Y632735D01*
X772030D01*
X774569Y630196D01*
X662343Y650196D02*
X664883Y652735D01*
X669961D01*
X672500Y650196D01*
Y640039D01*
X669961Y637500D01*
X664883D01*
X662343Y640039D01*
X657265Y637500D02*
X652187D01*
X654726D01*
Y652735D01*
X657265Y650196D01*
X644569D02*
X642030Y652735D01*
X636951D01*
X634412Y650196D01*
Y647657D01*
X636951Y645117D01*
X639491D01*
X636951D01*
X634412Y642578D01*
Y640039D01*
X636951Y637500D01*
X642030D01*
X644569Y640039D01*
X664843Y590196D02*
X667383Y592735D01*
X672461D01*
X675000Y590196D01*
Y580039D01*
X672461Y577500D01*
X667383D01*
X664843Y580039D01*
X659765Y577500D02*
X654687D01*
X657226D01*
Y592735D01*
X659765Y590196D01*
X639451Y577500D02*
Y592735D01*
X647069Y585117D01*
X636912D01*
X662343Y620196D02*
X664883Y622735D01*
X669961D01*
X672500Y620196D01*
Y610039D01*
X669961Y607500D01*
X664883D01*
X662343Y610039D01*
X657265Y607500D02*
X652187D01*
X654726D01*
Y622735D01*
X657265Y620196D01*
X634412Y622735D02*
X644569D01*
Y615117D01*
X639491Y617657D01*
X636951D01*
X634412Y615117D01*
Y610039D01*
X636951Y607500D01*
X642030D01*
X644569Y610039D01*
X425000Y685000D02*
Y700235D01*
X417383D01*
X414843Y697696D01*
Y692617D01*
X417383Y690078D01*
X425000D01*
X419922D02*
X414843Y685000D01*
X409765D02*
X404687D01*
X407226D01*
Y700235D01*
X409765Y697696D01*
X542500Y640000D02*
Y655235D01*
X534883D01*
X532343Y652696D01*
Y647617D01*
X534883Y645078D01*
X542500D01*
X537422D02*
X532343Y640000D01*
X527265Y652696D02*
X524726Y655235D01*
X519647D01*
X517108Y652696D01*
Y650157D01*
X519647Y647617D01*
X522187D01*
X519647D01*
X517108Y645078D01*
Y642539D01*
X519647Y640000D01*
X524726D01*
X527265Y642539D01*
X465000Y645000D02*
Y660235D01*
X457383D01*
X454843Y657696D01*
Y652617D01*
X457383Y650078D01*
X465000D01*
X459922D02*
X454843Y645000D01*
X442147D02*
Y660235D01*
X449765Y652617D01*
X439608D01*
X515000Y595000D02*
Y610235D01*
X507383D01*
X504843Y607696D01*
Y602617D01*
X507383Y600078D01*
X515000D01*
X509922D02*
X504843Y595000D01*
X489608Y610235D02*
X499765D01*
Y602617D01*
X494687Y605157D01*
X492147D01*
X489608Y602617D01*
Y597539D01*
X492147Y595000D01*
X497226D01*
X499765Y597539D01*
X404796Y636942D02*
Y652177D01*
X397178D01*
X394639Y649638D01*
Y644559D01*
X397178Y642020D01*
X404796D01*
X399718D02*
X394639Y636942D01*
X379404Y652177D02*
X384483Y649638D01*
X389561Y644559D01*
Y639481D01*
X387022Y636942D01*
X381943D01*
X379404Y639481D01*
Y642020D01*
X381943Y644559D01*
X389561D01*
X457500Y575000D02*
Y590235D01*
X449883D01*
X447343Y587696D01*
Y582617D01*
X449883Y580078D01*
X457500D01*
X452422D02*
X447343Y575000D01*
X442265Y587696D02*
X439726Y590235D01*
X434647D01*
X432108Y587696D01*
Y585157D01*
X434647Y582617D01*
X432108Y580078D01*
Y577539D01*
X434647Y575000D01*
X439726D01*
X442265Y577539D01*
Y580078D01*
X439726Y582617D01*
X442265Y585157D01*
Y587696D01*
X439726Y582617D02*
X434647D01*
X390000Y605000D02*
Y620235D01*
X382383D01*
X379843Y617696D01*
Y612617D01*
X382383Y610078D01*
X390000D01*
X384922D02*
X379843Y605000D01*
X374765Y607539D02*
X372226Y605000D01*
X367147D01*
X364608Y607539D01*
Y617696D01*
X367147Y620235D01*
X372226D01*
X374765Y617696D01*
Y615157D01*
X372226Y612617D01*
X364608D01*
X425000Y507500D02*
Y522735D01*
X417383D01*
X414843Y520196D01*
Y515117D01*
X417383Y512578D01*
X425000D01*
X419922D02*
X414843Y507500D01*
X409765D02*
X404687D01*
X407226D01*
Y522735D01*
X409765Y520196D01*
X397069Y507500D02*
X391991D01*
X394530D01*
Y522735D01*
X397069Y520196D01*
X359692Y601848D02*
Y617083D01*
X352075D01*
X349535Y614544D01*
Y609466D01*
X352075Y606926D01*
X359692D01*
X354614D02*
X349535Y601848D01*
X344457D02*
X339379D01*
X341918D01*
Y617083D01*
X344457Y614544D01*
X321604Y601848D02*
X331761D01*
X321604Y612005D01*
Y614544D01*
X324143Y617083D01*
X329222D01*
X331761Y614544D01*
X341684Y562344D02*
Y577579D01*
X334067D01*
X331527Y575040D01*
Y569962D01*
X334067Y567422D01*
X341684D01*
X336606D02*
X331527Y562344D01*
X326449D02*
X321371D01*
X323910D01*
Y577579D01*
X326449Y575040D01*
X306136Y562344D02*
Y577579D01*
X313753Y569962D01*
X303596D01*
X307500Y602500D02*
Y617735D01*
X299883D01*
X297343Y615196D01*
Y610117D01*
X299883Y607578D01*
X307500D01*
X302422D02*
X297343Y602500D01*
X292265D02*
X287187D01*
X289726D01*
Y617735D01*
X292265Y615196D01*
X269412Y617735D02*
X279569D01*
Y610117D01*
X274491Y612657D01*
X271952D01*
X269412Y610117D01*
Y605039D01*
X271952Y602500D01*
X277030D01*
X279569Y605039D01*
X284334Y544804D02*
Y560039D01*
X276716D01*
X274177Y557500D01*
Y552422D01*
X276716Y549882D01*
X284334D01*
X279256D02*
X274177Y544804D01*
X269099D02*
X264021D01*
X266560D01*
Y560039D01*
X269099Y557500D01*
X246246Y560039D02*
X251325Y557500D01*
X256403Y552422D01*
Y547343D01*
X253864Y544804D01*
X248785D01*
X246246Y547343D01*
Y549882D01*
X248785Y552422D01*
X256403D01*
X205000Y537500D02*
Y552735D01*
X197383D01*
X194843Y550196D01*
Y545117D01*
X197383Y542578D01*
X205000D01*
X199922D02*
X194843Y537500D01*
X189765D02*
X184687D01*
X187226D01*
Y552735D01*
X189765Y550196D01*
X177069Y552735D02*
X166912D01*
Y550196D01*
X177069Y540039D01*
Y537500D01*
X280000Y490000D02*
Y505235D01*
X272383D01*
X269843Y502696D01*
Y497617D01*
X272383Y495078D01*
X280000D01*
X274922D02*
X269843Y490000D01*
X264765D02*
X259687D01*
X262226D01*
Y505235D01*
X264765Y502696D01*
X252069D02*
X249530Y505235D01*
X244452D01*
X241912Y502696D01*
Y500157D01*
X244452Y497617D01*
X241912Y495078D01*
Y492539D01*
X244452Y490000D01*
X249530D01*
X252069Y492539D01*
Y495078D01*
X249530Y497617D01*
X252069Y500157D01*
Y502696D01*
X249530Y497617D02*
X244452D01*
X150000Y577500D02*
Y592735D01*
X142382D01*
X139843Y590196D01*
Y585117D01*
X142382Y582578D01*
X150000D01*
X144922D02*
X139843Y577500D01*
X134765D02*
X129687D01*
X132226D01*
Y592735D01*
X134765Y590196D01*
X122069Y580039D02*
X119530Y577500D01*
X114452D01*
X111912Y580039D01*
Y590196D01*
X114452Y592735D01*
X119530D01*
X122069Y590196D01*
Y587657D01*
X119530Y585117D01*
X111912D01*
X756680Y764982D02*
Y780217D01*
X749062D01*
X746523Y777678D01*
Y772599D01*
X749062Y770060D01*
X756680D01*
X751602D02*
X746523Y764982D01*
X731288D02*
X741445D01*
X731288Y775139D01*
Y777678D01*
X733827Y780217D01*
X738906D01*
X741445Y777678D01*
X726210Y764982D02*
X721132D01*
X723671D01*
Y780217D01*
X726210Y777678D01*
X152500Y502500D02*
Y517735D01*
X144882D01*
X142343Y515196D01*
Y510117D01*
X144882Y507578D01*
X152500D01*
X147422D02*
X142343Y502500D01*
X127108D02*
X137265D01*
X127108Y512657D01*
Y515196D01*
X129647Y517735D01*
X134726D01*
X137265Y515196D01*
X111873Y502500D02*
X122030D01*
X111873Y512657D01*
Y515196D01*
X114412Y517735D01*
X119491D01*
X122030Y515196D01*
X47500Y460000D02*
Y475235D01*
X39883D01*
X37343Y472696D01*
Y467617D01*
X39883Y465078D01*
X47500D01*
X42422D02*
X37343Y460000D01*
X22108D02*
X32265D01*
X22108Y470157D01*
Y472696D01*
X24647Y475235D01*
X29726D01*
X32265Y472696D01*
X17030D02*
X14491Y475235D01*
X9412D01*
X6873Y472696D01*
Y470157D01*
X9412Y467617D01*
X11952D01*
X9412D01*
X6873Y465078D01*
Y462539D01*
X9412Y460000D01*
X14491D01*
X17030Y462539D01*
D45*
X393750Y601750D02*
X406250D01*
X393750Y628250D02*
X406250D01*
Y601750D02*
Y628250D01*
X393750Y601750D02*
Y628250D01*
X348750Y593250D02*
X361250D01*
X348750Y566750D02*
X361250D01*
X348750D02*
Y593250D01*
X361250Y566750D02*
Y593250D01*
X316750Y541250D02*
Y553750D01*
X343250Y541250D02*
Y553750D01*
X316750Y541250D02*
X343250D01*
X316750Y553750D02*
X343250D01*
X259250Y523750D02*
Y536250D01*
X285750Y523750D02*
Y536250D01*
X259250Y523750D02*
X285750D01*
X259250Y536250D02*
X285750D01*
X751000Y651500D02*
X779000D01*
X751000Y718500D02*
X779000D01*
X751000Y651500D02*
Y718500D01*
X779000Y651500D02*
Y718500D01*
X656650Y11650D02*
Y78650D01*
X630650Y266650D02*
X656650D01*
Y257650D02*
Y266650D01*
X476650D02*
X502650D01*
X476650Y257650D02*
Y266650D01*
Y11650D02*
Y78650D01*
Y11650D02*
X656650D01*
X114000Y620000D02*
Y670000D01*
X96000Y620000D02*
Y670000D01*
X114000D01*
X96000Y620000D02*
X114000D01*
X758250Y743750D02*
Y756250D01*
X731750Y743750D02*
Y756250D01*
X758250D01*
X731750Y743750D02*
X758250D01*
X168750Y619250D02*
X181250D01*
X168750Y645750D02*
X181250D01*
Y619250D02*
Y645750D01*
X168750Y619250D02*
Y645750D01*
X153750Y566750D02*
X166250D01*
X153750Y593250D02*
X166250D01*
Y566750D02*
Y593250D01*
X153750Y566750D02*
Y593250D01*
X156250Y515750D02*
X168750D01*
X156250Y489250D02*
X168750D01*
X156250D02*
Y515750D01*
X168750Y489250D02*
Y515750D01*
X208750Y548250D02*
X221250D01*
X208750Y521750D02*
X221250D01*
X208750D02*
Y548250D01*
X221250Y521750D02*
Y548250D01*
X83750Y478250D02*
X96250D01*
X83750Y451750D02*
X96250D01*
X83750D02*
Y478250D01*
X96250Y451750D02*
Y478250D01*
X53750Y451750D02*
X66250D01*
X53750Y478250D02*
X66250D01*
Y451750D02*
Y478250D01*
X53750Y451750D02*
Y478250D01*
X289250Y491250D02*
Y503750D01*
X315750Y491250D02*
Y503750D01*
X289250Y491250D02*
X315750D01*
X289250Y503750D02*
X315750D01*
X376250Y530750D02*
X388750D01*
X376250Y504250D02*
X388750D01*
X376250D02*
Y530750D01*
X388750Y504250D02*
Y530750D01*
X471250Y620750D02*
X483750D01*
X471250Y594250D02*
X483750D01*
X471250D02*
Y620750D01*
X483750Y594250D02*
Y620750D01*
X484250Y628750D02*
Y641250D01*
X510750Y628750D02*
Y641250D01*
X484250Y628750D02*
X510750D01*
X484250Y641250D02*
X510750D01*
X436250Y614250D02*
X448750D01*
X436250Y640750D02*
X448750D01*
Y614250D02*
Y640750D01*
X436250Y614250D02*
Y640750D01*
X408750Y675750D02*
X421250D01*
X408750Y649250D02*
X421250D01*
X408750D02*
Y675750D01*
X421250Y649250D02*
Y675750D01*
X413750Y593250D02*
X426250D01*
X413750Y566750D02*
X426250D01*
X413750D02*
Y593250D01*
X426250Y566750D02*
Y593250D01*
X301250Y581250D02*
Y593750D01*
X327750Y581250D02*
Y593750D01*
X301250Y581250D02*
X327750D01*
X301250Y593750D02*
X327750D01*
X373750Y568750D02*
X386250D01*
X373750Y595250D02*
X386250D01*
Y568750D02*
Y595250D01*
X373750Y568750D02*
Y595250D01*
X708250Y583750D02*
Y596250D01*
X681750Y583750D02*
Y596250D01*
X708250D01*
X681750Y583750D02*
X708250D01*
Y603750D02*
Y616250D01*
X681750Y603750D02*
Y616250D01*
X708250D01*
X681750Y603750D02*
X708250D01*
Y633750D02*
Y646250D01*
X681750Y633750D02*
Y646250D01*
X708250D01*
X681750Y633750D02*
X708250D01*
X843750Y611750D02*
X856250D01*
X843750Y638250D02*
X856250D01*
Y611750D02*
Y638250D01*
X843750Y611750D02*
Y638250D01*
X813750Y611750D02*
X826250D01*
X813750Y638250D02*
X826250D01*
Y611750D02*
Y638250D01*
X813750Y611750D02*
Y638250D01*
D47*
X795250Y718500D02*
G03*
X795250Y718500I-1250J0D01*
G01*
X130250Y672550D02*
G03*
X130250Y672550I-1250J0D01*
G01*
D76*
X464502Y85450D02*
G03*
X464502Y85450I-2500J0D01*
G01*
M02*
